<svg xmlns="http://www.w3.org/2000/svg" width="368" height="336"><path d="M0 0 C6.52134029 2.88152245 10.68344932 6.68276061 14 13 C14.309375 13.886875 14.61875 14.77375 14.9375 15.6875 C15.9318136 18.4876014 15.9318136 18.4876014 20 20 C19.34 17.03 18.68 14.06 18 11 C22.59177856 13.77642425 25.98645203 16.43662736 29 21 C29.40685228 23.30278393 29.5613542 25.54130277 29.6875 27.875 C30.15132629 31.02901877 31.79595395 32.79595395 34 35 C35.04005702 31.61981469 35.08004482 28.5219721 35 25 C39.33055443 28.27197446 42.1090817 30.74744918 44 36 C44.22526772 39.26638194 44.2534917 42.01419895 43.4375 45.1875 C42.89978278 47.41518561 43.30718474 48.84457475 44 51 C45.98 51.495 45.98 51.495 48 52 C48.495 47.05 48.495 47.05 49 42 C52 43 52 43 53.203125 45.0390625 C55.38985626 50.4406151 56.67496228 54.19346408 55 60 C54.4225 61.010625 53.845 62.02125 53.25 63.0625 C51.57083621 66.05945972 51.57083621 66.05945972 53.3125 69.375 C53.869375 70.24125 54.42625 71.1075 55 72 C55.26554687 71.45730469 55.53109375 70.91460937 55.8046875 70.35546875 C56.15789062 69.64003906 56.51109375 68.92460937 56.875 68.1875 C57.22304688 67.47980469 57.57109375 66.77210938 57.9296875 66.04296875 C59 64 59 64 61 61 C63.87596846 65.79328077 64.45277476 70.76867217 63.3125 76.1875 C62.314116 79.68523987 60.96682284 81.77488287 58 84 C57.34 84 56.68 84 56 84 C56.495 88.455 56.495 88.455 57 93 C60.87051275 89.92118304 64.02911382 86.99926986 67 83 C68.20046093 88.64216638 68.24012867 93.5872004 66 99 C63.19529393 102.47092658 60.35230459 103.91192385 56 105 C56.495 109.455 56.495 109.455 57 114 C57.71027344 113.4225 58.42054688 112.845 59.15234375 112.25 C60.07144531 111.5075 60.99054688 110.765 61.9375 110 C62.85402344 109.2575 63.77054687 108.515 64.71484375 107.75 C67 106 67 106 68 106 C68.28951652 111.59731932 68.18452849 115.1683016 65 120 C62.25895103 122.66696656 60.55377323 123.86970042 56.8125 124.75 C53.88907339 125.6695641 53.88907339 125.6695641 53.17578125 127.8984375 C52.67840541 129.90910577 52.32981377 131.95515465 52 134 C53.58420129 133.37720331 55.16732531 132.75166599 56.75 132.125 C57.63171875 131.77695313 58.5134375 131.42890625 59.421875 131.0703125 C61.6740248 130.1353291 63.83649459 129.12219206 66 128 C64.62054487 134.66736648 63.15210075 139.8985995 57.1875 143.875 C53.60518445 145.13934666 50.77194259 145.22631656 47 145 C46.690625 145.94875 46.38125 146.8975 46.0625 147.875 C45 151 45 151 44 153 C45.75029762 152.68917128 47.50022694 152.37626821 49.25 152.0625 C50.22453125 151.88847656 51.1990625 151.71445313 52.203125 151.53515625 C54.49721795 151.09620271 56.74291971 150.59651408 59 150 C57.39594883 155.74785004 55.28229189 159.33003032 50.4375 162.875 C45.49169389 164.49362746 41.08327038 163.7507321 36 163 C34.79371992 165.33214148 33.8345262 167.49642139 33 170 C37.95 170.33 42.9 170.66 48 171 C41.29832776 179.26020067 41.29832776 179.26020067 37 181 C31.72722269 181.41847439 27.96541546 180.98616619 23 179 C21.35 180.65 19.7 182.3 18 184 C22.70406799 185.86540627 26.94744036 187.36843005 32 188 C31.01959541 190.58470302 30.09341365 191.92357065 27.9375 193.6875 C23.30196986 195.75869432 18.65351359 196.98414542 13.74609375 195.1640625 C12.38286077 194.45608515 11.03969636 193.7072231 9.7265625 192.91015625 C7.88298778 191.76683813 7.88298778 191.76683813 5 192 C2.97676387 192.95211112 0.97300116 193.94773272 -1 195 C0.74681293 195.98484108 2.4975851 196.96266187 4.25 197.9375 C5.22453125 198.48277344 6.1990625 199.02804687 7.203125 199.58984375 C9.53610409 200.76610835 11.45350762 201.52101691 14 202 C14 202.66 14 203.32 14 204 C8.66353438 206.93947161 4.25808832 208.74629413 -1.87109375 207.765625 C-5.03683907 206.62711843 -6.98859435 204.55282497 -9.37109375 202.2421875 C-11.08929934 200.6715399 -11.08929934 200.6715399 -14.25 201 C-17.1589581 201.93483705 -17.1589581 201.93483705 -20 204 C-18.22970554 205.29240512 -16.45874502 206.58389793 -14.6875 207.875 C-13.70136719 208.59429687 -12.71523438 209.31359375 -11.69921875 210.0546875 C-9.82476885 211.4055935 -7.92247007 212.71835329 -6 214 C-10.91364452 216.40668303 -14.41006182 217.60981144 -20 217 C-25.65777575 215.03709821 -28.3795767 211.5686294 -32 207 C-36.455 207.99 -36.455 207.99 -41 209 C-41.95904856 205.16380575 -41.91892116 203.67568464 -41 200 C-38.36 199.67 -35.72 199.34 -33 199 C-32.97421875 198.35933594 -32.9484375 197.71867188 -32.921875 197.05859375 C-32.52183018 190.95791019 -31.71496057 186.91981264 -28 182 C-23.16129032 179 -23.16129032 179 -20 179 C-20.30822621 181.2922454 -20.62170874 183.58378455 -20.9375 185.875 C-21.11152344 187.15117187 -21.28554688 188.42734375 -21.46484375 189.7421875 C-22 193 -22 193 -23 195 C-19.04 194.01 -19.04 194.01 -15 193 C-15.061875 191.659375 -15.12375 190.31875 -15.1875 188.9375 C-15.1628884 183.71163678 -14.26149661 179.38210977 -10.53515625 175.45703125 C-6.57457983 172 -6.57457983 172 -4 172 C-4 177.28 -4 182.56 -4 188 C-2.02 187.01 -0.04 186.02 2 185 C1.95359375 184.05898437 1.9071875 183.11796875 1.859375 182.1484375 C1.52768147 170.70501083 1.52768147 170.70501083 3.75 167.25 C6 165 6 165 10 163 C10.66 168.28 11.32 173.56 12 179 C13.98 177.35 15.96 175.7 18 174 C17.67 173.01 17.34 172.02 17 171 C15.62549568 166.01365951 14.78931779 161.46776688 17.12109375 156.71484375 C18.34576544 154.74773652 19.61639154 152.85798851 21 151 C23.63595772 153.63595772 24.07702112 156.06187181 25.125 159.625 C25.47820312 160.81351563 25.83140625 162.00203125 26.1953125 163.2265625 C26.46085937 164.14179688 26.72640625 165.05703125 27 166 C28.65 163.69 30.3 161.38 32 159 C31.360625 157.96875 30.72125 156.9375 30.0625 155.875 C27.81294653 151.86597436 26.34560877 148.53342889 27.546875 143.8828125 C29.51373922 138.24313039 29.51373922 138.24313039 32 137 C32.81752303 138.58074564 33.62881997 140.16471223 34.4375 141.75 C34.88996094 142.63171875 35.34242188 143.5134375 35.80859375 144.421875 C36.83455398 146.64198566 37.51508603 148.61444619 38 151 C40.27779356 147.23343935 40.27779356 147.23343935 40.9375 143 C39.96921644 140.77920925 39.96921644 140.77920925 38 138.1875 C35.47774658 134.16765861 34.45821329 130.74648311 35.39453125 126 C35.86689039 124.31445948 36.4262414 122.65377479 37 121 C40.93898847 124.50132308 43.31061305 128.51768841 46 133 C46.66 130.03 47.32 127.06 48 124 C47.236875 123.46375 46.47375 122.9275 45.6875 122.375 C42.01133489 119.12629595 40.16381136 116.37882584 39.8203125 111.390625 C39.81333062 108.9190383 39.86832031 106.46777502 40 104 C41.1055189 104.93590504 42.20935453 105.87379858 43.3125 106.8125 C43.92738281 107.33457031 44.54226563 107.85664063 45.17578125 108.39453125 C46.85424679 109.87172469 48.43882034 111.40039131 50 113 C51.35168218 111.84543904 51.35168218 111.84543904 51.5 108.75 C51.42256246 105.09905975 51.42256246 105.09905975 49.54296875 103.671875 C48.28476483 102.87721989 47.02290577 102.08832827 45.7578125 101.3046875 C42.78027239 99.09469106 42.0174635 96.47134605 41 93 C40.8125 89.0625 40.8125 89.0625 41 86 C41.61488281 86.433125 42.22976563 86.86625 42.86328125 87.3125 C43.67152344 87.869375 44.47976563 88.42625 45.3125 89 C46.11300781 89.556875 46.91351563 90.11375 47.73828125 90.6875 C49.99663018 92.25095964 49.99663018 92.25095964 53 92 C52.505 88.535 52.505 88.535 52 85 C50.4221875 84.690625 50.4221875 84.690625 48.8125 84.375 C44.4602731 83.1327652 42.55356148 80.72090387 40 77 C38.625 74.3125 38.625 74.3125 38 72 C38.495 70.515 38.495 70.515 39 69 C41.97 70.32 44.94 71.64 48 73 C49.33332095 70.3333581 48.67102033 68.83319697 48 66 C46.80375 65.938125 45.6075 65.87625 44.375 65.8125 C39.50688761 65.2007549 37.40919902 63.48848272 34 60 C32.0625 57.3125 32.0625 57.3125 31 55 C31.495 54.01 31.495 54.01 32 53 C34.97 53.33 37.94 53.66 41 54 C40.67 52.35 40.34 50.7 40 49 C38.824375 49.0825 37.64875 49.165 36.4375 49.25 C31.74772016 49.23342834 28.64127596 47.91655599 25 45 C23.149646 43.08422945 21.60391326 41.13855101 20 39 C23.3 39 26.6 39 30 39 C29.23025247 36.3202093 29.23025247 36.3202093 27 34 C24.85600021 33.82918925 24.85600021 33.82918925 22.4375 34.0625 C16.20123249 34.42069504 11.75963641 31.90897799 7 28 C7 27.34 7 26.68 7 26 C10.96 25.505 10.96 25.505 15 25 C15 24.34 15 23.68 15 23 C13.3715005 21.80579785 13.3715005 21.80579785 11 21 C9.96875 21.20625 8.9375 21.4125 7.875 21.625 C1.52440148 22.23957405 -3.78001912 19.47998726 -9 16 C-8.67 15.34 -8.34 14.68 -8 14 C-5.36 14 -2.72 14 0 14 C0 13.01 0 12.02 0 11 C-1.32 10.34 -2.64 9.68 -4 9 C-3.67 8.34 -3.34 7.68 -3 7 C-1.02 7.33 0.96 7.66 3 8 C2.505 7.05125 2.01 6.1025 1.5 5.125 C0 2 0 2 0 0 Z M52 94 C53 96 53 96 53 96 Z " fill="#FBFCFD" transform="translate(282,68)"></path><path d="M0 0 C-1.33333333 3.33333333 -2.66666667 6.66666667 -4 10 C-1.36 9.01 1.28 8.02 4 7 C2.86695008 10.39914975 1.87481525 11.05254451 -1 13 C3.455 13.99 3.455 13.99 8 15 C3.28591764 19.71408236 -0.29388293 21.52099164 -7 22 C-7.86625 21.773125 -8.7325 21.54625 -9.625 21.3125 C-12.23556576 20.69924992 -12.23556576 20.69924992 -14.8125 22.9375 C-15.534375 23.618125 -16.25625 24.29875 -17 25 C-13.7 25.33 -10.4 25.66 -7 26 C-12.95 32.29 -12.95 32.29 -17 34 C-18.66769234 33.97794787 -20.33508262 33.91116177 -22 33.8125 C-25.65901333 33.62141223 -25.65901333 33.62141223 -28.7578125 35.32421875 C-30.30669215 37.1511985 -30.30669215 37.1511985 -32 40 C-28.37 39.67 -24.74 39.34 -21 39 C-23.4245625 43.849125 -26.81279073 47.16922026 -32 49 C-34.33203812 49.0777346 -36.66839059 49.08967728 -39 49 C-40.32 51.31 -41.64 53.62 -43 56 C-39.04 55.01 -35.08 54.02 -31 53 C-35.09597523 62.10216718 -35.09597523 62.10216718 -40 65 C-42.66181878 65.86248877 -45.24855502 66.44038407 -48 67 C-48.66 69.64 -49.32 72.28 -50 75 C-49.46375 74.566875 -48.9275 74.13375 -48.375 73.6875 C-41.77777778 69 -41.77777778 69 -38 69 C-39.58360364 74.90954528 -41.03833907 79.07682624 -46 83 C-49.3125 84.8125 -49.3125 84.8125 -52 86 C-52 88.64 -52 91.28 -52 94 C-51.28972656 93.4225 -50.57945313 92.845 -49.84765625 92.25 C-48.92855469 91.5075 -48.00945313 90.765 -47.0625 90 C-46.14597656 89.2575 -45.22945312 88.515 -44.28515625 87.75 C-42 86 -42 86 -41 86 C-41.61738616 95.7717327 -41.61738616 95.7717327 -45 100 C-47.26269201 101.98675396 -49.30832695 103.65416347 -52 105 C-51.67 107.97 -51.34 110.94 -51 114 C-49.9171875 112.63875 -49.9171875 112.63875 -48.8125 111.25 C-46.47347206 108.4298006 -43.94933345 106.19093342 -41 104 C-40 105 -40 105 -39.6875 108.5625 C-39.75679787 113.38736416 -41.26777292 117.05441968 -44 121 C-46.75 123.5 -46.75 123.5 -49 125 C-48.01 127.31 -47.02 129.62 -46 132 C-45.51789062 131.278125 -45.03578125 130.55625 -44.5390625 129.8125 C-43.90742187 128.884375 -43.27578125 127.95625 -42.625 127 C-41.99851562 126.071875 -41.37203125 125.14375 -40.7265625 124.1875 C-39.87191406 123.1046875 -39.87191406 123.1046875 -39 122 C-38.34 122 -37.68 122 -37 122 C-35.14780412 125.70439176 -35.53352247 129.95719476 -36 134 C-37.875 137.375 -37.875 137.375 -40 140 C-41.51294288 141.93597032 -41.51294288 141.93597032 -42 144 C-40.71815438 146.74832154 -40.71815438 146.74832154 -39 149 C-35.95950199 145.35140239 -34.03481238 141.2555467 -32 137 C-28.70155939 140.15503015 -27.8220047 142.05184031 -27.6875 146.625 C-27.71116595 152.0523904 -29.25756611 155.37214281 -32 160 C-30.35 161.98 -28.7 163.96 -27 166 C-25.68 161.05 -24.36 156.1 -23 151 C-20 152 -20 152 -18.375 154.0625 C-15.38444645 160.45140985 -15.76305232 165.48946381 -17.8203125 172.01953125 C-18.23192128 174.10020842 -18.23192128 174.10020842 -16.6796875 175.76171875 C-15.07949337 177.19779686 -15.07949337 177.19779686 -13 177 C-12.01 172.38 -11.02 167.76 -10 163 C-3.125 168.625 -3.125 168.625 -2 172 C-1.93062938 174.22818441 -1.91542916 176.45834524 -1.9375 178.6875 C-1.94652344 179.86699219 -1.95554687 181.04648438 -1.96484375 182.26171875 C-1.97644531 183.16535156 -1.98804687 184.06898438 -2 185 C0.31 186.32 2.62 187.64 5 189 C4.83628906 188.47921875 4.67257813 187.9584375 4.50390625 187.421875 C3.85941341 184.3243125 3.90588411 181.41158906 3.9375 178.25 C3.94652344 177.07953125 3.95554687 175.9090625 3.96484375 174.703125 C3.97644531 173.81109375 3.98804687 172.9190625 4 172 C9.10146273 174.08696202 11.62261882 175.98108418 14 181 C14.60729237 184.99588173 14.86933521 188.96245804 15 193 C17.64 193.99 20.28 194.98 23 196 C21.68 190.72 20.36 185.44 19 180 C19.99 179.67 20.98 179.34 22 179 C25.85272093 181.16715552 28.677434 183.23809732 31 187 C31.73046875 190.015625 31.73046875 190.015625 32.1875 193.25 C32.34605469 194.32765625 32.50460938 195.4053125 32.66796875 196.515625 C32.83232422 197.74539063 32.83232422 197.74539063 33 199 C35.64 199.33 38.28 199.66 41 200 C42.08174162 203.36541838 41.92538169 204.29847322 41 208 C37.7 207.67 34.4 207.34 31 207 C30.29875 208.093125 29.5975 209.18625 28.875 210.3125 C26.32991217 213.8342742 24.21162141 215.5961262 20 217 C14.92150246 217.63099569 10.77502612 216.91001045 6 215 C6 214.34 6 213.68 6 213 C7.010625 212.443125 8.02125 211.88625 9.0625 211.3125 C12.90878446 209.12247273 16.43460872 206.61947115 20 204 C16.22942769 201.74257439 16.22942769 201.74257439 12 201 C9.72570231 202.01975134 9.72570231 202.01975134 7.3125 204.5 C3.57282307 207.74042535 -0.13387298 208.29491679 -5 208 C-8.02729241 207.32726835 -10.17932773 206.41033613 -13 205 C-13.33 204.01 -13.66 203.02 -14 202 C-13.32453125 201.74605469 -12.6490625 201.49210938 -11.953125 201.23046875 C-10.61507812 200.71419922 -10.61507812 200.71419922 -9.25 200.1875 C-8.36828125 199.85105469 -7.4865625 199.51460937 -6.578125 199.16796875 C-4.06960192 198.03153178 -2.12720995 196.73457073 0 195 C-3.14724448 192.66393782 -3.14724448 192.66393782 -6.875 192.125 C-8.68470044 192.87017077 -10.44389512 193.7361034 -12.1875 194.625 C-16.56076311 196.53009101 -20.44926577 196.23283527 -25 195 C-28.75916716 192.94954519 -30.62598016 191.56102976 -33 188 C-31.51886719 187.69255859 -31.51886719 187.69255859 -30.0078125 187.37890625 C-28.72648437 187.10949219 -27.44515625 186.84007812 -26.125 186.5625 C-24.84882812 186.29566406 -23.57265625 186.02882812 -22.2578125 185.75390625 C-19.13539756 185.1652174 -19.13539756 185.1652174 -17 184 C-19.2166156 182.09639352 -21.40958229 180.36595556 -24 179 C-26.52363988 179.62533375 -26.52363988 179.62533375 -29 181 C-35.46387663 181.62553645 -38.70543154 180.7672891 -44 177 C-48 172.58974359 -48 172.58974359 -48 171 C-42.72 170.67 -37.44 170.34 -32 170 C-35.9902815 163.92752195 -35.9902815 163.92752195 -39.46484375 163.51953125 C-40.68880859 163.66455078 -40.68880859 163.66455078 -41.9375 163.8125 C-46.5480071 164.06522409 -49.13732973 163.80921474 -53 161 C-55.29646725 158.51172849 -57.43788125 156.01482841 -59 153 C-58.67 152.01 -58.34 151.02 -58 150 C-57.14535156 150.22816406 -56.29070313 150.45632812 -55.41015625 150.69140625 C-54.30542969 150.97886719 -53.20070313 151.26632813 -52.0625 151.5625 C-50.96035156 151.85253906 -49.85820313 152.14257812 -48.72265625 152.44140625 C-47.82417969 152.62574219 -46.92570312 152.81007812 -46 153 C-45.67 152.67 -45.34 152.34 -45 152 C-45.33 151.401875 -45.66 150.80375 -46 150.1875 C-47 148 -47 148 -47 145 C-48.03125 145.061875 -49.0625 145.12375 -50.125 145.1875 C-55.49468454 144.92767655 -58.55487403 143.52541074 -62.25 139.625 C-63.95076735 137.07384898 -65.16810363 134.94945075 -66 132 C-65.505 130.02 -65.505 130.02 -65 128 C-61.04 129.98 -57.08 131.96 -53 134 C-53.33 131.03 -53.66 128.06 -54 125 C-55.051875 124.938125 -56.10375 124.87625 -57.1875 124.8125 C-61.7049319 123.84976861 -63.12257842 122.53511794 -66 119 C-67.7247253 116.05998784 -68.32635954 113.63459183 -68.625 110.25 C-68.69976562 109.45078125 -68.77453125 108.6515625 -68.8515625 107.828125 C-68.90054688 107.22484375 -68.94953125 106.6215625 -69 106 C-65.96147295 107.40976705 -63.4060405 109.08870228 -60.75 111.125 C-60.04359375 111.66382813 -59.3371875 112.20265625 -58.609375 112.7578125 C-58.07828125 113.16773438 -57.5471875 113.57765625 -57 114 C-57 111.03 -57 108.06 -57 105 C-58.11375 104.62875 -58.11375 104.62875 -59.25 104.25 C-63.04566188 102.52469915 -65.14327219 100.45643727 -67.25 96.875 C-68.36620374 92.59621901 -68.15366507 88.39652836 -68 84 C-67.01 84 -66.02 84 -65 84 C-63.95355934 85.63790712 -62.9601817 87.31008021 -62 89 C-60.70420353 90.36984198 -59.38007251 91.7151049 -58 93 C-57.11495715 89.01320882 -57.11495715 89.01320882 -57 85 C-59.22930256 82.18731921 -59.22930256 82.18731921 -62 80 C-64.6281221 76.37068853 -64.42987425 72.31527613 -64 68 C-63 64.5 -63 64.5 -62 62 C-61.34 62 -60.68 62 -60 62 C-58.35 65.63 -56.7 69.26 -55 73 C-52.84516366 67.8510523 -52.84516366 67.8510523 -54 63 C-54.350625 62.38125 -54.70125 61.7625 -55.0625 61.125 C-57.02894756 56.66771887 -56.2768319 52.7777658 -54.6875 48.3125 C-53 45 -53 45 -50 41 C-48.515 47.435 -48.515 47.435 -47 54 C-46.319375 52.72125 -45.63875 51.4425 -44.9375 50.125 C-44.55464844 49.40570313 -44.17179687 48.68640625 -43.77734375 47.9453125 C-43.52082031 47.30335937 -43.26429687 46.66140625 -43 46 C-43.33 45.34 -43.66 44.68 -44 44 C-45.11808116 37.30566594 -43.44245173 33.20704246 -39.60546875 27.75 C-38 26 -38 26 -35 25 C-35 28.63 -35 32.26 -35 36 C-30.86431181 31.96882319 -30.86431181 31.96882319 -29.9375 26.5 C-29.958125 25.345 -29.97875 24.19 -30 23 C-27.64371706 18.63651307 -24.59142839 15.3919046 -21 12 C-20.01 12.33 -19.02 12.66 -18 13 C-18.66 15.97 -19.32 18.94 -20 22 C-17.1506538 20.30579415 -15.30676922 18.92825505 -14.24609375 15.71875 C-14.04113281 14.8628125 -13.83617187 14.006875 -13.625 13.125 C-12.17483311 7.47434969 -6.49975362 0 0 0 Z " fill="#FBFDFD" transform="translate(107,68)"></path><path d="M0 0 C0.67289063 -0.02449219 1.34578125 -0.04898438 2.0390625 -0.07421875 C5.47923738 -0.09453474 7.29307075 0.11855788 10.046875 2.24609375 C11.90611047 4.7542208 12.47294545 6.25788165 12.625 9.375 C11.95833333 11.04166667 11.29166667 12.70833333 10.625 14.375 C10.93636156 17.05270941 11.42278366 18.97056732 12.625 21.375 C12.60179687 20.11042969 12.57859375 18.84585938 12.5546875 17.54296875 C12.53592874 15.8828184 12.51772865 14.22266167 12.5 12.5625 C12.48324219 11.72912109 12.46648437 10.89574219 12.44921875 10.03710938 C12.44277344 9.23466797 12.43632812 8.43222656 12.4296875 7.60546875 C12.41921387 6.86707764 12.40874023 6.12868652 12.39794922 5.36791992 C12.625 3.375 12.625 3.375 14.625 0.375 C16.935 0.375 19.245 0.375 21.625 0.375 C21.955 6.645 22.285 12.915 22.625 19.375 C25.595 15.415 28.565 11.455 31.625 7.375 C28.655 7.045 25.685 6.715 22.625 6.375 C22.955 4.395 23.285 2.415 23.625 0.375 C29.565 0.375 35.505 0.375 41.625 0.375 C42.625 4.375 42.625 4.375 41.19140625 6.8828125 C40.53011719 7.74648437 39.86882812 8.61015625 39.1875 9.5 C36.50382995 12.61405972 36.50382995 12.61405972 35.625 16.375 C37.935 17.035 40.245 17.695 42.625 18.375 C42.667721 20.04111905 42.66563832 21.70882885 42.625 23.375 C39.85972827 26.14027173 30.29397688 24.69739607 26.38842773 24.72509766 C24.67637531 24.74164863 22.96439175 24.76892774 21.25268555 24.80712891 C18.78658139 24.86190476 16.32209935 24.88377209 13.85546875 24.8984375 C13.09179489 24.92110687 12.32812103 24.94377625 11.54130554 24.96713257 C7.66907707 24.95174533 5.98757984 24.71318254 3.1105957 22.02978516 C1.625 19.375 1.625 19.375 1.625 16.375 C0.73369587 19.0489124 0.14768466 21.61223823 -0.375 24.375 C-2.685 24.375 -4.995 24.375 -7.375 24.375 C-7.40005615 23.81514404 -7.4251123 23.25528809 -7.45092773 22.6784668 C-7.56703745 20.13958695 -7.6896958 17.60106447 -7.8125 15.0625 C-7.85181641 14.18142578 -7.89113281 13.30035156 -7.93164062 12.39257812 C-7.97353516 11.54501953 -8.01542969 10.69746094 -8.05859375 9.82421875 C-8.11358032 8.65379028 -8.11358032 8.65379028 -8.16967773 7.4597168 C-8.31625263 5.18170899 -8.31625263 5.18170899 -9.375 2.375 C-6.54316475 -0.45683525 -3.78655565 0.00717151 0 0 Z M-0.375 6.375 C-0.375 7.695 -0.375 9.015 -0.375 10.375 C1.275 10.045 2.925 9.715 4.625 9.375 C4.295 8.385 3.965 7.395 3.625 6.375 C2.305 6.375 0.985 6.375 -0.375 6.375 Z " fill="#FBFDFD" transform="translate(178.375,208.625)"></path><path d="M0 0 C1.134375 0.020625 2.26875 0.04125 3.4375 0.0625 C3.7675 2.0425 4.0975 4.0225 4.4375 6.0625 C4.9325 5.0725 5.4275 4.0825 5.9375 3.0625 C8.4375 0.0625 8.4375 0.0625 10.484375 -0.3359375 C12.6875 -0.3125 12.6875 -0.3125 16.4375 0.0625 C15.40495845 2.84241956 14.39649749 5.12107502 12.6875 7.5625 C11.11903348 10.00806878 11.11903348 10.00806878 12.125 12.625 C12.558125 13.429375 12.99125 14.23375 13.4375 15.0625 C13.994375 16.2071875 13.994375 16.2071875 14.5625 17.375 C14.85125 17.931875 15.14 18.48875 15.4375 19.0625 C16.95171001 17.54828999 16.65059856 16.13777232 16.75390625 14.02734375 C16.79580078 13.21845703 16.83769531 12.40957031 16.88085938 11.57617188 C16.92017578 10.72603516 16.95949219 9.87589844 17 9 C17.04318359 8.14599609 17.08636719 7.29199219 17.13085938 6.41210938 C17.23726702 4.29577963 17.33791731 2.17916187 17.4375 0.0625 C19.7475 0.0625 22.0575 0.0625 24.4375 0.0625 C24.9325 8.4775 24.9325 8.4775 25.4375 17.0625 C26.7575 17.0625 28.0775 17.0625 29.4375 17.0625 C29.7675 11.4525 30.0975 5.8425 30.4375 0.0625 C33.0775 0.0625 35.7175 0.0625 38.4375 0.0625 C38.40440952 3.12788213 38.33715759 6.18607552 38.25 9.25 C38.24419922 10.11431641 38.23839844 10.97863281 38.23242188 11.86914062 C38.08002209 16.28873453 37.85682951 18.48436682 35.19921875 22.1484375 C30.93662758 25.10270861 27.43363503 24.70954044 22.4375 24.0625 C19.3125 23.0625 19.3125 23.0625 17.4375 22.0625 C17.1075 22.7225 16.7775 23.3825 16.4375 24.0625 C13.25 24.5625 13.25 24.5625 9.4375 24.0625 C7.28725764 21.63549378 5.84646506 18.97133109 4.4375 16.0625 C4.2209375 17.7640625 4.2209375 17.7640625 4 19.5 C3.4375 23.0625 3.4375 23.0625 2.4375 24.0625 C-0.5625 24.1875 -0.5625 24.1875 -3.5625 24.0625 C-5.21644117 22.40855883 -4.69249683 20.45934587 -4.6953125 18.1875 C-4.69660156 17.20265625 -4.69789063 16.2178125 -4.69921875 15.203125 C-4.69535156 14.16671875 -4.69148437 13.1303125 -4.6875 12.0625 C-4.69330078 10.50789062 -4.69330078 10.50789062 -4.69921875 8.921875 C-4.69792969 7.93703125 -4.69664062 6.9521875 -4.6953125 5.9375 C-4.69418457 5.02742188 -4.69305664 4.11734375 -4.69189453 3.1796875 C-4.46964634 -0.45679617 -3.79240798 0.06653347 0 0 Z " fill="#FCFDFD" transform="translate(141.5625,118.9375)"></path><path d="M0 0 C2.31 0 4.62 0 7 0 C7.33 1.98 7.66 3.96 8 6 C8.495 5.01 8.99 4.02 9.5 3 C12 0 12 0 14.046875 -0.3984375 C16.25 -0.375 16.25 -0.375 20 0 C18.77472971 4.05281712 17.30119506 7.44360764 15 11 C15.66 12.11375 16.32 13.2275 17 14.375 C19 17.75 19 17.75 19 20 C19.66 20 20.32 20 21 20 C21.1134375 19.32453125 21.226875 18.6490625 21.34375 17.953125 C22.12633012 14.43151448 23.27871787 11.14402825 24.5 7.75 C24.9434375 6.50734375 25.386875 5.2646875 25.84375 3.984375 C27 1 27 1 28 0 C30.33297433 -0.04092937 32.66705225 -0.04241723 35 0 C43 18.97233202 43 18.97233202 43 24 C40.69 24 38.38 24 36 24 C35.505 22.02 35.505 22.02 35 20 C32.69 20 30.38 20 28 20 C27.67 21.32 27.34 22.64 27 24 C22.38 24 17.76 24 13 24 C9 17.25 9 17.25 9 15 C8.34 15 7.68 15 7 15 C7.33 15.99 7.66 16.98 8 18 C7.72428861 20.00875442 7.39764263 22.01178687 7 24 C4.69 24 2.38 24 0 24 C0 16.08 0 8.16 0 0 Z M31 9 C30.67 10.65 30.34 12.3 30 14 C30.99 13.67 31.98 13.34 33 13 C32.34 11.68 31.68 10.36 31 9 Z " fill="#FCFDFD" transform="translate(218,164)"></path><path d="M0 0 C2.31 0 4.62 0 7 0 C8.65 2.97 10.3 5.94 12 9 C14.95724036 5.35587053 14.95724036 5.35587053 16.25 2.25 C17.11625 1.13625 17.11625 1.13625 18 0 C21.609375 -0.140625 21.609375 -0.140625 25 0 C25.02887236 3.81248426 25.04675492 7.6249407 25.0625 11.4375 C25.07087891 12.52611328 25.07925781 13.61472656 25.08789062 14.73632812 C25.09272461 16.28803711 25.09272461 16.28803711 25.09765625 17.87109375 C25.10551147 19.30859985 25.10551147 19.30859985 25.11352539 20.77514648 C25 23 25 23 24 24 C22.00041636 24.04080783 19.99954746 24.04254356 18 24 C17.67 21.36 17.34 18.72 17 16 C16.34 16.99 15.68 17.98 15 19 C11.875 19.1875 11.875 19.1875 9 19 C8.67 18.34 8.34 17.68 8 17 C7.34 19.31 6.68 21.62 6 24 C4.33388095 24.042721 2.66617115 24.04063832 1 24 C0 23 0 23 -0.11352539 20.77514648 C-0.10828857 19.81680908 -0.10305176 18.85847168 -0.09765625 17.87109375 C-0.09443359 16.83662109 -0.09121094 15.80214844 -0.08789062 14.73632812 C-0.07951172 13.64771484 -0.07113281 12.55910156 -0.0625 11.4375 C-0.05798828 10.34501953 -0.05347656 9.25253906 -0.04882812 8.12695312 C-0.03699826 5.41791505 -0.02051543 2.70898401 0 0 Z " fill="#FBFCFD" transform="translate(147,164)"></path><path d="M0 0 C1.134375 0.020625 2.26875 0.04125 3.4375 0.0625 C4.10904933 1.35163487 4.77458859 2.64390204 5.4375 3.9375 C5.80875 4.65679687 6.18 5.37609375 6.5625 6.1171875 C7.4375 8.0625 7.4375 8.0625 7.4375 10.0625 C8.0975 10.0625 8.7575 10.0625 9.4375 10.0625 C9.72625 9.155 10.015 8.2475 10.3125 7.3125 C11.20281776 4.74047092 12.15244413 2.44903234 13.4375 0.0625 C15.7475 0.0625 18.0575 0.0625 20.4375 0.0625 C21.71241216 2.61232433 21.46346616 4.22715424 21.31640625 7.0703125 C21.26806641 8.05644531 21.21972656 9.04257813 21.16992188 10.05859375 C21.11384766 11.09113281 21.05777344 12.12367188 21 13.1875 C20.94779297 14.22777344 20.89558594 15.26804688 20.84179688 16.33984375 C20.71189054 18.91435116 20.57691748 21.48849296 20.4375 24.0625 C18.4575 24.0625 16.4775 24.0625 14.4375 24.0625 C13.7775 21.7525 13.1175 19.4425 12.4375 17.0625 C12.1075 17.7225 11.7775 18.3825 11.4375 19.0625 C9.43795254 19.10504356 7.43708364 19.10330783 5.4375 19.0625 C5.1075 18.7325 4.7775 18.4025 4.4375 18.0625 C3.7775 20.0425 3.1175 22.0225 2.4375 24.0625 C0.4575 24.0625 -1.5225 24.0625 -3.5625 24.0625 C-4.51528997 21.20413009 -4.69121126 19.3960544 -4.6953125 16.4296875 C-4.69660156 15.54152344 -4.69789063 14.65335938 -4.69921875 13.73828125 C-4.69535156 12.81402344 -4.69148437 11.88976562 -4.6875 10.9375 C-4.69136719 10.00550781 -4.69523438 9.07351562 -4.69921875 8.11328125 C-4.69792969 7.22769531 -4.69664062 6.34210938 -4.6953125 5.4296875 C-4.69418457 4.61612793 -4.69305664 3.80256836 -4.69189453 2.96435547 C-4.45622678 -0.49951583 -3.59612556 0.06308992 0 0 Z " fill="#FBFDFD" transform="translate(185.5625,118.9375)"></path><path d="M0 0 C2.39774745 -0.13572155 4.78775245 -0.23436868 7.1875 -0.3125 C8.19780273 -0.3753418 8.19780273 -0.3753418 9.22851562 -0.43945312 C13.18216972 -0.53588371 14.81936175 -0.1422705 17.9609375 2.33203125 C20 5 20 5 20.4375 8 C20 11 20 11 18.875 13.625 C17.70616117 15.96204133 17.70616117 15.96204133 18.875 18.0625 C19.24625 18.701875 19.6175 19.34125 20 20 C20 21.32 20 22.64 20 24 C16.75 24.375 16.75 24.375 13 24 C10.625 21.0625 10.625 21.0625 9 18 C8.67 17.67 8.34 17.34 8 17 C7.67 19.31 7.34 21.62 7 24 C5.02 24 3.04 24 1 24 C-0.94305123 18.41558177 -1.12697555 13.92055462 -0.625 8.0625 C-0.56828125 7.28326172 -0.5115625 6.50402344 -0.453125 5.70117188 C-0.31315654 3.79993361 -0.15813968 1.89981314 0 0 Z M7 6 C7 7.32 7 8.64 7 10 C8.65 10 10.3 10 12 10 C11.67 8.68 11.34 7.36 11 6 C9.68 6 8.36 6 7 6 Z " fill="#FCFDFD" transform="translate(262,164)"></path><path d="M0 0 C1.84851563 -0.05607422 1.84851563 -0.05607422 3.734375 -0.11328125 C7.81267893 0.38064667 9.3769849 1.4448053 12.25 4.3125 C14.33666742 8.48583483 13.69849656 13.76692676 13.25 18.3125 C11.15784488 21.99180728 10.23851981 22.9829934 6.25 24.3125 C4.02181559 24.38187062 1.79165476 24.39707084 -0.4375 24.375 C-2.20673828 24.36146484 -2.20673828 24.36146484 -4.01171875 24.34765625 C-4.91535156 24.33605469 -5.81898438 24.32445312 -6.75 24.3125 C-7.70278997 21.45413009 -7.87871126 19.6460544 -7.8828125 16.6796875 C-7.88410156 15.79152344 -7.88539063 14.90335938 -7.88671875 13.98828125 C-7.88285156 13.06402344 -7.87898437 12.13976562 -7.875 11.1875 C-7.87886719 10.25550781 -7.88273438 9.32351562 -7.88671875 8.36328125 C-7.88542969 7.47769531 -7.88414062 6.59210938 -7.8828125 5.6796875 C-7.88168457 4.86612793 -7.88055664 4.05256836 -7.87939453 3.21435547 C-7.58191928 -1.15796943 -3.55353105 0.07003847 0 0 Z M0.25 6.3125 C0.25 9.9425 0.25 13.5725 0.25 17.3125 C1.9 17.3125 3.55 17.3125 5.25 17.3125 C6.09442152 14.35702467 6.3153653 12.5739612 5.5625 9.5625 C5.129375 8.82 4.69625 8.0775 4.25 7.3125 C2.93 6.9825 1.61 6.6525 0.25 6.3125 Z " fill="#FCFDFD" transform="translate(238.75,118.6875)"></path><path d="M0 0 C1.5 2.0625 1.5 2.0625 1.5 4.0625 C-1.41765 6.0076 -3.12537285 6.51526317 -6.5 7.0625 C-5.55125 7.18625 -4.6025 7.31 -3.625 7.4375 C-0.5 8.0625 -0.5 8.0625 1.5 10.0625 C2.28504673 17.01577103 2.28504673 17.01577103 -0.375 20.5625 C-4.73343544 22.65454901 -8.73940051 22.72820985 -13.5 22.0625 C-15.76171875 21.203125 -15.76171875 21.203125 -17.5 20.0625 C-18.25 17.4375 -18.25 17.4375 -18.5 15.0625 C-17.18 14.4025 -15.86 13.7425 -14.5 13.0625 C-15.16 12.546875 -15.82 12.03125 -16.5 11.5 C-18.5 9.0625 -18.5 9.0625 -19 5.5625 C-18.5 2.0625 -18.5 2.0625 -16.75 -0.3125 C-11.63315151 -4.00800168 -5.01216547 -3.88442824 0 0 Z M-11.5 4.0625 C-10.84 4.7225 -10.18 5.3825 -9.5 6.0625 C-9.5 5.4025 -9.5 4.7425 -9.5 4.0625 C-10.16 4.0625 -10.82 4.0625 -11.5 4.0625 Z M-12.5 13.0625 C-11.51 14.5475 -11.51 14.5475 -10.5 16.0625 C-8.85 15.7325 -7.2 15.4025 -5.5 15.0625 C-5.83 14.4025 -6.16 13.7425 -6.5 13.0625 C-8.48 13.0625 -10.46 13.0625 -12.5 13.0625 Z " fill="#FBFDFD" transform="translate(214.5,165.9375)"></path><path d="M0 0 C1.58206057 0.00667536 3.16410534 0.0186375 4.74609375 0.03515625 C5.55240234 0.03966797 6.35871094 0.04417969 7.18945312 0.04882812 C9.18753131 0.06065107 11.18557158 0.07858711 13.18359375 0.09765625 C13.18359375 2.07765625 13.18359375 4.05765625 13.18359375 6.09765625 C9.88359375 6.09765625 6.58359375 6.09765625 3.18359375 6.09765625 C3.51359375 6.42765625 3.84359375 6.75765625 4.18359375 7.09765625 C5.17359375 7.09765625 6.16359375 7.09765625 7.18359375 7.09765625 C8.17359375 7.09765625 9.16359375 7.09765625 10.18359375 7.09765625 C11.18359375 8.09765625 11.18359375 8.09765625 11.24609375 11.66015625 C11.22546875 12.79453125 11.20484375 13.92890625 11.18359375 15.09765625 C10.19359375 15.42765625 9.20359375 15.75765625 8.18359375 16.09765625 C9.83359375 16.42765625 11.48359375 16.75765625 13.18359375 17.09765625 C13.18359375 19.40765625 13.18359375 21.71765625 13.18359375 24.09765625 C10.37103094 24.12449937 7.55872134 24.14441813 4.74609375 24.16015625 C3.94365234 24.16853516 3.14121094 24.17691406 2.31445312 24.18554688 C0.27064154 24.19417055 -1.77324527 24.14993775 -3.81640625 24.09765625 C-5.47034742 22.44371508 -4.94640308 20.49450212 -4.94921875 18.22265625 C-4.95050781 17.2378125 -4.95179688 16.25296875 -4.953125 15.23828125 C-4.94925781 14.201875 -4.94539062 13.16546875 -4.94140625 12.09765625 C-4.94720703 10.54304687 -4.94720703 10.54304687 -4.953125 8.95703125 C-4.95183594 7.9721875 -4.95054687 6.98734375 -4.94921875 5.97265625 C-4.94809082 5.06257812 -4.94696289 4.1525 -4.94580078 3.21484375 C-4.717027 -0.52841324 -3.94224738 0.10087634 0 0 Z M3.18359375 15.09765625 C4.18359375 17.09765625 4.18359375 17.09765625 4.18359375 17.09765625 Z " fill="#FBFDFD" transform="translate(226.81640625,208.90234375)"></path><path d="M0 0 C2.31 0 4.62 0 7 0 C7.33 5.61 7.66 11.22 8 17 C9.65 17 11.3 17 13 17 C13 11.39 13 5.78 13 0 C15.64 0 18.28 0 21 0 C20.96690952 3.06538213 20.89965759 6.12357552 20.8125 9.1875 C20.80669922 10.05181641 20.80089844 10.91613281 20.79492188 11.80664062 C20.64259522 16.22411359 20.42244067 18.41905192 17.76171875 22.078125 C13.48763263 25.05245367 10.01377888 24.85621183 5 24 C1.9375 22.5625 1.9375 22.5625 0 20 C-0.80659737 16.9997022 -0.93767964 14.09684234 -1 11 C-1.02707031 10.08476562 -1.05414063 9.16953125 -1.08203125 8.2265625 C-1.1588161 3.35421506 -1.1588161 3.35421506 -1 1 C-0.67 0.67 -0.34 0.34 0 0 Z " fill="#FCFDFD" transform="translate(209,119)"></path><path d="M0 0 C1.23234375 -0.02578125 2.4646875 -0.0515625 3.734375 -0.078125 C7.49345168 0.27272216 9.3781582 0.81541231 12.25 3.25 C13.33312291 7.11931407 12.70704578 11.03121125 11.3125 14.75 C7.99114793 17.16552878 4.26643918 17.08159584 0.25 17.25 C0.270625 18.219375 0.29125 19.18875 0.3125 20.1875 C0.25 23.25 0.25 23.25 -0.75 24.25 C-3.08297433 24.29092937 -5.41705225 24.29241723 -7.75 24.25 C-7.77887236 20.43751574 -7.79675492 16.6250593 -7.8125 12.8125 C-7.82087891 11.72388672 -7.82925781 10.63527344 -7.83789062 9.51367188 C-7.84111328 8.47919922 -7.84433594 7.44472656 -7.84765625 6.37890625 C-7.85289307 5.42056885 -7.85812988 4.46223145 -7.86352539 3.47485352 C-7.6232433 -1.23415881 -3.94409673 0.04909664 0 0 Z M0.25 6.25 C0.25 7.57 0.25 8.89 0.25 10.25 C1.9 9.92 3.55 9.59 5.25 9.25 C4.59 8.26 3.93 7.27 3.25 6.25 C2.26 6.25 1.27 6.25 0.25 6.25 Z " fill="#FBFCFD" transform="translate(156.75,208.75)"></path><path d="M0 0 C3.328125 0.15625 3.328125 0.15625 7 1 C8.671875 3.40625 8.671875 3.40625 9.75 6.5 C10.33587891 8.12228516 10.33587891 8.12228516 10.93359375 9.77734375 C11.28550781 10.84082031 11.63742188 11.90429688 12 13 C12.32097656 13.88816406 12.64195312 14.77632812 12.97265625 15.69140625 C14.13666594 18.97770339 15 21.48804767 15 25 C12.69 25 10.38 25 8 25 C7.67 23.68 7.34 22.36 7 21 C4.69 21 2.38 21 0 21 C-0.33 22.32 -0.66 23.64 -1 25 C-3.31 25 -5.62 25 -8 25 C-7.43375164 19.05837993 -5.6793942 14.07178852 -3.4375 8.5625 C-3.10814453 7.73556641 -2.77878906 6.90863281 -2.43945312 6.05664062 C-1.63314164 4.03501907 -0.81751877 2.01711551 0 0 Z M3 11 C2.67 12.32 2.34 13.64 2 15 C2.99 14.67 3.98 14.34 5 14 C4.34 13.01 3.68 12.02 3 11 Z " fill="#FAFCFC" transform="translate(181,163)"></path><path d="M0 0 C1.134375 0.020625 2.26875 0.04125 3.4375 0.0625 C11.4375 17.29654255 11.4375 17.29654255 11.4375 24.0625 C9.1275 24.0625 6.8175 24.0625 4.4375 24.0625 C4.1075 22.7425 3.7775 21.4225 3.4375 20.0625 C1.1275 20.0625 -1.1825 20.0625 -3.5625 20.0625 C-3.8925 21.3825 -4.2225 22.7025 -4.5625 24.0625 C-6.8725 24.0625 -9.1825 24.0625 -11.5625 24.0625 C-10.89581575 18.83736219 -9.34256593 14.17456918 -7.5625 9.25 C-7.28921875 8.47462891 -7.0159375 7.69925781 -6.734375 6.90039062 C-4.29816013 0.07540632 -4.29816013 0.07540632 0 0 Z M-0.5625 9.0625 C-0.8925 10.7125 -1.2225 12.3625 -1.5625 14.0625 C-0.5725 13.7325 0.4175 13.4025 1.4375 13.0625 C0.7775 11.7425 0.1175 10.4225 -0.5625 9.0625 Z " fill="#FBFDFD" transform="translate(134.5625,163.9375)"></path><path d="M0 0 C6.6 0 13.2 0 20 0 C20 1.98 20 3.96 20 6 C18.02 6 16.04 6 14 6 C14.01160156 7.21558594 14.02320312 8.43117187 14.03515625 9.68359375 C14.04453278 11.26822764 14.05363313 12.85286318 14.0625 14.4375 C14.07087891 15.23994141 14.07925781 16.04238281 14.08789062 16.86914062 C14.0965143 18.91295221 14.0522815 20.95683902 14 23 C13 24 13 24 10 24.125 C7 24 7 24 6 23 C5.92674832 20.13732433 5.90761795 17.299281 5.9375 14.4375 C5.94201172 13.63119141 5.94652344 12.82488281 5.95117188 11.99414062 C5.96299482 9.99606244 5.98093086 7.99802217 6 6 C4.02 6 2.04 6 0 6 C0 4.02 0 2.04 0 0 Z " fill="#FCFEFD" transform="translate(106,164)"></path><path d="" fill="#000000" transform="translate(0,0)"></path><path d="" fill="#000000" transform="translate(0,0)"></path><path d="" fill="#000000" transform="translate(0,0)"></path><path d="" fill="#000000" transform="translate(0,0)"></path><path d="" fill="#000000" transform="translate(0,0)"></path><path d="" fill="#000000" transform="translate(0,0)"></path><path d="" fill="#000000" transform="translate(0,0)"></path><path d="" fill="#000000" transform="translate(0,0)"></path><path d="" fill="#000000" transform="translate(0,0)"></path><path d="" fill="#000000" transform="translate(0,0)"></path><path d="" fill="#000000" transform="translate(0,0)"></path><path d="" fill="#000000" transform="translate(0,0)"></path><path d="" fill="#000000" transform="translate(0,0)"></path><path d="" fill="#000000" transform="translate(0,0)"></path><path d="" fill="#000000" transform="translate(0,0)"></path><path d="" fill="#000000" transform="translate(0,0)"></path><path d="" fill="#000000" transform="translate(0,0)"></path><path d="" fill="#000000" transform="translate(0,0)"></path><path d="" fill="#000000" transform="translate(0,0)"></path><path d="" fill="#000000" transform="translate(0,0)"></path><path d="" fill="#000000" transform="translate(0,0)"></path><path d="" fill="#000000" transform="translate(0,0)"></path><path d="" fill="#000000" transform="translate(0,0)"></path><path d="" fill="#000000" transform="translate(0,0)"></path><path d="" fill="#000000" transform="translate(0,0)"></path><path d="" fill="#000000" transform="translate(0,0)"></path><path d="" fill="#000000" transform="translate(0,0)"></path><path d="" fill="#000000" transform="translate(0,0)"></path><path d="" fill="#000000" transform="translate(0,0)"></path><path d="" fill="#000000" transform="translate(0,0)"></path><path d="" fill="#000000" transform="translate(0,0)"></path><path d="" fill="#000000" transform="translate(0,0)"></path><path d="" fill="#000000" transform="translate(0,0)"></path><path d="" fill="#000000" transform="translate(0,0)"></path><path d="" fill="#000000" transform="translate(0,0)"></path><path d="" fill="#000000" transform="translate(0,0)"></path><path d="" fill="#000000" transform="translate(0,0)"></path><path d="" fill="#000000" transform="translate(0,0)"></path><path d="" fill="#000000" transform="translate(0,0)"></path><path d="" fill="#FF0000" transform="translate(0,0)"></path><path d="" fill="#000000" transform="translate(0,0)"></path><path d="" fill="#000000" transform="translate(0,0)"></path><path d="" fill="#000000" transform="translate(0,0)"></path><path d="" fill="#000000" transform="translate(0,0)"></path><path d="" fill="#000000" transform="translate(0,0)"></path><path d="" fill="#000000" transform="translate(0,0)"></path><path d="" fill="#000000" transform="translate(0,0)"></path><path d="" fill="#000000" transform="translate(0,0)"></path><path d="" fill="#000000" transform="translate(0,0)"></path><path d="" fill="#000000" transform="translate(0,0)"></path><path d="" fill="#000000" transform="translate(0,0)"></path><path d="" fill="#000000" transform="translate(0,0)"></path><path d="" fill="#000000" transform="translate(0,0)"></path><path d="" fill="#000000" transform="translate(0,0)"></path><path d="" fill="#000000" transform="translate(0,0)"></path><path d="" fill="#000000" transform="translate(0,0)"></path><path d="" fill="#000000" transform="translate(0,0)"></path><path d="" fill="#000000" transform="translate(0,0)"></path><path d="" fill="#000000" transform="translate(0,0)"></path><path d="" fill="#000000" transform="translate(0,0)"></path><path d="" fill="#000000" transform="translate(0,0)"></path><path d="" fill="#000000" transform="translate(0,0)"></path><path d="" fill="#000000" transform="translate(0,0)"></path><path d="" fill="#000000" transform="translate(0,0)"></path><path d="" fill="#000000" transform="translate(0,0)"></path><path d="" fill="#000000" transform="translate(0,0)"></path><path d="" fill="#000000" transform="translate(0,0)"></path><path d="" fill="#000000" transform="translate(0,0)"></path><path d="" fill="#000000" transform="translate(0,0)"></path><path d="" fill="#000000" transform="translate(0,0)"></path><path d="" fill="#000000" transform="translate(0,0)"></path><path d="" fill="#000000" transform="translate(0,0)"></path></svg>