<svg xmlns="http://www.w3.org/2000/svg" width="14" height="14" viewBox="0 0 14 14" fill="none"><path d="M7.01594 0H6.98406C3.12687 0 0 3.12687 0 6.98406V7.01594C0 10.8731 3.12687 14 6.98406 14H7.01594C10.8731 14 14 10.8731 14 7.01594V6.98406C14 3.12687 10.8731 0 7.01594 0Z" fill="url(#paint0_linear_2018_452)"></path><path d="M9.16634 2.84876H4.83435C3.63756 2.84876 2.66394 3.82238 2.66394 5.01917V8.98232C2.66394 10.1791 3.63756 11.1527 4.83435 11.1527H9.16634C10.3631 11.1527 11.3367 10.1791 11.3367 8.98232V5.01917C11.3367 3.82238 10.3631 2.84876 9.16634 2.84876ZM3.42959 5.01917C3.42959 4.24469 4.05987 3.61441 4.83435 3.61441H9.16634C9.94082 3.61441 10.5711 4.24469 10.5711 5.01917V8.98232C10.5711 9.7568 9.94082 10.3871 9.16634 10.3871H4.83435C4.05987 10.3871 3.42959 9.7568 3.42959 8.98232V5.01917Z" fill="white"></path><path d="M7.00042 9.01927C8.11334 9.01927 9.01927 8.11383 9.01927 7.00042C9.01927 5.88702 8.11383 4.98158 7.00042 4.98158C5.88701 4.98158 4.98157 5.88702 4.98157 7.00042C4.98157 8.11383 5.88701 9.01927 7.00042 9.01927ZM7.00042 5.74772C7.69152 5.74772 8.25361 6.30982 8.25361 7.00091C8.25361 7.69201 7.69152 8.25411 7.00042 8.25411C6.30932 8.25411 5.74722 7.69201 5.74722 7.00091C5.74722 6.30982 6.30932 5.74772 7.00042 5.74772Z" fill="white"></path><path d="M9.20578 5.30727C9.50538 5.30727 9.74957 5.0635 9.74957 4.76332C9.74957 4.46314 9.50587 4.21937 9.20578 4.21937C8.90569 4.21937 8.66199 4.46314 8.66199 4.76332C8.66199 5.0635 8.90569 5.30727 9.20578 5.30727Z" fill="white"></path><defs><linearGradient id="paint0_linear_2018_452" x1="2.04533" y1="11.9547" x2="11.9547" y2="2.04583" gradientUnits="userSpaceOnUse"><stop stop-color="#FAAD4F"></stop><stop offset="0.35" stop-color="#DD2A7B"></stop><stop offset="0.62" stop-color="#9537B0"></stop><stop offset="1" stop-color="#515BD4"></stop></linearGradient></defs></svg>