<svg xmlns="http://www.w3.org/2000/svg" width="14" height="14" viewBox="0 0 14 14" fill="none"><path d="M14 7C14 3.13401 10.866 0 7.00001 0C3.13401 0 0 3.13401 0 7C0 10.866 3.13401 14 7.00001 14C10.866 14 14 10.866 14 7Z" fill="#FF0209"></path><path d="M9.97153 10.1001C9.76297 10.1227 9.54949 10.1267 9.34487 10.1262C7.74871 10.1247 6.15254 10.1232 4.55687 10.1222C4.05465 10.1222 3.50768 10.106 3.11958 9.78678C2.6823 9.42623 2.5913 8.80104 2.55588 8.23538C2.5067 7.46017 2.50276 6.6825 2.54309 5.9068C2.56523 5.48083 2.60409 5.04453 2.78756 4.65889C2.91938 4.38196 3.13926 4.13307 3.42061 4.00223C3.74772 3.85023 4.09007 3.87729 4.44226 3.87679C5.28535 3.87581 6.12844 3.87532 6.97153 3.87434C7.84807 3.87335 8.72509 3.87286 9.60163 3.87188C10.0158 3.87188 10.4605 3.88024 10.7984 4.11979C11.2347 4.42869 11.3532 5.01649 11.4078 5.54822C11.5087 6.52756 11.5101 7.51723 11.4118 8.49657C11.3709 8.90041 11.3031 9.32736 11.0369 9.6338C10.7733 9.93779 10.3823 10.0549 9.97202 10.0996L9.97153 10.1001Z" fill="white"></path><path d="M8.42745 6.99978L6.04871 5.62644V8.37312L8.42745 6.99978Z" fill="#FF0209"></path></svg>