<svg xmlns="http://www.w3.org/2000/svg" width="14" height="14" viewBox="0 0 14 14" fill="none"><path d="M7.01594 0H6.98406C3.12687 0 0 3.12687 0 6.98406V7.01594C0 10.8731 3.12687 14 6.98406 14H7.01594C10.8731 14 14 10.8731 14 7.01594V6.98406C14 3.12687 10.8731 0 7.01594 0Z" fill="#007EBB"></path><path d="M3.33876 4.65347C3.15434 4.48228 3.06262 4.27039 3.06262 4.01828C3.06262 3.76617 3.15483 3.54496 3.33876 3.37329C3.52318 3.20211 3.76058 3.11628 4.05144 3.11628C4.3423 3.11628 4.57038 3.20211 4.75431 3.37329C4.93874 3.54447 5.03045 3.7598 5.03045 4.01828C5.03045 4.27677 4.93825 4.48228 4.75431 4.65347C4.56989 4.82465 4.33592 4.91048 4.05144 4.91048C3.76696 4.91048 3.52318 4.82465 3.33876 4.65347ZM4.87546 5.63542V10.8836H3.21712V5.63542H4.87546Z" fill="#FEFFFC"></path><path d="M10.3958 6.15395C10.7573 6.54634 10.9378 7.0849 10.9378 7.7706V10.791H9.36285V7.98347C9.36285 7.63768 9.27309 7.36889 9.09406 7.1776C8.91503 6.98631 8.67371 6.89017 8.37157 6.89017C8.06943 6.89017 7.8281 6.98582 7.64907 7.1776C7.47004 7.36889 7.38029 7.63768 7.38029 7.98347V10.791H5.79602V5.62079H7.38029V6.30649C7.54068 6.07793 7.75699 5.89743 8.02872 5.7645C8.30045 5.63158 8.60602 5.56536 8.94593 5.56536C9.55119 5.56536 10.0348 5.76156 10.3958 6.15395Z" fill="#FEFFFC"></path></svg>