<svg xmlns="http://www.w3.org/2000/svg" width="14" height="14" viewBox="0 0 14 14" fill="none"><path d="M7.01594 0H6.98406C3.12687 0 0 3.12687 0 6.98406V7.01594C0 10.8731 3.12687 14 6.98406 14H7.01594C10.8731 14 14 10.8731 14 7.01594V6.98406C14 3.12687 10.8731 0 7.01594 0Z" fill="#00E510"></path><path d="M8.36423 9.04733C6.57248 9.04733 5.11475 7.58911 5.11426 5.79735C5.11475 5.34316 5.48458 4.97383 5.93779 4.97383C5.98439 4.97383 6.03049 4.97775 6.07463 4.9856C6.17175 5.00178 6.26396 5.03465 6.34882 5.08419C6.36108 5.09154 6.36942 5.10331 6.37138 5.11705L6.56071 6.31041C6.56316 6.32463 6.55875 6.33836 6.54943 6.34866C6.44495 6.46442 6.31154 6.5478 6.16292 6.58949L6.09131 6.6096L6.11829 6.67876C6.36255 7.3007 6.85991 7.79756 7.48233 8.04281L7.5515 8.07028L7.5716 7.99867C7.61329 7.85005 7.69668 7.71663 7.81243 7.61216C7.82077 7.60431 7.83205 7.60039 7.84333 7.60039C7.84579 7.60039 7.84824 7.60039 7.85118 7.60088L9.04454 7.79021C9.05876 7.79266 9.07054 7.80051 9.07789 7.81277C9.12694 7.89762 9.15981 7.99033 9.17648 8.08744C9.18433 8.13061 9.18776 8.17622 9.18776 8.2238C9.18776 8.6775 8.81842 9.04684 8.36423 9.04733Z" fill="#FDFDFD"></path><path d="M11.5417 6.60655C11.4451 5.51472 10.9448 4.50187 10.133 3.75485C9.31635 3.00342 8.25689 2.58945 7.14888 2.58945C4.71704 2.58945 2.73841 4.56808 2.73841 6.99992C2.73841 7.81609 2.96354 8.61117 3.38977 9.30374L2.43921 11.4079L5.48269 11.0837C6.01193 11.3005 6.57206 11.4104 7.14838 11.4104C7.29995 11.4104 7.45543 11.4025 7.61141 11.3864C7.74874 11.3716 7.88755 11.3501 8.02391 11.3226C10.0604 10.9111 11.5471 9.10362 11.5589 7.02346V6.99992C11.5589 6.86749 11.553 6.73506 11.5412 6.60655H11.5417ZM5.59992 10.1601L3.91607 10.3397L4.41882 9.22576L4.31827 9.09087C4.31091 9.08106 4.30356 9.07125 4.29522 9.05997C3.85869 8.45716 3.62815 7.74497 3.62815 7.00041C3.62815 5.05906 5.20752 3.47969 7.14888 3.47969C8.9676 3.47969 10.5092 4.89867 10.6578 6.71004C10.6657 6.80716 10.6701 6.90477 10.6701 7.0009C10.6701 7.02837 10.6696 7.05535 10.6691 7.08428C10.6318 8.70829 9.49733 10.0875 7.91011 10.4387C7.78896 10.4657 7.66487 10.4863 7.54127 10.4996C7.41276 10.5143 7.28082 10.5216 7.14986 10.5216C6.6834 10.5216 6.23019 10.4314 5.802 10.2528C5.75442 10.2337 5.70782 10.2131 5.66417 10.192L5.60041 10.1611L5.59992 10.1601Z" fill="#FDFDFD"></path></svg>