<svg xmlns="http://www.w3.org/2000/svg" width="14" height="14" viewBox="0 0 14 14" fill="none"><path d="M14 7.00025C14 10.5357 11.3793 13.4585 7.97484 13.9328C7.65652 13.9769 7.33083 14 7.00025 14C6.61865 14 6.24391 13.9696 5.87899 13.9107C2.54563 13.3741 0 10.4842 0 7.00025C0 3.13422 3.13422 0 6.99975 0C10.8653 0 14 3.13422 14 7.00025Z" fill="#1877F2"></path><path d="M7.97478 5.62073V7.14566H9.86119L9.56249 9.19982H7.97478V13.9325C7.65645 13.9767 7.33077 13.9997 7.00018 13.9997C6.61858 13.9997 6.24384 13.9693 5.87892 13.9105V9.19982H4.13916V7.14566H5.87892V5.27984C5.87892 4.12229 6.81723 3.1835 7.97527 3.1835V3.18448C7.9787 3.18448 7.98164 3.1835 7.98508 3.1835H9.86168V4.96004H8.63546C8.27103 4.96004 7.97527 5.25581 7.97527 5.62024L7.97478 5.62073Z" fill="white"></path></svg>