<svg xmlns="http://www.w3.org/2000/svg" width="120" height="183" viewBox="0 0 120 183" fill="none"><g opacity="0.2"><path fill-rule="evenodd" clip-rule="evenodd" d="M55.4055 182.606L55.4055 126.525L0.000216074 126.525L0.000215812 132.534C0.000214603 160.188 22.1483 182.606 49.4692 182.606L55.4055 182.606Z" fill="#F0D969"></path><path fill-rule="evenodd" clip-rule="evenodd" d="M0.000244141 118.318L0.000246562 62.9204L55.4056 62.9204L55.4056 68.8559C55.4055 96.173 33.2575 118.318 5.93653 118.318L0.000244141 118.318Z" fill="#F0D969"></path><path fill-rule="evenodd" clip-rule="evenodd" d="M0.000488281 0L0.00048583 56.0814L55.4058 56.0814L55.4058 50.0726C55.4058 22.4183 33.2578 1.45372e-06 5.93677 2.59483e-07L0.000488281 0Z" fill="#F0D969"></path><path d="M107.805 0.346822C109.09 0.193578 110.389 0.0901363 111.702 0.0384569L111.741 1.03768C112.377 1.01264 113.016 1 113.658 1L115.143 1L115.143 -1.94612e-07L118.111 -6.48708e-08L118.111 1L118.595 1L118.595 2.0029L119.595 2.0029L119.595 6.00871L118.595 6.00871L118.595 10.0145L119.595 10.0145L119.595 14.0203L118.595 14.0203L118.595 18.0262L119.595 18.0262L119.595 22.032L118.595 22.032L118.595 26.0378L119.595 26.0378L119.595 30.0436L118.595 30.0436L118.595 34.0494L119.595 34.0494L119.595 38.0552L118.595 38.0552L118.595 42.061L119.595 42.061L119.595 46.0668L118.595 46.0668L118.595 50.0727L119.595 50.0727L119.595 54.0785L118.595 54.0785L118.595 55.0814L117.616 55.0814L117.616 56.0814L113.658 56.0814L113.658 55.0814L109.701 55.0814L109.701 56.0814L105.743 56.0814L105.743 55.0814L101.786 55.0814L101.786 56.0814L97.8284 56.0814L97.8284 55.0814L93.8708 55.0814L93.8708 56.0814L89.9133 56.0814L89.9133 55.0814L85.9558 55.0814L85.9558 56.0814L81.9983 56.0814L81.9983 55.0814L78.0407 55.0814L78.0407 56.0814L74.0832 56.0814L74.0832 55.0814L70.1257 55.0814L70.1257 56.0814L66.1682 56.0814L66.1682 55.0814L65.1894 55.0814L65.1894 54.5792L64.1894 54.5792L64.1894 51.5748L65.1894 51.5748L65.1894 50.0726C65.1894 49.43 65.2016 48.7902 65.2258 48.1536L64.2265 48.1157C64.2763 46.8031 64.3761 45.5034 64.5239 44.2186L65.5174 44.3329C65.6643 43.0554 65.8597 41.793 66.1017 40.5475L65.12 40.3568C65.37 39.0699 65.6687 37.8007 66.0141 36.5512L66.9779 36.8177C67.3197 35.5813 67.7081 34.3647 68.1411 33.1698L67.2009 32.8291C67.6468 31.5988 68.139 30.391 68.6754 29.2081L69.5861 29.6211C70.1151 28.4545 70.688 27.3125 71.3026 26.1972L70.4268 25.7145C71.0573 24.5706 71.7308 23.4542 72.4451 22.3677L73.2807 22.9171C73.9836 21.8479 74.7268 20.8083 75.5081 19.8004L74.7178 19.1877C75.5171 18.1566 76.3554 17.1581 77.2307 16.1944L77.9709 16.8668C78.8301 15.9207 79.7255 15.009 80.6548 14.1337L79.9692 13.4058C80.9179 12.5123 81.9013 11.6562 82.9171 10.8396L83.5436 11.619C84.5384 10.8193 85.5648 10.0585 86.6207 9.33858L86.0574 8.51233C87.1326 7.77926 88.2379 7.08781 89.3709 6.44026L89.8671 7.30847C90.9732 6.67627 92.1063 6.08683 93.2641 5.54235L92.8385 4.63742C94.0145 4.08437 95.2156 3.57673 96.4395 3.11671L96.7913 4.05277C97.9811 3.60558 99.193 3.20435 100.425 2.85121L100.149 1.88994C101.396 1.53249 102.663 1.22329 103.947 0.964445L104.145 1.94475C105.388 1.6943 106.648 1.49197 107.924 1.33978L107.805 0.346822Z" fill="#F0D969" stroke="#F0D969" stroke-width="2" stroke-dasharray="4 4"></path><path fill-rule="evenodd" clip-rule="evenodd" d="M64.1895 117.634L64.1895 61.5524L119.595 61.5524L119.595 67.5611C119.595 95.2155 97.4467 117.634 70.1257 117.634L64.1895 117.634Z" fill="#F0D969"></path><path d="M66.1788 181.238C66.1788 180.69 65.7368 180.244 65.1895 180.238L65.1895 178.93C65.1895 178.378 64.7417 177.93 64.1895 177.93L64.1895 170.697C64.7417 170.697 65.1895 170.249 65.1895 169.697L65.1895 165.081C65.1895 164.528 64.7417 164.081 64.1895 164.081L64.1895 156.848C64.7417 156.848 65.1895 156.4 65.1895 155.848L65.1895 151.231C65.1895 150.679 64.7417 150.231 64.1895 150.231L64.1895 142.998C64.7417 142.998 65.1895 142.551 65.1895 141.998L65.1895 137.382C65.1895 136.83 64.7417 136.382 64.1895 136.382L64.1895 129.149C64.7417 129.149 65.1895 128.701 65.1895 128.149L65.1895 126.841L66.498 126.841C67.0503 126.841 67.498 126.393 67.498 125.841L74.7322 125.841C74.7322 126.393 75.1799 126.841 75.7322 126.841L80.3493 126.841C80.9016 126.841 81.3493 126.393 81.3493 125.841L88.5835 125.841C88.5835 126.393 89.0313 126.841 89.5835 126.841L94.2007 126.841C94.7529 126.841 95.2007 126.393 95.2007 125.841L102.435 125.841C102.435 126.393 102.883 126.841 103.435 126.841L108.052 126.841C108.604 126.841 109.052 126.393 109.052 125.841L116.286 125.841C116.286 126.393 116.734 126.841 117.286 126.841L118.595 126.841C118.601 127.388 119.046 127.83 119.595 127.83L119.595 129.787C119.042 129.787 118.595 130.235 118.595 130.787L118.595 131.776C118.595 132.628 118.573 133.474 118.529 134.314C118.501 134.862 118.92 135.33 119.467 135.364C119.264 138.186 118.825 140.943 118.169 143.615C117.638 143.479 117.096 143.795 116.954 144.325C116.515 145.97 115.991 147.579 115.387 149.15C115.19 149.662 115.443 150.237 115.953 150.438C114.894 153.035 113.621 155.521 112.155 157.876C111.693 157.582 111.079 157.714 110.78 158.174C109.855 159.594 108.858 160.963 107.794 162.276C107.448 162.702 107.511 163.327 107.933 163.676C106.134 165.806 104.158 167.782 102.027 169.581C101.678 169.159 101.054 169.096 100.627 169.441C99.3146 170.505 97.9453 171.502 96.5246 172.426C96.0645 172.726 95.9322 173.339 96.2263 173.801C93.8717 175.266 91.3851 176.539 88.7882 177.598C88.5868 177.088 88.0123 176.835 87.4999 177.032C85.9293 177.635 84.3193 178.159 82.6749 178.598C82.1446 178.74 81.8283 179.282 81.9644 179.813C79.2927 180.469 76.5358 180.908 73.7133 181.11C73.6797 180.564 73.2119 180.145 72.6637 180.173C71.8233 180.216 70.9771 180.238 70.1257 180.238L69.1364 180.238C68.5841 180.238 68.1364 180.686 68.1364 181.238L66.1788 181.238Z" stroke="#F0D969" stroke-width="2" stroke-linecap="round" stroke-linejoin="round" stroke-dasharray="5 10"></path></g></svg>