<svg xmlns="http://www.w3.org/2000/svg" width="64" height="64" viewBox="0 0 64 64" fill="none"><g clip-path="url(#clip0_767_1651)"><path d="M14.1838 38.6759L11.956 46.9925L3.81363 47.1647C1.38025 42.6513 0 37.4874 0 31.9999C0 26.6936 1.2905 21.6896 3.578 17.2834H3.57975L10.8288 18.6124L14.0043 25.8179C13.3396 27.7556 12.9774 29.8356 12.9774 31.9999C12.9776 34.3489 13.4031 36.5996 14.1838 38.6759Z" fill="#FBBB00"></path><path d="M63.441 26.0215C63.8085 27.9572 64.0001 29.9564 64.0001 31.9995C64.0001 34.2905 63.7592 36.5252 63.3004 38.6809C61.7426 46.0162 57.6722 52.4215 52.0336 56.9542L52.0319 56.9525L42.9014 56.4866L41.6091 48.4197C45.3506 46.2255 48.2746 42.7916 49.8149 38.6809H32.7036V26.0215H50.0645H63.441Z" fill="#518EF8"></path><path d="M52.0317 56.9527L52.0335 56.9544C46.5496 61.3623 39.5833 63.9997 32.0001 63.9997C19.8137 63.9997 9.2186 57.1883 3.81372 47.1645L14.1838 38.6758C16.8862 45.888 23.8436 51.0222 32.0001 51.0222C35.506 51.0222 38.7905 50.0744 41.6088 48.4199L52.0317 56.9527Z" fill="#28B446"></path><path d="M52.4255 7.367L42.0589 15.854C39.142 14.0307 35.694 12.9775 32 12.9775C23.6589 12.9775 16.5714 18.3471 14.0044 25.818L3.57975 17.2835H3.578C8.90375 7.01538 19.6325 0 32 0C39.7644 0 46.8835 2.76575 52.4255 7.367Z" fill="#F14336"></path></g><defs><clipPath id="clip0_767_1651"><rect width="64" height="64" fill="white"></rect></clipPath></defs></svg>