<svg xmlns="http://www.w3.org/2000/svg" xmlns:xlink="http://www.w3.org/1999/xlink" width="182px" height="65px" viewBox="0 0 183 65"><defs><radialGradient id="radial0" gradientUnits="userSpaceOnUse" cx="0" cy="0" fx="0" fy="0" r="1" gradientTransform="matrix(11.762236,-34.530476,22.56912,7.714148,22.57029,72.715766)"><stop offset="0.045" style="stop-color:rgb(100%,78.431373%,0%);stop-opacity:0.784314;"></stop><stop offset="0.368273" style="stop-color:rgb(59.607843%,74.117647%,25.882353%);stop-opacity:1;"></stop><stop offset="0.587269" style="stop-color:rgb(32.156863%,70.588235%,44.313725%);stop-opacity:1;"></stop><stop offset="0.767047" style="stop-color:rgb(0.392157%,55.294118%,19.607843%);stop-opacity:1;"></stop><stop offset="0.878437" style="stop-color:rgb(0%,39.607843%,13.72549%);stop-opacity:1;"></stop></radialGradient><radialGradient id="radial1" gradientUnits="userSpaceOnUse" cx="0" cy="0" fx="0" fy="0" r="1" gradientTransform="matrix(11.762236,-34.530476,22.56912,7.714148,22.57029,72.715766)"><stop offset="0.045" style="stop-color:rgb(100%,78.431373%,0%);stop-opacity:1;"></stop><stop offset="0.257166" style="stop-color:rgb(70.980392%,72.941176%,11.764706%);stop-opacity:1;"></stop><stop offset="0.368273" style="stop-color:rgb(59.607843%,74.117647%,25.882353%);stop-opacity:1;"></stop><stop offset="0.587269" style="stop-color:rgb(32.156863%,70.588235%,44.313725%);stop-opacity:1;"></stop><stop offset="0.767047" style="stop-color:rgb(0.392157%,55.294118%,19.607843%);stop-opacity:1;"></stop><stop offset="0.878437" style="stop-color:rgb(0%,39.607843%,13.72549%);stop-opacity:1;"></stop></radialGradient><radialGradient id="radial2" gradientUnits="userSpaceOnUse" cx="0" cy="0" fx="0" fy="0" r="1" gradientTransform="matrix(-5.822754,-19.248468,18.023678,-5.470936,49.353043,65.135146)"><stop offset="0" style="stop-color:rgb(100%,78.431373%,0%);stop-opacity:1;"></stop><stop offset="0.286785" style="stop-color:rgb(100%,71.372549%,34.117647%);stop-opacity:1;"></stop><stop offset="0.64175" style="stop-color:rgb(100%,37.254902%,23.921569%);stop-opacity:1;"></stop><stop offset="1" style="stop-color:rgb(70.588235%,18.823529%,7.843137%);stop-opacity:1;"></stop></radialGradient><radialGradient id="radial3" gradientUnits="userSpaceOnUse" cx="0" cy="0" fx="0" fy="0" r="1" gradientTransform="matrix(-5.983498,-18.760528,34.136896,-10.924968,49.434965,63.851665)"><stop offset="0" style="stop-color:rgb(100%,71.372549%,34.117647%);stop-opacity:1;"></stop><stop offset="0.642929" style="stop-color:rgb(100%,51.372549%,36.078431%);stop-opacity:1;"></stop><stop offset="0.960593" style="stop-color:rgb(79.215686%,12.941176%,20.392157%);stop-opacity:1;"></stop></radialGradient><radialGradient id="radial4" gradientUnits="userSpaceOnUse" cx="0" cy="0" fx="0" fy="0" r="1" gradientTransform="matrix(-1.801806,22.690788,-19.265521,-1.53506,50.096021,43.216875)"><stop offset="0.706643" style="stop-color:rgb(100%,80.392157%,5.882353%);stop-opacity:0;"></stop><stop offset="1" style="stop-color:rgb(100%,80.392157%,5.882353%);stop-opacity:1;"></stop></radialGradient><radialGradient id="radial5" gradientUnits="userSpaceOnUse" cx="0" cy="0" fx="0" fy="0" r="1" gradientTransform="matrix(-12.926505,33.480612,-26.508927,-10.269892,67.169367,12.170085)"><stop offset="0.0661714" style="stop-color:rgb(74.117647%,0%,100%);stop-opacity:1;"></stop><stop offset="1" style="stop-color:rgb(100%,37.254902%,23.921569%);stop-opacity:1;"></stop></radialGradient><radialGradient id="radial6" gradientUnits="userSpaceOnUse" cx="0" cy="0" fx="0" fy="0" r="1" gradientTransform="matrix(7.336818,-23.098088,49.531594,15.787017,44.809471,52.183625)"><stop offset="0" style="stop-color:rgb(100%,61.960784%,23.921569%);stop-opacity:1;"></stop><stop offset="1" style="stop-color:rgb(88.627451%,21.176471%,58.039216%);stop-opacity:0;"></stop></radialGradient><radialGradient id="radial7" gradientUnits="userSpaceOnUse" cx="0" cy="0" fx="0" fy="0" r="1" gradientTransform="matrix(-0.698737,-35.93033,42.882338,-0.836791,48.769315,52.416272)"><stop offset="0.0661714" style="stop-color:rgb(74.117647%,0%,100%);stop-opacity:1;"></stop><stop offset="1" style="stop-color:rgb(100%,37.254902%,23.921569%);stop-opacity:1;"></stop></radialGradient><linearGradient id="linear0" gradientUnits="userSpaceOnUse" x1="12.2697" y1="18.946301" x2="5.09952" y2="-0.0562295" gradientTransform="matrix(2.703703,0,0,2.708334,9.037037,0)"><stop offset="0.38" style="stop-color:rgb(5.098039%,56.862745%,88.235294%);stop-opacity:1;"></stop><stop offset="0.75" style="stop-color:rgb(18.431373%,63.529412%,66.666667%);stop-opacity:1;"></stop></linearGradient><radialGradient id="radial8" gradientUnits="userSpaceOnUse" cx="0" cy="0" fx="0" fy="0" r="1" gradientTransform="matrix(-0.349412,-44.912825,79.385905,-0.619722,33.394353,43.085791)"><stop offset="0" style="stop-color:rgb(23.921569%,79.607843%,100%);stop-opacity:1;"></stop><stop offset="1" style="stop-color:rgb(5.098039%,56.862745%,88.235294%);stop-opacity:0;"></stop></radialGradient><radialGradient id="radial9" gradientUnits="userSpaceOnUse" cx="0" cy="0" fx="0" fy="0" r="1" gradientTransform="matrix(1.630398,-45.146282,78.178089,2.832975,34.792139,47.402606)"><stop offset="0" style="stop-color:rgb(100%,100%,100%);stop-opacity:0.2;"></stop><stop offset="1" style="stop-color:rgb(5.098039%,56.862745%,88.235294%);stop-opacity:0;"></stop></radialGradient><radialGradient id="radial10" gradientUnits="userSpaceOnUse" cx="0" cy="0" fx="0" fy="0" r="1" gradientTransform="matrix(0.5823,55.412141,-87.757361,0.925363,32.695632,-7.193143)"><stop offset="0.015" style="stop-color:rgb(3.921569%,18.823529%,56.078431%);stop-opacity:1;"></stop><stop offset="0.205" style="stop-color:rgb(13.333333%,32.54902%,80.784314%);stop-opacity:1;"></stop><stop offset="1" style="stop-color:rgb(13.333333%,32.54902%,80.784314%);stop-opacity:0;"></stop></radialGradient><radialGradient id="radial11" gradientUnits="userSpaceOnUse" cx="0" cy="0" fx="0" fy="0" r="1" gradientTransform="matrix(-1.746884,-34.880362,61.652886,-3.098293,40.964533,55.451499)"><stop offset="0" style="stop-color:rgb(23.921569%,93.333333%,48.235294%);stop-opacity:1;"></stop><stop offset="1" style="stop-color:rgb(5.098039%,56.862745%,88.235294%);stop-opacity:0;"></stop></radialGradient><linearGradient id="linear1" gradientUnits="userSpaceOnUse" x1="12.2697" y1="18.946301" x2="5.09952" y2="-0.0562295" gradientTransform="matrix(2.703703,0,0,2.708334,9.037037,0)"><stop offset="0.38" style="stop-color:rgb(5.098039%,56.862745%,88.235294%);stop-opacity:1;"></stop><stop offset="0.75" style="stop-color:rgb(18.431373%,63.529412%,66.666667%);stop-opacity:1;"></stop></linearGradient><radialGradient id="radial12" gradientUnits="userSpaceOnUse" cx="0" cy="0" fx="0" fy="0" r="1" gradientTransform="matrix(1.513931,47.712719,-84.334593,2.685121,24.776513,3.539304)"><stop offset="0" style="stop-color:rgb(23.921569%,79.607843%,100%);stop-opacity:1;"></stop><stop offset="1" style="stop-color:rgb(5.098039%,56.862745%,88.235294%);stop-opacity:0;"></stop></radialGradient><radialGradient id="radial13" gradientUnits="userSpaceOnUse" cx="0" cy="0" fx="0" fy="0" r="1" gradientTransform="matrix(-1.164557,34.530508,-59.795063,-2.023527,23.961292,-0.776994)"><stop offset="0" style="stop-color:rgb(100%,100%,100%);stop-opacity:0.2;"></stop><stop offset="1" style="stop-color:rgb(5.098039%,56.862745%,88.235294%);stop-opacity:0;"></stop></radialGradient><radialGradient id="radial14" gradientUnits="userSpaceOnUse" cx="0" cy="0" fx="0" fy="0" r="1" gradientTransform="matrix(1.28103,-55.995255,88.680907,2.035749,25.941106,53.351732)"><stop offset="0.015" style="stop-color:rgb(3.921569%,18.823529%,56.078431%);stop-opacity:1;"></stop><stop offset="0.205" style="stop-color:rgb(13.333333%,32.54902%,80.784314%);stop-opacity:1;"></stop><stop offset="1" style="stop-color:rgb(13.333333%,32.54902%,80.784314%);stop-opacity:0;"></stop></radialGradient><radialGradient id="radial15" gradientUnits="userSpaceOnUse" cx="0" cy="0" fx="0" fy="0" r="1" gradientTransform="matrix(-4.026176,46.397542,-74.717374,-6.50587,31.208921,-2.364391)"><stop offset="0" style="stop-color:rgb(23.137255%,83.529412%,100%);stop-opacity:1;"></stop><stop offset="0.417149" style="stop-color:rgb(5.098039%,56.862745%,88.235294%);stop-opacity:1;"></stop><stop offset="0.743961" style="stop-color:rgb(15.294118%,39.215686%,90.588235%);stop-opacity:1;"></stop><stop offset="1" style="stop-color:rgb(12.54902%,32.156863%,79.607843%);stop-opacity:1;"></stop></radialGradient><radialGradient id="radial16" gradientUnits="userSpaceOnUse" cx="0" cy="0" fx="0" fy="0" r="1" gradientTransform="matrix(-1.281011,40.829906,-72.168934,-2.272013,33.97665,-9.176348)"><stop offset="0" style="stop-color:rgb(23.921569%,93.333333%,87.45098%);stop-opacity:0.698039;"></stop><stop offset="1" style="stop-color:rgb(5.098039%,56.862745%,88.235294%);stop-opacity:0;"></stop></radialGradient></defs><g id="surface1"><path style=" stroke:none;fill-rule:nonzero;fill:rgb(12.941177%,12.941177%,12.941177%);fill-opacity:1;" d="M 171.238281 59.160156 L 165.082031 59.160156 L 165.082031 44.09375 C 165.082031 41.773438 164.644531 40.019531 163.769531 38.828125 C 162.910156 37.644531 161.617188 37.050781 159.882812 37.050781 C 158.09375 37.050781 156.628906 37.722656 155.480469 39.0625 C 154.328125 40.386719 153.75 42.066406 153.75 44.09375 L 153.75 59.160156 L 147.570312 59.160156 L 147.570312 32.742188 L 153.75 32.742188 L 153.75 36.765625 L 153.855469 36.765625 C 154.816406 35.234375 156.015625 34.082031 157.460938 33.308594 C 158.921875 32.519531 160.550781 32.121094 162.351562 32.121094 C 165.273438 32.121094 167.480469 33.050781 168.972656 34.910156 C 170.484375 36.75 171.238281 39.433594 171.238281 42.957031 Z M 171.238281 59.160156 "></path><path style=" stroke:none;fill-rule:nonzero;fill:rgb(12.941177%,12.941177%,12.941177%);fill-opacity:1;" d="M 123.121094 56.242188 L 126.183594 52.273438 C 127.179688 53.21875 128.246094 53.933594 129.378906 54.414062 C 130.511719 54.894531 131.707031 55.136719 132.957031 55.136719 C 134.382812 55.136719 135.472656 54.859375 136.230469 54.308594 C 137.003906 53.757812 137.390625 52.953125 137.390625 51.886719 C 137.390625 51.027344 137.054688 50.320312 136.386719 49.769531 C 135.714844 49.203125 134.640625 48.753906 133.164062 48.425781 C 129.816406 47.6875 127.457031 46.65625 126.082031 45.332031 C 124.726562 43.992188 124.046875 42.332031 124.046875 40.351562 C 124.046875 37.875 124.984375 35.890625 126.855469 34.390625 C 128.746094 32.878906 131.15625 32.121094 134.09375 32.121094 C 135.722656 32.121094 137.253906 32.363281 138.675781 32.84375 C 140.117188 33.328125 141.433594 34.074219 142.617188 35.089844 L 139.730469 38.933594 C 138.71875 38.175781 137.757812 37.625 136.847656 37.28125 C 135.941406 36.921875 134.949219 36.742188 133.886719 36.742188 C 132.546875 36.742188 131.535156 37.007812 130.847656 37.539062 C 130.179688 38.058594 129.84375 38.769531 129.84375 39.683594 C 129.84375 40.558594 130.195312 41.238281 130.898438 41.71875 C 131.601562 42.183594 132.898438 42.632812 134.789062 43.0625 C 137.601562 43.679688 139.707031 44.667969 141.097656 46.03125 C 142.503906 47.386719 143.210938 49.140625 143.210938 51.292969 C 143.210938 53.855469 142.265625 55.910156 140.375 57.457031 C 138.503906 59.003906 136.007812 59.777344 132.882812 59.777344 C 130.976562 59.777344 129.191406 59.488281 127.523438 58.902344 C 125.859375 58.300781 124.390625 57.414062 123.121094 56.242188 Z M 123.121094 56.242188 "></path><path style=" stroke:none;fill-rule:nonzero;fill:rgb(12.941177%,12.941177%,12.941177%);fill-opacity:1;" d="M 119.4375 59.160156 L 113.257812 59.160156 L 113.257812 44.015625 C 113.257812 41.609375 112.855469 39.84375 112.046875 38.726562 C 111.257812 37.609375 109.980469 37.050781 108.210938 37.050781 C 106.628906 37.050781 105.316406 37.75 104.269531 39.140625 C 103.222656 40.53125 102.699219 42.238281 102.699219 44.25 L 102.699219 59.160156 L 96.515625 59.160156 L 96.515625 43.707031 C 96.515625 41.488281 96.097656 39.828125 95.253906 38.726562 C 94.414062 37.609375 93.144531 37.050781 91.445312 37.050781 C 89.8125 37.050781 88.492188 37.710938 87.476562 39.039062 C 86.464844 40.363281 85.957031 42.117188 85.957031 44.300781 L 85.957031 59.160156 L 79.777344 59.160156 L 79.777344 32.742188 L 85.957031 32.742188 L 85.957031 36.664062 L 86.0625 36.664062 C 86.953125 35.234375 88.121094 34.128906 89.566406 33.335938 C 91.003906 32.527344 92.601562 32.121094 94.355469 32.121094 C 96.191406 32.121094 97.761719 32.570312 99.066406 33.464844 C 100.371094 34.339844 101.316406 35.554688 101.902344 37.101562 C 102.914062 35.433594 104.15625 34.1875 105.632812 33.359375 C 107.128906 32.535156 108.847656 32.121094 110.785156 32.121094 C 113.601562 32.121094 115.746094 33.015625 117.222656 34.808594 C 118.703125 36.578125 119.4375 39.242188 119.4375 42.804688 Z M 119.4375 59.160156 "></path><path style=" stroke:none;fill-rule:nonzero;fill:rgb(41.960785%,41.960785%,41.960785%);fill-opacity:1;" d="M 38.964844 51.3125 C 38.964844 51.3125 32.859375 64.328125 23.476562 63.851562 C 14.089844 63.375 11.757812 46.816406 32.425781 39.140625 C 32.425781 39.140625 40.953125 42.457031 38.960938 51.3125 Z M 38.964844 51.3125 "></path><path style=" stroke:none;fill-rule:nonzero;fill:url(#radial0);" d="M 38.964844 51.3125 C 38.964844 51.3125 32.859375 64.328125 23.476562 63.851562 C 14.089844 63.375 11.757812 46.816406 32.425781 39.140625 C 32.425781 39.140625 40.953125 42.457031 38.960938 51.3125 Z M 38.964844 51.3125 "></path><path style=" stroke:none;fill-rule:nonzero;fill:url(#radial1);" d="M 38.964844 51.3125 C 38.964844 51.3125 32.859375 64.328125 23.476562 63.851562 C 14.089844 63.375 11.757812 46.816406 32.425781 39.140625 C 32.425781 39.140625 40.953125 42.457031 38.960938 51.3125 Z M 38.964844 51.3125 "></path><path style=" stroke:none;fill-rule:nonzero;fill:url(#radial2);" d="M 43.917969 51.503906 C 43.917969 51.503906 41.214844 63.960938 48.824219 63.851562 C 54.5625 63.765625 58.015625 55.59375 52.988281 43.382812 C 52.988281 43.382812 48.714844 41.347656 43.917969 51.503906 Z M 43.917969 51.503906 "></path><path style=" stroke:none;fill-rule:nonzero;fill:url(#radial3);" d="M 43.917969 51.503906 C 43.917969 51.503906 41.214844 63.960938 48.824219 63.851562 C 54.5625 63.765625 58.015625 55.59375 52.988281 43.382812 C 52.988281 43.382812 48.714844 41.347656 43.917969 51.503906 Z M 43.917969 51.503906 "></path><path style=" stroke:none;fill-rule:nonzero;fill:url(#radial4);" d="M 43.917969 51.503906 C 43.917969 51.503906 41.214844 63.960938 48.824219 63.851562 C 54.5625 63.765625 58.015625 55.59375 52.988281 43.382812 C 52.988281 43.382812 48.714844 41.347656 43.917969 51.503906 Z M 43.917969 51.503906 "></path><path style=" stroke:none;fill-rule:nonzero;fill:url(#radial5);" d="M 43.917969 51.5 C 43.917969 51.5 46.480469 20.707031 59.917969 17.953125 C 68.234375 16.246094 71.957031 21.324219 71.957031 27.820312 C 71.957031 36.683594 62.617188 41.542969 56.597656 43.332031 C 49.832031 45.339844 46.179688 48.519531 43.917969 51.503906 Z M 43.917969 51.5 "></path><path style=" stroke:none;fill-rule:nonzero;fill:url(#radial6);" d="M 43.917969 51.5 C 43.917969 51.5 46.480469 20.707031 59.917969 17.953125 C 68.234375 16.246094 71.957031 21.324219 71.957031 27.820312 C 71.957031 36.683594 62.617188 41.542969 56.597656 43.332031 C 49.832031 45.339844 46.179688 48.519531 43.917969 51.503906 Z M 43.917969 51.5 "></path><path style=" stroke:none;fill-rule:nonzero;fill:url(#radial7);" d="M 43.917969 51.5 C 43.917969 51.5 46.480469 20.707031 59.917969 17.953125 C 68.234375 16.246094 71.957031 21.324219 71.957031 27.820312 C 71.957031 36.683594 62.617188 41.542969 56.597656 43.332031 C 49.832031 45.339844 46.179688 48.519531 43.917969 51.503906 Z M 43.917969 51.5 "></path><path style=" stroke:none;fill-rule:nonzero;fill:url(#linear0);" d="M 38.957031 51.3125 C 38.957031 51.3125 40.445312 46.113281 26.394531 38.902344 C 12.339844 31.683594 10.699219 22.925781 10.472656 17.878906 C 10.25 12.824219 11.765625 8.488281 14.316406 6.042969 C 17.929688 2.574219 21.210938 1.957031 26.007812 2.367188 C 32.382812 2.917969 39.058594 9.453125 42.390625 19.679688 C 47.238281 34.546875 38.957031 51.3125 38.957031 51.3125 Z M 38.957031 51.3125 "></path><path style=" stroke:none;fill-rule:nonzero;fill:url(#radial8);" d="M 38.957031 51.3125 C 38.957031 51.3125 40.445312 46.113281 26.394531 38.902344 C 12.339844 31.683594 10.699219 22.925781 10.472656 17.878906 C 10.25 12.824219 11.765625 8.488281 14.316406 6.042969 C 17.929688 2.574219 21.210938 1.957031 26.007812 2.367188 C 32.382812 2.917969 39.058594 9.453125 42.390625 19.679688 C 47.238281 34.546875 38.957031 51.3125 38.957031 51.3125 Z M 38.957031 51.3125 "></path><path style=" stroke:none;fill-rule:nonzero;fill:url(#radial9);" d="M 38.957031 51.3125 C 38.957031 51.3125 40.445312 46.113281 26.394531 38.902344 C 12.339844 31.683594 10.699219 22.925781 10.472656 17.878906 C 10.25 12.824219 11.765625 8.488281 14.316406 6.042969 C 17.929688 2.574219 21.210938 1.957031 26.007812 2.367188 C 32.382812 2.917969 39.058594 9.453125 42.390625 19.679688 C 47.238281 34.546875 38.957031 51.3125 38.957031 51.3125 Z M 38.957031 51.3125 "></path><path style=" stroke:none;fill-rule:nonzero;fill:url(#radial10);" d="M 38.957031 51.3125 C 38.957031 51.3125 40.445312 46.113281 26.394531 38.902344 C 12.339844 31.683594 10.699219 22.925781 10.472656 17.878906 C 10.25 12.824219 11.765625 8.488281 14.316406 6.042969 C 17.929688 2.574219 21.210938 1.957031 26.007812 2.367188 C 32.382812 2.917969 39.058594 9.453125 42.390625 19.679688 C 47.238281 34.546875 38.957031 51.3125 38.957031 51.3125 Z M 38.957031 51.3125 "></path><path style=" stroke:none;fill-rule:nonzero;fill:url(#radial11);" d="M 38.957031 51.3125 C 38.957031 51.3125 40.445312 46.113281 26.394531 38.902344 C 12.339844 31.683594 10.699219 22.925781 10.472656 17.878906 C 10.25 12.824219 11.765625 8.488281 14.316406 6.042969 C 17.929688 2.574219 21.210938 1.957031 26.007812 2.367188 C 32.382812 2.917969 39.058594 9.453125 42.390625 19.679688 C 47.238281 34.546875 38.957031 51.3125 38.957031 51.3125 Z M 38.957031 51.3125 "></path><path style=" stroke:none;fill-rule:nonzero;fill:url(#linear1);" d="M 38.957031 51.3125 C 38.957031 51.3125 40.445312 46.113281 26.394531 38.902344 C 12.339844 31.683594 10.699219 22.925781 10.472656 17.878906 C 10.25 12.824219 11.765625 8.488281 14.316406 6.042969 C 17.929688 2.574219 21.210938 1.957031 26.007812 2.367188 C 32.382812 2.917969 39.058594 9.453125 42.390625 19.679688 C 47.238281 34.546875 38.957031 51.3125 38.957031 51.3125 Z M 38.957031 51.3125 "></path><path style=" stroke:none;fill-rule:nonzero;fill:url(#radial12);" d="M 38.957031 51.3125 C 38.957031 51.3125 40.445312 46.113281 26.394531 38.902344 C 12.339844 31.683594 10.699219 22.925781 10.472656 17.878906 C 10.25 12.824219 11.765625 8.488281 14.316406 6.042969 C 17.929688 2.574219 21.210938 1.957031 26.007812 2.367188 C 32.382812 2.917969 39.058594 9.453125 42.390625 19.679688 C 47.238281 34.546875 38.957031 51.3125 38.957031 51.3125 Z M 38.957031 51.3125 "></path><path style=" stroke:none;fill-rule:nonzero;fill:url(#radial13);" d="M 38.957031 51.3125 C 38.957031 51.3125 40.445312 46.113281 26.394531 38.902344 C 12.339844 31.683594 10.699219 22.925781 10.472656 17.878906 C 10.25 12.824219 11.765625 8.488281 14.316406 6.042969 C 17.929688 2.574219 21.210938 1.957031 26.007812 2.367188 C 32.382812 2.917969 39.058594 9.453125 42.390625 19.679688 C 47.238281 34.546875 38.957031 51.3125 38.957031 51.3125 Z M 38.957031 51.3125 "></path><path style=" stroke:none;fill-rule:nonzero;fill:url(#radial14);" d="M 38.957031 51.3125 C 38.957031 51.3125 40.445312 46.113281 26.394531 38.902344 C 12.339844 31.683594 10.699219 22.925781 10.472656 17.878906 C 10.25 12.824219 11.765625 8.488281 14.316406 6.042969 C 17.929688 2.574219 21.210938 1.957031 26.007812 2.367188 C 32.382812 2.917969 39.058594 9.453125 42.390625 19.679688 C 47.238281 34.546875 38.957031 51.3125 38.957031 51.3125 Z M 38.957031 51.3125 "></path><path style=" stroke:none;fill-rule:nonzero;fill:url(#radial15);" d="M 38.957031 51.3125 C 38.957031 51.3125 40.445312 46.113281 26.394531 38.902344 C 12.339844 31.683594 10.699219 22.925781 10.472656 17.878906 C 10.25 12.824219 11.765625 8.488281 14.316406 6.042969 C 17.929688 2.574219 21.210938 1.957031 26.007812 2.367188 C 32.382812 2.917969 39.058594 9.453125 42.390625 19.679688 C 47.238281 34.546875 38.957031 51.3125 38.957031 51.3125 Z M 38.957031 51.3125 "></path><path style=" stroke:none;fill-rule:nonzero;fill:url(#radial16);" d="M 38.957031 51.3125 C 38.957031 51.3125 40.445312 46.113281 26.394531 38.902344 C 12.339844 31.683594 10.699219 22.925781 10.472656 17.878906 C 10.25 12.824219 11.765625 8.488281 14.316406 6.042969 C 17.929688 2.574219 21.210938 1.957031 26.007812 2.367188 C 32.382812 2.917969 39.058594 9.453125 42.390625 19.679688 C 47.238281 34.546875 38.957031 51.3125 38.957031 51.3125 Z M 38.957031 51.3125 "></path></g></svg>