<svg xmlns="http://www.w3.org/2000/svg" width="28" height="20" viewBox="0 0 28 20" fill="none"><path d="M0.513936 18.1314C0.0356437 18.4076 -0.130208 19.0203 0.143496 19.5C0.4172 19.9797 1.02681 20.1447 1.50511 19.8686L0.513936 18.1314ZM27.9531 4.26061C28.0978 3.72615 27.784 3.17621 27.2522 3.03228L18.587 0.686786C18.0552 0.542854 17.5069 0.859437 17.3622 1.39389C17.2176 1.92835 17.5314 2.47829 18.0631 2.62222L25.7655 4.70711L23.67 12.4488C23.5253 12.9833 23.8391 13.5332 24.3709 13.6772C24.9026 13.8211 25.451 13.5045 25.5956 12.9701L27.9531 4.26061ZM1.50511 19.8686L27.4859 4.86856L26.4947 3.13144L0.513936 18.1314L1.50511 19.8686Z" fill="#20265C"></path></svg>