<svg xmlns="http://www.w3.org/2000/svg" xmlns:xlink="http://www.w3.org/1999/xlink" width="182px" height="65px" viewBox="0 0 183 65"><g id="surface1"><path style=" stroke:none;fill-rule:nonzero;fill:rgb(52.941179%,83.137256%,27.843139%);fill-opacity:1;" d="M 28.351562 8.976562 C 32.875 8.976562 35.441406 12.234375 35.441406 15.875 C 35.441406 21.582031 31.101562 25.28125 23.28125 25.28125 C 22.179688 25.28125 20.960938 25.21875 19.675781 25.15625 C 19.613281 23.839844 19.554688 22.585938 19.554688 21.457031 C 19.554688 13.425781 23.160156 8.976562 28.351562 8.976562 Z M 28.351562 8.976562 "></path><path style=" stroke:none;fill-rule:nonzero;fill:rgb(31.37255%,68.627453%,80.392158%);fill-opacity:1;" d="M 28.351562 45.355469 C 23.160156 45.355469 19.554688 40.902344 19.554688 32.871094 C 19.554688 31.742188 19.613281 30.488281 19.675781 29.171875 C 20.960938 29.109375 22.179688 29.046875 23.28125 29.046875 C 31.101562 29.046875 35.441406 32.746094 35.441406 38.453125 C 35.441406 42.09375 32.875 45.355469 28.351562 45.355469 Z M 28.351562 45.355469 "></path><path style=" stroke:none;fill-rule:nonzero;fill:rgb(93.725491%,66.666669%,0.784314%);fill-opacity:1;" d="M 7.089844 45.355469 C 2.566406 45.355469 0 42.09375 0 38.453125 C 0 32.746094 4.335938 29.046875 12.160156 29.046875 C 13.261719 29.046875 14.480469 29.109375 15.765625 29.171875 C 15.824219 30.488281 15.886719 31.742188 15.886719 32.871094 C 15.886719 40.902344 12.28125 45.355469 7.089844 45.355469 Z M 7.089844 45.355469 "></path><path style=" stroke:none;fill-rule:nonzero;fill:rgb(85.09804%,32.941177%,13.725491%);fill-opacity:1;" d="M 7.089844 8.976562 C 12.28125 8.976562 15.886719 13.425781 15.886719 21.457031 C 15.886719 22.585938 15.824219 23.839844 15.765625 25.15625 C 14.480469 25.21875 13.261719 25.28125 12.160156 25.28125 C 4.335938 25.28125 0 21.582031 0 15.875 C 0 12.234375 2.566406 8.976562 7.089844 8.976562 Z M 7.089844 8.976562 "></path><path style=" stroke:none;fill-rule:evenodd;fill:rgb(23.529412%,23.529412%,23.529412%);fill-opacity:1;" d="M 57.140625 42.007812 L 57.140625 42.617188 C 57.140625 43.890625 56.496094 45.371094 53.527344 45.371094 C 51.894531 45.371094 50.757812 44.757812 50.261719 43.382812 C 49.667969 44.605469 48.183594 45.320312 46.453125 45.320312 C 42.25 45.320312 40.023438 41.851562 40.023438 32.832031 C 40.023438 23.808594 42.25 20.34375 46.453125 20.34375 C 48.433594 20.34375 49.570312 21.160156 49.964844 22.128906 L 49.964844 9.539062 C 49.964844 8.976562 50.363281 8.566406 50.90625 8.566406 L 55.109375 8.566406 C 55.65625 8.566406 56.050781 8.976562 56.050781 9.539062 L 56.050781 40.375 C 56.050781 41.546875 56.398438 42.007812 57.140625 42.007812 Z M 48.53125 40.679688 C 49.125 40.679688 49.570312 40.527344 49.964844 40.324219 L 49.964844 25.339844 C 49.570312 25.136719 49.125 24.980469 48.53125 24.980469 C 47.144531 24.980469 46.105469 25.59375 46.105469 32.832031 C 46.105469 40.019531 47.144531 40.679688 48.53125 40.679688 Z M 74.800781 42.617188 L 74.800781 42.007812 C 74.058594 42.007812 73.714844 41.546875 73.714844 40.375 L 73.714844 27.53125 C 73.714844 22.535156 71.191406 20.292969 66.441406 20.292969 C 62.382812 20.292969 59.21875 22.433594 59.21875 27.277344 C 59.21875 28.191406 59.859375 28.5 60.453125 28.5 L 63.523438 28.5 C 64.214844 28.5 64.460938 28.089844 64.414062 27.121094 C 64.363281 26.050781 64.609375 24.777344 66.191406 24.777344 C 67.628906 24.777344 67.972656 25.847656 67.972656 27.070312 L 67.972656 30.894531 C 67.183594 30.742188 66.292969 30.589844 65.003906 30.589844 C 60.15625 30.589844 58.375 34.15625 58.375 37.929688 C 58.375 41.851562 59.859375 45.371094 63.867188 45.371094 C 65.996094 45.371094 67.578125 44.707031 68.222656 43.332031 C 68.617188 44.757812 69.507812 45.371094 71.140625 45.371094 C 74.160156 45.371094 74.800781 43.890625 74.800781 42.617188 Z M 65.996094 41.34375 C 66.789062 41.394531 67.429688 41.089844 67.972656 40.679688 L 67.972656 34.207031 C 67.429688 34.15625 66.984375 34.15625 66.539062 34.15625 C 64.710938 34.207031 64.113281 35.632812 64.113281 37.980469 C 64.113281 40.222656 64.710938 41.242188 65.996094 41.34375 Z M 83.015625 44.097656 L 83.015625 21.566406 C 83.015625 21.003906 82.617188 20.597656 82.074219 20.597656 L 77.871094 20.597656 C 77.324219 20.597656 76.929688 21.003906 76.929688 21.566406 L 76.929688 44.097656 C 76.929688 44.65625 77.324219 45.066406 77.871094 45.066406 L 82.074219 45.066406 C 82.617188 45.066406 83.015625 44.65625 83.015625 44.097656 Z M 79.945312 10.351562 C 81.726562 10.351562 83.113281 11.777344 83.113281 13.613281 C 83.113281 15.398438 81.726562 16.875 79.945312 16.875 C 78.214844 16.875 76.78125 15.398438 76.78125 13.613281 C 76.78125 11.777344 78.214844 10.351562 79.945312 10.351562 Z M 92.265625 44.097656 L 92.265625 9.539062 C 92.265625 8.976562 91.871094 8.566406 91.324219 8.566406 L 87.121094 8.566406 C 86.574219 8.566406 86.179688 8.976562 86.179688 9.539062 L 86.179688 44.097656 C 86.179688 44.65625 86.574219 45.0625 87.121094 45.0625 L 91.324219 45.0625 C 91.871094 45.0625 92.265625 44.65625 92.265625 44.097656 Z M 111.410156 21.566406 L 111.410156 45.21875 C 111.410156 52.660156 108.640625 56.433594 102.160156 56.433594 C 100.429688 56.433594 97.261719 55.820312 97.261719 54.699219 L 97.261719 51.132812 C 97.261719 50.621094 97.507812 50.367188 97.953125 50.367188 C 98.253906 50.367188 98.695312 50.519531 99.140625 50.722656 C 99.785156 50.976562 100.675781 51.183594 101.46875 51.183594 C 104.4375 51.183594 105.328125 49.398438 105.328125 45.472656 L 105.328125 43.535156 C 104.386719 44.453125 102.753906 45.371094 100.726562 45.371094 C 97.0625 45.371094 95.382812 43.128906 95.382812 39 L 95.382812 21.566406 C 95.382812 21.003906 95.777344 20.597656 96.320312 20.597656 L 100.527344 20.597656 C 101.074219 20.597656 101.46875 21.003906 101.46875 21.566406 L 101.46875 38.84375 C 101.46875 40.121094 102.011719 40.628906 103.050781 40.628906 C 103.695312 40.628906 104.585938 40.425781 105.328125 40.019531 L 105.328125 21.566406 C 105.328125 21.003906 105.722656 20.597656 106.265625 20.597656 L 110.472656 20.597656 C 111.015625 20.597656 111.410156 21.003906 111.410156 21.566406 Z M 130.605469 44.097656 L 130.605469 26.664062 C 130.605469 22.535156 128.925781 20.292969 125.3125 20.292969 C 123.1875 20.292969 121.503906 21.414062 120.664062 22.382812 L 120.664062 9.539062 C 120.664062 8.976562 120.269531 8.566406 119.722656 8.566406 L 115.519531 8.566406 C 114.972656 8.566406 114.578125 8.976562 114.578125 9.539062 L 114.578125 44.097656 C 114.578125 44.65625 114.972656 45.0625 115.519531 45.0625 L 119.722656 45.0625 C 120.269531 45.0625 120.664062 44.65625 120.664062 44.097656 L 120.664062 25.644531 C 121.457031 25.234375 122.34375 25.03125 122.988281 25.03125 C 124.027344 25.03125 124.523438 25.542969 124.523438 26.816406 L 124.523438 44.097656 C 124.523438 44.65625 124.917969 45.0625 125.464844 45.0625 L 129.667969 45.0625 C 130.210938 45.0625 130.605469 44.65625 130.605469 44.097656 Z M 150.792969 42.007812 L 150.792969 42.617188 C 150.792969 43.890625 150.148438 45.371094 147.179688 45.371094 C 145.5 45.371094 144.359375 44.707031 143.867188 43.28125 C 142.925781 44.300781 141.242188 45.371094 139.019531 45.371094 C 135.355469 45.371094 133.675781 43.128906 133.675781 39 L 133.675781 21.566406 C 133.675781 21.003906 134.070312 20.597656 134.613281 20.597656 L 138.820312 20.597656 C 139.367188 20.597656 139.761719 21.003906 139.761719 21.566406 L 139.761719 38.84375 C 139.761719 40.121094 140.304688 40.628906 141.34375 40.628906 C 141.988281 40.628906 142.875 40.425781 143.617188 40.019531 L 143.617188 21.566406 C 143.617188 21.003906 144.015625 20.597656 144.558594 20.597656 L 148.765625 20.597656 C 149.308594 20.597656 149.703125 21.003906 149.703125 21.566406 L 149.703125 40.375 C 149.703125 41.546875 150.050781 42.007812 150.792969 42.007812 Z M 168.949219 44.097656 L 168.949219 26.664062 C 168.949219 22.535156 167.265625 20.292969 163.65625 20.292969 C 161.378906 20.292969 159.796875 21.363281 158.859375 22.332031 C 158.511719 21.160156 157.472656 20.597656 156.285156 20.597656 L 153.859375 20.597656 C 153.316406 20.597656 152.917969 21.003906 152.917969 21.566406 L 152.917969 44.097656 C 152.917969 44.65625 153.316406 45.066406 153.859375 45.066406 L 158.066406 45.066406 C 158.609375 45.066406 159.003906 44.65625 159.003906 44.097656 L 159.003906 25.644531 C 159.796875 25.234375 160.6875 25.03125 161.332031 25.03125 C 162.371094 25.03125 162.863281 25.542969 162.863281 26.816406 L 162.863281 44.097656 C 162.863281 44.65625 163.261719 45.066406 163.804688 45.066406 L 168.007812 45.066406 C 168.554688 45.066406 168.949219 44.65625 168.949219 44.097656 Z M 181.761719 24.777344 L 179.242188 24.777344 L 179.242188 39.203125 C 179.242188 40.375 179.535156 40.886719 180.429688 40.886719 C 180.808594 40.886719 181.046875 40.8125 181.414062 40.691406 C 181.480469 40.671875 181.542969 40.652344 181.613281 40.628906 C 181.683594 40.605469 181.746094 40.582031 181.808594 40.5625 C 182.007812 40.484375 182.167969 40.425781 182.355469 40.425781 C 182.75 40.425781 183 40.628906 183 41.242188 L 183 42.261719 C 183 43.332031 182.703125 43.890625 182.160156 44.25 C 180.824219 45.117188 179.585938 45.421875 177.707031 45.421875 C 174.738281 45.421875 173.15625 43.839844 173.15625 40.679688 L 173.15625 24.777344 L 171.472656 24.777344 C 170.929688 24.777344 170.53125 24.371094 170.53125 23.808594 L 170.53125 21.566406 C 170.53125 21.003906 170.929688 20.597656 171.472656 20.597656 L 173.15625 20.597656 L 173.15625 15.652344 C 173.15625 15.09375 173.550781 14.683594 174.09375 14.683594 L 178.300781 14.683594 C 178.84375 14.683594 179.242188 15.09375 179.242188 15.652344 L 179.242188 20.597656 L 181.761719 20.597656 C 182.308594 20.597656 182.703125 21.003906 182.703125 21.566406 L 182.703125 23.808594 C 182.703125 24.371094 182.308594 24.777344 181.761719 24.777344 Z M 181.761719 24.777344 "></path></g></svg>