<svg xmlns="http://www.w3.org/2000/svg" xmlns:xlink="http://www.w3.org/1999/xlink" width="182px" height="65px" viewBox="0 0 183 65"><g id="surface1"><path style=" stroke:none;fill-rule:nonzero;fill:rgb(94.509804%,35.686275%,16.470589%);fill-opacity:1;" d="M 6.585938 43.476562 C 3.753906 41.472656 1.855469 38.847656 1.234375 35.441406 C -0.261719 27.265625 5.640625 21.789062 11.234375 20.832031 C 13.589844 20.429688 15.902344 20.613281 18.136719 21.523438 C 19.113281 21.925781 19.457031 22.753906 19.066406 23.734375 C 18.917969 24.089844 18.769531 24.445312 18.617188 24.792969 C 18.203125 25.714844 17.386719 26.023438 16.445312 25.65625 C 14.085938 24.734375 11.726562 24.78125 9.554688 26.070312 C 5.148438 28.695312 4.503906 33.589844 6.445312 36.9375 C 9.300781 41.867188 15.488281 42.335938 19.089844 38.699219 C 20.675781 37.085938 21.492188 35.222656 21.480469 32.941406 C 21.457031 26.761719 21.480469 20.578125 21.480469 14.382812 C 21.480469 13.316406 22.089844 12.691406 23.148438 12.667969 L 24.300781 12.667969 C 25.230469 12.703125 25.855469 13.324219 25.898438 14.269531 L 25.898438 33.070312 C 25.898438 34.886719 25.601562 36.660156 24.785156 38.296875 C 22.886719 42.117188 19.847656 44.523438 15.636719 45.296875 C 12.429688 45.882812 9.390625 45.296875 6.605469 43.464844 L 6.585938 43.464844 Z M 145.367188 36.304688 C 143.847656 41.277344 140.546875 44.328125 135.507812 45.296875 C 131.746094 46.007812 128.261719 45.171875 125.328125 42.613281 C 122.464844 40.128906 120.921875 36.984375 120.921875 33.152344 L 120.921875 14.429688 C 120.921875 13.289062 121.519531 12.679688 122.667969 12.667969 L 123.613281 12.667969 C 124.707031 12.667969 125.316406 13.300781 125.316406 14.398438 C 125.316406 20.660156 125.363281 26.933594 125.304688 33.195312 C 125.257812 37.929688 129.628906 41.023438 133.160156 41.082031 C 137.636719 41.164062 140.558594 37.71875 141.167969 34.796875 C 142.351562 29.050781 137.648438 25.308594 134.105469 25.078125 C 132.792969 25 131.539062 25.183594 130.320312 25.65625 C 129.363281 26.023438 128.582031 25.703125 128.15625 24.757812 C 127.996094 24.414062 127.847656 24.054688 127.695312 23.699219 C 127.328125 22.8125 127.664062 21.960938 128.546875 21.59375 C 129.894531 21.027344 131.308594 20.691406 132.78125 20.636719 C 136.277344 20.488281 139.316406 21.578125 141.835938 24.011719 C 144.515625 26.597656 145.90625 29.753906 145.734375 33.53125 C 145.699219 34.441406 145.503906 35.347656 145.378906 36.292969 L 145.367188 36.292969 Z M 152.441406 29.695312 C 149.898438 34.820312 153.558594 40.472656 158.59375 41.023438 C 161.230469 41.3125 163.53125 40.578125 165.359375 38.5625 C 166.210938 37.628906 167.027344 37.617188 167.960938 38.480469 C 168.199219 38.699219 168.441406 38.929688 168.683594 39.148438 C 169.375 39.816406 169.433594 40.75 168.765625 41.429688 C 166.773438 43.429688 164.460938 44.882812 161.632812 45.332031 C 157.675781 45.953125 154.167969 44.984375 151.222656 42.234375 C 147.710938 38.941406 146.449219 34.855469 147.539062 30.214844 C 148.632812 25.574219 151.636719 22.488281 156.226562 21.1875 C 162.253906 19.472656 168.855469 22.351562 171.101562 29.121094 C 171.410156 30.042969 171.617188 30.996094 171.824219 31.941406 C 172.03125 32.964844 171.320312 33.792969 170.273438 33.792969 L 159.722656 33.792969 C 158.859375 33.792969 158.226562 33.300781 158.136719 32.449219 C 158.078125 31.882812 158.078125 31.285156 158.136719 30.722656 C 158.226562 29.859375 158.859375 29.351562 159.757812 29.351562 L 166.335938 29.351562 C 165.867188 28.417969 165.324219 27.601562 164.542969 26.945312 C 161.847656 24.65625 157.925781 24.550781 155.109375 26.691406 C 154.03125 27.507812 153.109375 28.488281 152.441406 29.71875 Z M 28.15625 34.75 C 27.902344 32.515625 28.0625 30.363281 28.984375 28.339844 C 30.882812 24.148438 34.054688 21.476562 38.65625 20.796875 C 46.527344 19.648438 51.945312 25.78125 52.714844 31.183594 C 53.761719 38.480469 48.550781 44.078125 43.132812 45.203125 C 35.515625 46.792969 29.421875 41.519531 28.292969 35.558594 C 28.246094 35.304688 28.199219 35.039062 28.144531 34.75 M 32.765625 30.894531 C 32.699219 31.261719 32.605469 31.617188 32.558594 31.988281 C 31.753906 37.515625 36.875 42.1875 42.316406 40.839844 C 48.113281 39.402344 50.34375 32.472656 46.546875 28.050781 C 44.5 25.667969 41.945312 24.652344 38.863281 25.289062 C 35.78125 25.921875 33.824219 27.914062 32.765625 30.90625 Z M 115.339844 40.738281 C 113.28125 43.234375 110.738281 44.882812 107.542969 45.375 C 100.109375 46.515625 94.472656 41.3125 93.414062 35.742188 C 93.253906 34.867188 93.164062 33.96875 93.152344 33.082031 C 93.117188 29.660156 93.140625 26.242188 93.140625 22.8125 C 93.140625 21.601562 93.726562 21.015625 94.921875 21.015625 L 95.992188 21.015625 C 96.9375 21.015625 97.589844 21.683594 97.589844 22.628906 C 97.589844 26.117188 97.613281 29.605469 97.589844 33.09375 C 97.558594 37.363281 100.882812 40.183594 103.539062 40.828125 C 108.84375 42.117188 112.855469 38.15625 113.410156 34.519531 C 113.476562 34.082031 113.511719 33.644531 113.511719 33.207031 L 113.511719 22.777344 C 113.511719 21.613281 114.121094 20.992188 115.285156 20.992188 L 116.398438 20.992188 C 117.273438 21.003906 117.941406 21.671875 117.941406 22.535156 C 117.941406 26.253906 117.988281 29.984375 117.929688 33.703125 C 117.882812 36.304688 116.972656 38.640625 115.339844 40.703125 Z M 65.621094 20.832031 C 69.246094 20.613281 72.398438 21.648438 75.054688 24.089844 C 75.355469 24.367188 75.628906 24.675781 75.894531 25 C 76.472656 25.714844 76.390625 26.589844 75.699219 27.210938 C 75.410156 27.476562 75.125 27.726562 74.835938 27.96875 C 74.089844 28.613281 73.273438 28.578125 72.558594 27.902344 C 71.464844 26.851562 70.257812 25.988281 68.796875 25.539062 C 65.609375 24.5625 62.296875 25.714844 60.203125 28.578125 C 56.742188 33.3125 59.546875 40.023438 65.324219 40.957031 C 68.117188 41.40625 70.558594 40.632812 72.488281 38.46875 C 73.15625 37.71875 74.078125 37.699219 74.824219 38.378906 C 75.125 38.652344 75.433594 38.929688 75.734375 39.21875 C 76.390625 39.875 76.4375 40.808594 75.78125 41.460938 C 73.640625 43.601562 71.132812 45.066406 68.0625 45.421875 C 61.917969 46.125 56.257812 42.257812 54.660156 36.28125 C 52.808594 29.339844 57.429688 22.144531 64.519531 20.945312 C 64.863281 20.890625 65.230469 20.867188 65.621094 20.832031 Z M 90.515625 41.070312 C 91.898438 41.070312 92.484375 41.65625 92.472656 43.015625 C 92.472656 43.429688 92.484375 43.847656 92.425781 44.25 C 92.300781 45.019531 91.703125 45.492188 90.929688 45.503906 C 84.730469 45.664062 79.496094 40.792969 78.609375 35.039062 C 78.507812 34.347656 78.449219 33.644531 78.449219 32.941406 C 78.4375 26.820312 78.449219 20.683594 78.449219 14.558594 C 78.449219 13.289062 79.046875 12.691406 80.3125 12.691406 L 81.347656 12.691406 C 82.324219 12.726562 82.957031 13.371094 82.957031 14.351562 L 82.957031 21.015625 L 85.789062 21.015625 C 86.882812 21.015625 87.492188 21.636719 87.492188 22.730469 L 87.492188 23.882812 C 87.492188 24.828125 86.859375 25.460938 85.925781 25.472656 C 85.027344 25.484375 84.144531 25.472656 83.246094 25.472656 C 83.164062 25.472656 83.085938 25.472656 82.957031 25.484375 L 82.957031 25.941406 C 82.957031 28.292969 83.003906 30.640625 82.957031 32.988281 C 82.855469 37.503906 86.847656 40.667969 90.007812 41.015625 C 90.171875 41.035156 90.34375 41.035156 90.539062 41.046875 Z M 90.515625 41.070312 "></path><path style=" stroke:none;fill-rule:nonzero;fill:rgb(35.294119%,29.411766%,26.274511%);fill-opacity:1;" d="M 115.628906 47.125 C 115.929688 48.046875 115.722656 48.714844 114.960938 49.292969 C 112.558594 51.132812 109.84375 52.136719 106.804688 52.296875 C 103.226562 52.480469 99.890625 51.765625 96.832031 49.867188 C 95.773438 49.210938 95.625 47.839844 96.542969 47.035156 C 97.109375 46.539062 97.902344 46.46875 98.605469 46.894531 C 99.902344 47.667969 101.273438 48.3125 102.769531 48.589844 C 106.425781 49.246094 109.890625 48.898438 112.9375 46.503906 C 113.890625 45.757812 115.019531 46.042969 115.628906 47.136719 Z M 115.628906 47.125 "></path><path style=" stroke:none;fill-rule:nonzero;fill:rgb(94.509804%,35.686275%,16.862746%);fill-opacity:1;" d="M 42.855469 34.324219 C 41.660156 35.109375 40.5 35.878906 39.335938 36.652344 C 39.046875 36.847656 38.761719 36.996094 38.429688 36.800781 C 38.09375 36.617188 38.046875 36.292969 38.046875 35.949219 L 38.046875 29.972656 C 38.046875 29.132812 38.542969 28.820312 39.277344 29.226562 C 40.921875 30.121094 42.570312 31.019531 44.214844 31.929688 C 44.960938 32.34375 44.996094 32.898438 44.28125 33.367188 C 43.8125 33.679688 43.351562 33.992188 42.855469 34.324219 Z M 42.855469 34.324219 "></path><path style="fill:none;stroke-width:1.04;stroke-linecap:butt;stroke-linejoin:miter;stroke:rgb(0%,0%,0%);stroke-opacity:1;stroke-miterlimit:4;" d="M 156.811784 6.360576 C 156.811784 3.80903 154.740456 1.739293 152.190346 1.739293 C 149.640237 1.739293 147.568909 3.80903 147.568909 6.360576 C 147.568909 8.912121 149.640237 10.978465 152.190346 10.978465 C 154.740456 10.978465 156.811784 8.912121 156.811784 6.360576 Z M 156.811784 6.360576 " transform="matrix(1.150379,0,0,1.151263,1.005399,12.669492)"></path><path style=" stroke:none;fill-rule:nonzero;fill:rgb(0%,0%,0%);fill-opacity:1;" d="M 175.761719 19.507812 C 176.09375 19.507812 176.335938 19.4375 176.472656 19.3125 C 176.621094 19.195312 176.691406 18.992188 176.691406 18.703125 C 176.691406 18.414062 176.609375 18.21875 176.472656 18.09375 C 176.324219 17.976562 176.09375 17.90625 175.761719 17.90625 L 175.09375 17.90625 L 175.09375 19.496094 L 175.761719 19.496094 M 175.09375 20.601562 L 175.09375 22.949219 L 173.492188 22.949219 L 173.492188 16.757812 L 175.933594 16.757812 C 176.75 16.757812 177.347656 16.894531 177.726562 17.171875 C 178.105469 17.4375 178.300781 17.875 178.300781 18.472656 C 178.300781 18.886719 178.210938 19.222656 178.003906 19.484375 C 177.808594 19.738281 177.507812 19.945312 177.105469 20.058594 C 177.324219 20.117188 177.519531 20.234375 177.691406 20.40625 C 177.863281 20.578125 178.039062 20.84375 178.210938 21.199219 L 179.082031 22.949219 L 177.382812 22.949219 L 176.621094 21.40625 C 176.472656 21.097656 176.3125 20.890625 176.164062 20.773438 C 175.976562 20.652344 175.761719 20.59375 175.539062 20.601562 L 175.09375 20.601562 "></path></g></svg>