<svg xmlns="http://www.w3.org/2000/svg" width="309" height="130" viewBox="0 0 309 130" fill="none"><path fill-rule="evenodd" clip-rule="evenodd" d="M0.000175476 151L0.000178644 78.52L72.4802 78.52L72.4802 86.2857C72.4802 122.026 43.5066 151 7.76589 151L0.000175476 151Z" fill="white"></path><path fill-rule="evenodd" clip-rule="evenodd" d="M3.05176e-05 0L2.73494e-05 72.48L72.48 72.48L72.48 64.7143C72.48 28.9736 43.5065 1.90173e-06 7.76574 3.3945e-07L3.05176e-05 0Z" fill="white"></path><path d="M137.374 0.261788C138.663 0.146005 139.964 0.0680679 141.275 0.0290958L141.305 1.02865C141.945 1.0096 142.589 1 143.234 1L145.176 1L145.176 -2.54588e-07L149.058 -8.48625e-08L149.058 1L150 1L150 2.01334L151 2.01334L151 6.04001L150 6.04001L150 10.0667L151 10.0667L151 14.0933L150 14.0933L150 18.12L151 18.12L151 22.1467L150 22.1467L150 26.1733L151 26.1733L151 30.2L150 30.2L150 34.2267L151 34.2267L151 38.2533L150 38.2533L150 42.28L151 42.28L151 46.3067L150 46.3067L150 50.3333L151 50.3333L151 54.36L150 54.36L150 58.3867L151 58.3867L151 62.4133L150 62.4133L150 66.44L151 66.44L151 70.4667L150 70.4667L150 71.48L148.987 71.48L148.987 72.48L144.96 72.48L144.96 71.48L140.933 71.48L140.933 72.48L136.907 72.48L136.907 71.48L132.88 71.48L132.88 72.48L128.853 72.48L128.853 71.48L124.827 71.48L124.827 72.48L120.8 72.48L120.8 71.48L116.773 71.48L116.773 72.48L112.747 72.48L112.747 71.48L108.72 71.48L108.72 72.48L104.693 72.48L104.693 71.48L100.667 71.48L100.667 72.48L96.6399 72.48L96.6399 71.48L92.6132 71.48L92.6132 72.48L88.5866 72.48L88.5866 71.48L84.5599 71.48L84.5599 72.48L80.5332 72.48L80.5332 71.48L79.5199 71.48L79.5199 70.5386L78.5199 70.5386L78.5199 66.6557L79.5199 66.6557L79.5199 64.7143C79.5199 64.0687 79.5295 63.4255 79.5485 62.7846L78.549 62.7549C78.588 61.4443 78.6659 60.1436 78.7817 58.8537L79.7777 58.9431C79.893 57.6585 80.0464 56.385 80.2368 55.1236L79.248 54.9743C79.4436 53.6788 79.6775 52.3959 79.9487 51.1268L80.9266 51.3358C81.1959 50.0754 81.5025 48.8289 81.8451 47.5974L80.8817 47.3294C81.2323 46.0693 81.62 44.8246 82.0437 43.5968L82.989 43.9229C83.4087 42.7067 83.8642 41.5071 84.3542 40.3255L83.4304 39.9424C83.9309 38.7356 84.4668 37.5472 85.0369 36.3785L85.9357 36.8169C86.4994 35.6612 87.0971 34.5251 87.7275 33.4098L86.8569 32.9178C87.4992 31.7814 88.1749 30.6663 88.8826 29.574L89.7219 30.1177C90.4203 29.0396 91.1505 27.9839 91.9111 26.952L91.1061 26.3587C91.8799 25.3087 92.6847 24.283 93.5192 23.2828L94.287 23.9234C95.1095 22.9376 95.9612 21.977 96.8408 21.0429L96.1128 20.3574C97.0064 19.4084 97.9283 18.4865 98.8772 17.5929L99.5628 18.3209C100.497 17.4413 101.457 16.5896 102.443 15.7672L101.803 14.9993C102.803 14.1649 103.829 13.36 104.879 12.5862L105.472 13.3912C106.504 12.6306 107.559 11.9004 108.638 11.202L108.094 10.3627C109.186 9.65501 110.301 8.97935 111.438 8.33705L111.93 9.20761C113.045 8.57725 114.181 7.97955 115.337 7.41579L114.898 6.51702C116.067 5.94693 117.255 5.41101 118.462 4.91056L118.845 5.83428C120.027 5.34428 121.227 4.88881 122.443 4.46915L122.117 3.52384C123.345 3.10016 124.589 2.7124 125.849 2.36181L126.117 3.32522C127.349 2.98259 128.595 2.67603 129.856 2.40673L129.647 1.42881C130.916 1.15764 132.199 0.923678 133.494 0.728124L133.643 1.71692C134.905 1.52652 136.178 1.37309 137.463 1.25778L137.374 0.261788Z" fill="white" stroke="white" stroke-width="2" stroke-dasharray="4 4"></path><path fill-rule="evenodd" clip-rule="evenodd" d="M157.04 0L157.04 72.48L229.52 72.48L229.52 64.7143C229.52 28.9736 200.547 1.90173e-06 164.806 3.3945e-07L157.04 0Z" fill="white"></path><path d="M294.414 0.261788C295.704 0.146005 297.005 0.0680679 298.315 0.0290958L298.345 1.02865C298.986 1.0096 299.629 1 300.275 1L302.216 1L302.216 -2.54588e-07L306.099 -8.48625e-08L306.099 1L307.04 1L307.04 2.01334L308.04 2.01334L308.04 6.04001L307.04 6.04001L307.04 10.0667L308.04 10.0667L308.04 14.0933L307.04 14.0933L307.04 18.12L308.04 18.12L308.04 22.1467L307.04 22.1467L307.04 26.1733L308.04 26.1733L308.04 30.2L307.04 30.2L307.04 34.2267L308.04 34.2267L308.04 38.2533L307.04 38.2533L307.04 42.28L308.04 42.28L308.04 46.3067L307.04 46.3067L307.04 50.3333L308.04 50.3333L308.04 54.36L307.04 54.36L307.04 58.3867L308.04 58.3867L308.04 62.4133L307.04 62.4133L307.04 66.44L308.04 66.44L308.04 70.4667L307.04 70.4667L307.04 71.48L306.027 71.48L306.027 72.48L302 72.48L302 71.48L297.974 71.48L297.974 72.48L293.947 72.48L293.947 71.48L289.92 71.48L289.92 72.48L285.894 72.48L285.894 71.48L281.867 71.48L281.867 72.48L277.84 72.48L277.84 71.48L273.814 71.48L273.814 72.48L269.787 72.48L269.787 71.48L265.76 71.48L265.76 72.48L261.734 72.48L261.734 71.48L257.707 71.48L257.707 72.48L253.68 72.48L253.68 71.48L249.654 71.48L249.654 72.48L245.627 72.48L245.627 71.48L241.6 71.48L241.6 72.48L237.574 72.48L237.574 71.48L236.56 71.48L236.56 70.5386L235.56 70.5386L235.56 66.6557L236.56 66.6557L236.56 64.7143C236.56 64.0687 236.57 63.4255 236.589 62.7846L235.59 62.7549C235.629 61.4443 235.706 60.1436 235.822 58.8537L236.818 58.9431C236.934 57.6585 237.087 56.385 237.277 55.1236L236.289 54.9743C236.484 53.6788 236.718 52.3959 236.989 51.1268L237.967 51.3358C238.236 50.0754 238.543 48.8289 238.886 47.5974L237.922 47.3294C238.273 46.0693 238.661 44.8246 239.084 43.5968L240.03 43.9229C240.449 42.7067 240.905 41.5071 241.395 40.3255L240.471 39.9424C240.971 38.7356 241.507 37.5472 242.077 36.3785L242.976 36.8169C243.54 35.6612 244.138 34.5251 244.768 33.4098L243.897 32.9178C244.54 31.7814 245.215 30.6663 245.923 29.574L246.762 30.1177C247.461 29.0396 248.191 27.9839 248.952 26.952L248.147 26.3587C248.92 25.3087 249.725 24.283 250.56 23.2828L251.328 23.9234C252.15 22.9376 253.002 21.977 253.881 21.0429L253.153 20.3574C254.047 19.4084 254.969 18.4865 255.918 17.5929L256.603 18.3209C257.537 17.4413 258.498 16.5896 259.484 15.7672L258.843 14.9993C259.843 14.1649 260.869 13.36 261.919 12.5862L262.512 13.3912C263.544 12.6306 264.6 11.9004 265.678 11.202L265.134 10.3627C266.227 9.65501 267.342 8.97935 268.478 8.33705L268.97 9.20761C270.086 8.57725 271.222 7.97955 272.377 7.41579L271.939 6.51702C273.108 5.94693 274.296 5.41101 275.503 4.91056L275.886 5.83428C277.068 5.34428 278.267 4.88881 279.483 4.46915L279.157 3.52384C280.385 3.10016 281.63 2.7124 282.89 2.36181L283.158 3.32522C284.389 2.98259 285.636 2.67603 286.896 2.40673L286.687 1.42881C287.956 1.15764 289.239 0.923678 290.535 0.728124L290.684 1.71692C291.945 1.52652 293.219 1.37309 294.504 1.25778L294.414 0.261788Z" fill="white" stroke="white" stroke-width="2" stroke-dasharray="4 4"></path><path fill-rule="evenodd" clip-rule="evenodd" d="M78.5202 151L78.5202 78.52L151 78.52L151 86.2857C151 122.026 122.027 151 86.2859 151L78.5202 151Z" fill="white"></path><path fill-rule="evenodd" clip-rule="evenodd" d="M229.52 151L229.52 78.52L157.04 78.52L157.04 86.2857C157.04 122.026 186.014 151 221.754 151L229.52 151Z" fill="white"></path><path d="M237.854 151C237.854 150.448 237.407 150 236.854 150L236.56 150L236.56 148.584C236.56 148.032 236.112 147.584 235.56 147.584L235.56 139.92C236.112 139.92 236.56 139.472 236.56 138.92L236.56 134.088C236.56 133.536 236.112 133.088 235.56 133.088L235.56 125.424C236.112 125.424 236.56 124.976 236.56 124.424L236.56 119.592C236.56 119.04 236.112 118.592 235.56 118.592L235.56 110.928C236.112 110.928 236.56 110.48 236.56 109.928L236.56 105.096C236.56 104.544 236.112 104.096 235.56 104.096L235.56 96.432C236.112 96.432 236.56 95.9843 236.56 95.432L236.56 90.6C236.56 90.0477 236.112 89.6 235.56 89.6L235.56 81.936C236.112 81.936 236.56 81.4883 236.56 80.936L236.56 79.52L237.976 79.52C238.528 79.52 238.976 79.0723 238.976 78.52L246.64 78.52C246.64 79.0723 247.088 79.52 247.64 79.52L252.472 79.52C253.024 79.52 253.472 79.0723 253.472 78.52L261.136 78.52C261.136 79.0723 261.584 79.52 262.136 79.52L266.968 79.52C267.52 79.52 267.968 79.0723 267.968 78.52L275.632 78.52C275.632 79.0723 276.08 79.52 276.632 79.52L281.464 79.52C282.016 79.52 282.464 79.0723 282.464 78.52L290.128 78.52C290.128 79.0723 290.576 79.52 291.128 79.52L295.96 79.52C296.512 79.52 296.96 79.0723 296.96 78.52L304.624 78.52C304.624 79.0723 305.072 79.52 305.624 79.52L307.04 79.52L307.04 79.8143C307.04 80.3666 307.488 80.8143 308.04 80.8143L308.04 83.9914C307.488 83.9914 307.04 84.4391 307.04 84.9914L307.04 86.2857C307.04 87.085 307.025 87.8807 306.996 88.6727C306.976 89.2221 307.403 89.6842 307.951 89.7085C307.816 92.2949 307.53 94.8411 307.1 97.3384C306.56 97.2411 306.042 97.5975 305.94 98.1377C305.645 99.7072 305.292 101.256 304.884 102.783C304.742 103.314 305.055 103.859 305.584 104.005C304.88 106.485 304.032 108.903 303.049 111.252C302.544 111.036 301.959 111.267 301.739 111.771C301.101 113.231 300.41 114.662 299.669 116.062C299.411 116.548 299.595 117.15 300.078 117.411C298.841 119.661 297.474 121.83 295.987 123.907C295.543 123.585 294.921 123.68 294.595 124.122C293.649 125.401 292.657 126.643 291.621 127.846C291.262 128.262 291.307 128.89 291.72 129.251C290.019 131.166 288.206 132.979 286.291 134.68C285.93 134.267 285.303 134.222 284.886 134.581C283.683 135.617 282.441 136.609 281.162 137.554C280.72 137.881 280.625 138.503 280.948 138.947C278.87 140.434 276.701 141.8 274.451 143.037C274.19 142.554 273.588 142.371 273.103 142.628C271.702 143.37 270.271 144.061 268.811 144.699C268.307 144.919 268.076 145.504 268.292 146.008C265.944 146.991 263.525 147.84 261.045 148.544C260.9 148.015 260.354 147.702 259.823 147.844C258.297 148.252 256.747 148.605 255.178 148.9C254.638 149.001 254.281 149.52 254.379 150.06C251.881 150.49 249.335 150.776 246.749 150.911C246.724 150.363 246.262 149.936 245.713 149.956C244.921 149.985 244.125 150 243.326 150L242.032 150C241.479 150 241.032 150.448 241.032 151L237.854 151Z" stroke="white" stroke-width="2" stroke-linecap="round" stroke-linejoin="round" stroke-dasharray="5 10"></path></svg>