<svg xmlns="http://www.w3.org/2000/svg" width="50" height="50" viewBox="0 0 50 50" fill="none"><circle cx="25" cy="25" r="25" fill="white"></circle><path fill-rule="evenodd" clip-rule="evenodd" d="M23.8849 13.6364H26.1151C27.5607 13.6363 28.726 13.6363 29.6424 13.7595C30.5939 13.8875 31.3951 14.1611 32.0313 14.7974C32.3468 15.1129 32.5732 15.4689 32.7368 15.8638C33.7221 15.9872 34.5492 16.2583 35.2026 16.9116C35.8389 17.5479 36.1125 18.349 36.2404 19.3005C36.3637 20.217 36.3636 21.3822 36.3636 22.8279V27.1722C36.3636 28.6179 36.3637 29.7831 36.2404 30.6996C36.1125 31.6511 35.8389 32.4522 35.2026 33.0885C34.5492 33.7418 33.722 34.0129 32.7368 34.1363C32.5731 34.5311 32.3468 34.8871 32.0313 35.2026C31.3951 35.8389 30.5939 36.1125 29.6424 36.2404C28.726 36.3637 27.5607 36.3636 26.1151 36.3636H23.8849C22.4392 36.3636 21.274 36.3637 20.3575 36.2404C19.4061 36.1125 18.6049 35.8389 17.9686 35.2026C17.6532 34.8871 17.4268 34.5311 17.2632 34.1363C16.2779 34.0129 15.4508 33.7418 14.7974 33.0885C14.1611 32.4522 13.8875 31.6511 13.7595 30.6996C13.6363 29.7831 13.6363 28.6179 13.6364 27.1722V22.8279C13.6363 21.3822 13.6363 20.217 13.7595 19.3005C13.8875 18.349 14.1611 17.5479 14.7974 16.9116C15.4507 16.2583 16.2779 15.9872 17.2632 15.8638C17.4268 15.4689 17.6531 15.1129 17.9686 14.7974C18.6049 14.1611 19.4061 13.8875 20.3575 13.7595C21.274 13.6363 22.4392 13.6363 23.8849 13.6364ZM16.8905 17.5375C16.4279 17.649 16.1395 17.8119 15.9186 18.0328C15.626 18.3254 15.4353 18.7361 15.331 19.5118C15.2237 20.3103 15.222 21.3685 15.222 22.8859V27.1142C15.222 28.6316 15.2237 29.6898 15.331 30.4883C15.4353 31.2639 15.626 31.6747 15.9186 31.9673C16.1395 32.1882 16.4279 32.3511 16.8905 32.4626C16.8076 31.6051 16.8076 30.5534 16.8076 29.2863V20.7136C16.8076 19.4466 16.8076 18.395 16.8905 17.5375ZM33.1095 32.4626C33.5721 32.3511 33.8604 32.1882 34.0814 31.9673C34.3739 31.6747 34.5647 31.2639 34.669 30.4883C34.7763 29.6898 34.778 28.6316 34.778 27.1142V22.8859C34.778 21.3685 34.7763 20.3103 34.669 19.5118C34.5647 18.7361 34.3739 18.3254 34.0814 18.0328C33.8604 17.8119 33.5721 17.649 33.1095 17.5375C33.1924 18.395 33.1924 19.4466 33.1924 20.7137V29.2863C33.1924 30.5534 33.1924 31.6051 33.1095 32.4626ZM20.5688 15.331C19.7932 15.4353 19.3824 15.626 19.0899 15.9186C18.7973 16.2112 18.6065 16.6219 18.5023 17.3976C18.3949 18.196 18.3932 19.2543 18.3932 20.7717V29.2283C18.3932 30.7457 18.3949 31.8039 18.5023 32.6024C18.6065 33.3781 18.7973 33.7888 19.0899 34.0814C19.3824 34.3739 19.7932 34.5647 20.5688 34.669C21.3673 34.7763 22.4256 34.778 23.9429 34.778H26.0571C27.5744 34.778 28.6327 34.7763 29.4311 34.669C30.2068 34.5647 30.6176 34.3739 30.9101 34.0814C31.2027 33.7888 31.3934 33.3781 31.4977 32.6024C31.6051 31.8039 31.6068 30.7457 31.6068 29.2283V20.7717C31.6068 19.2543 31.6051 18.196 31.4977 17.3976C31.3934 16.6219 31.2027 16.2112 30.9101 15.9186C30.6176 15.626 30.2068 15.4353 29.4311 15.331C28.6327 15.2237 27.5744 15.222 26.0571 15.222H23.9429C22.4256 15.222 21.3673 15.2237 20.5688 15.331ZM21.0359 21.8287C21.0359 21.3909 21.3909 21.0359 21.8287 21.0359H28.1712C28.6091 21.0359 28.964 21.3909 28.964 21.8287C28.964 22.2666 28.6091 22.6216 28.1712 22.6216H21.8287C21.3909 22.6216 21.0359 22.2666 21.0359 21.8287ZM21.0359 26.0571C21.0359 25.6192 21.3909 25.2643 21.8287 25.2643H28.1712C28.6091 25.2643 28.964 25.6192 28.964 26.0571C28.964 26.4949 28.6091 26.8499 28.1712 26.8499H21.8287C21.3909 26.8499 21.0359 26.4949 21.0359 26.0571ZM21.0359 30.2854C21.0359 29.8475 21.3909 29.4926 21.8287 29.4926H25C25.4378 29.4926 25.7928 29.8475 25.7928 30.2854C25.7928 30.7233 25.4378 31.0782 25 31.0782H21.8287C21.3909 31.0782 21.0359 30.7233 21.0359 30.2854Z" fill="#20265C"></path></svg>