<svg xmlns="http://www.w3.org/2000/svg" width="50" height="30" viewBox="0 0 50 30" fill="none"><path d="M0.00018692 18.6867C0.00018692 8.73915 7.31209 2.81556 11.8712 0.0898113C12.4483 -0.253016 13.0716 0.460741 12.6272 0.966549C11.2075 2.57952 9.55125 4.895 8.43167 7.80621C9.44737 7.52521 10.515 7.37347 11.6173 7.37347C18.0347 7.37347 23.2344 12.4428 23.2344 18.6867C23.2344 24.9363 18.0347 30 11.6173 30C5.20566 30 0.00018692 24.9363 0.00018692 18.6867Z" fill="#20265C"></path><path d="M26.7716 18.6867C26.7716 8.73915 34.0777 2.81556 38.6368 0.0898113C39.2139 -0.253016 39.8372 0.460741 39.3928 0.966549C37.9732 2.57952 36.3169 4.895 35.1973 7.80621C36.213 7.52521 37.2806 7.37347 38.3829 7.37347C44.8003 7.37347 50 12.4428 50 18.6867C50 24.9363 44.8003 30 38.3829 30C31.9713 30 26.7716 24.9363 26.7716 18.6867Z" fill="#20265C"></path></svg>