<svg xmlns="http://www.w3.org/2000/svg" xmlns:xlink="http://www.w3.org/1999/xlink" width="182px" height="65px" viewBox="0 0 183 65"><g id="surface1"><path style=" stroke:none;fill-rule:nonzero;fill:rgb(100%,100%,100%);fill-opacity:1;" d="M 22.675781 32.597656 C 22.675781 26.53125 17.867188 21.613281 11.933594 21.613281 C 6.003906 21.613281 1.191406 26.53125 1.191406 32.597656 C 1.191406 38.660156 6.003906 43.578125 11.933594 43.578125 C 17.867188 43.578125 22.675781 38.660156 22.675781 32.597656 Z M 22.675781 32.597656 "></path><path style=" stroke:none;fill-rule:nonzero;fill:rgb(0%,69.411767%,80.392158%);fill-opacity:1;" d="M 17.644531 34.945312 L 15.878906 35.910156 L 15.878906 35.941406 C 16.382812 36.171875 16.929688 36.28125 17.484375 36.261719 C 17.894531 36.277344 18.308594 36.222656 18.703125 36.105469 L 18.703125 28.859375 L 18.21875 28.828125 L 17.613281 29.410156 L 17.613281 34.945312 Z M 3.914062 31.335938 L 3.914062 31.179688 C 3.914062 29.859375 3.945312 29.730469 5.359375 27.832031 L 5.328125 27.796875 L 4.171875 28.441406 L 3.308594 28.441406 C 2.859375 28.441406 2.699219 28.472656 2.539062 28.667969 C 2.429688 28.804688 2.382812 28.980469 2.410156 29.152344 L 2.25 29.152344 C 2.105469 28.929688 2.027344 28.675781 2.027344 28.410156 C 2.007812 28.027344 2.144531 27.65625 2.410156 27.382812 C 2.753906 27.078125 3.207031 26.9375 3.660156 26.996094 L 4.914062 27.089844 L 5.78125 26.996094 L 5.90625 27.058594 L 5.90625 34.078125 C 5.90625 34.917969 5.875 35.171875 4.078125 36.910156 L 4.109375 36.976562 L 5.714844 36.492188 L 6.707031 36.492188 L 6.707031 26.929688 L 7.191406 26.929688 L 7.191406 31.339844 L 8.988281 31.339844 L 8.988281 28.152344 L 11.265625 26.894531 L 11.394531 26.960938 L 11.136719 28.859375 L 11.136719 35.878906 L 12.226562 36.683594 L 12.226562 36.8125 L 10.558594 37.90625 L 10.429688 37.90625 L 9.019531 36.554688 L 9.019531 32.722656 L 7.21875 32.722656 L 7.21875 37.039062 L 5.871094 37.9375 L 2.730469 37.9375 L 2.667969 37.8125 C 3.882812 36.296875 3.980469 35.847656 3.980469 34.976562 L 3.980469 32.757812 L 1.960938 32.757812 L 1.929688 32.625 L 2.828125 31.371094 L 3.917969 31.371094 Z M 14.179688 32.851562 C 14.144531 33.804688 14.488281 34.730469 15.140625 35.425781 C 15.242188 35.542969 15.359375 35.640625 15.492188 35.714844 L 15.527344 35.714844 L 15.910156 35.234375 L 15.910156 29.695312 L 17.578125 28.792969 L 17.578125 28.761719 C 16.964844 28.65625 16.339844 28.59375 15.71875 28.570312 C 14.5 28.570312 14.019531 28.792969 13.664062 29.148438 C 13.441406 29.390625 13.308594 29.695312 13.28125 30.019531 L 13.023438 30.019531 C 12.902344 29.710938 12.839844 29.382812 12.832031 29.054688 C 12.816406 28.511719 13.023438 27.988281 13.410156 27.605469 C 13.890625 27.121094 14.660156 26.832031 15.878906 26.832031 C 16.777344 26.832031 18.25 27.121094 19.5 27.121094 C 20.367188 27.121094 20.625 26.992188 21.007812 26.445312 L 21.167969 26.476562 C 20.878906 28.34375 20.171875 28.859375 19.210938 28.859375 L 19.117188 28.859375 L 19.117188 35.910156 C 19.875 35.632812 20.503906 35.082031 20.878906 34.363281 L 21.039062 34.394531 C 21.011719 35.257812 20.65625 36.074219 20.046875 36.683594 C 19.171875 37.507812 18.003906 37.949219 16.804688 37.90625 C 15.648438 37.972656 14.519531 37.550781 13.691406 36.742188 C 12.859375 35.933594 12.40625 34.816406 12.445312 33.65625 C 12.433594 32.644531 12.824219 31.671875 13.535156 30.953125 C 13.996094 30.480469 14.554688 30.121094 15.167969 29.890625 L 15.265625 30.019531 C 14.574219 30.800781 14.1875 31.804688 14.175781 32.851562 M 23.734375 32.496094 C 23.773438 29.394531 22.570312 26.402344 20.398438 24.191406 C 15.632812 19.59375 8.097656 19.59375 3.335938 24.191406 C -1.113281 28.832031 -1.113281 36.160156 3.335938 40.800781 C 8.097656 45.394531 15.632812 45.394531 20.398438 40.800781 C 22.558594 38.582031 23.757812 35.597656 23.734375 32.496094 "></path><path style=" stroke:none;fill-rule:nonzero;fill:rgb(20%,20%,20%);fill-opacity:1;" d="M 32.5 41.214844 L 32.148438 41.484375 C 31.609375 41.113281 30.96875 40.925781 30.320312 40.949219 C 29.582031 40.949219 28.859375 41.121094 28.199219 41.445312 L 28.199219 41.425781 C 28.941406 40.941406 29.804688 40.691406 30.691406 40.703125 C 31.332031 40.667969 31.972656 40.851562 32.5 41.21875 M 174.402344 40.910156 C 174.421875 40.773438 174.480469 40.648438 174.566406 40.539062 C 174.800781 40.464844 175.042969 40.429688 175.285156 40.4375 C 176.3125 40.390625 177.316406 40.742188 178.085938 41.425781 L 177.753906 41.632812 C 177.054688 40.953125 175.925781 40.765625 175.164062 40.765625 C 174.902344 40.765625 174.644531 40.8125 174.398438 40.910156 M 85.03125 40.910156 C 85.054688 40.773438 85.109375 40.648438 85.195312 40.539062 C 85.429688 40.464844 85.671875 40.429688 85.917969 40.4375 C 86.890625 40.410156 87.835938 40.765625 88.550781 41.425781 L 88.222656 41.632812 C 87.542969 41.066406 86.679688 40.757812 85.796875 40.765625 C 85.535156 40.765625 85.277344 40.816406 85.035156 40.910156 M 50.667969 39.550781 C 51.265625 40.207031 51.941406 40.78125 52.683594 41.261719 L 52.273438 41.527344 C 51.542969 41.046875 50.878906 40.472656 50.296875 39.816406 Z M 148.78125 39.550781 C 149.375 40.207031 150.054688 40.78125 150.796875 41.261719 L 150.386719 41.527344 C 149.65625 41.046875 148.992188 40.472656 148.410156 39.816406 Z M 113.078125 39.550781 C 113.671875 40.207031 114.351562 40.78125 115.09375 41.261719 L 114.683594 41.527344 C 113.953125 41.046875 113.289062 40.472656 112.707031 39.816406 Z M 142.648438 39.425781 C 143.273438 40.15625 144.019531 40.777344 144.851562 41.261719 L 144.4375 41.527344 C 143.632812 41.03125 142.902344 40.414062 142.277344 39.695312 Z M 44.515625 39.425781 C 45.144531 40.152344 45.890625 40.773438 46.714844 41.261719 L 46.304688 41.527344 C 45.496094 41.03125 44.769531 40.414062 44.144531 39.695312 Z M 95.382812 39.160156 C 96.246094 40.007812 97.214844 40.738281 98.261719 41.34375 L 97.851562 41.632812 C 96.816406 41.023438 95.859375 40.28125 95.011719 39.429688 Z M 103.777344 41.53125 C 103.027344 41.085938 102.367188 40.496094 101.84375 39.800781 L 101.84375 37.777344 C 101.851562 37.171875 101.824219 36.566406 101.757812 35.964844 L 102.191406 35.800781 C 102.210938 36.296875 102.253906 36.933594 102.253906 37.574219 L 102.253906 39.652344 C 102.785156 40.304688 103.441406 40.847656 104.1875 41.238281 Z M 179.953125 39.863281 L 179.953125 36.296875 L 178.738281 35.761719 L 178.984375 35.496094 L 180.363281 36.09375 L 180.363281 40.1875 L 180.304688 40.207031 Z M 90.421875 39.863281 L 90.421875 36.296875 L 89.207031 35.761719 L 89.453125 35.496094 L 90.832031 36.09375 L 90.832031 40.1875 L 90.769531 40.207031 Z M 104.84375 36.480469 C 104.816406 35.886719 104.867188 35.292969 104.988281 34.710938 C 105.589844 34.875 106.199219 34.984375 106.820312 35.039062 L 106.820312 39.363281 C 106.488281 39.507812 106.140625 39.628906 105.851562 39.773438 C 105.492188 39.566406 105.15625 39.308594 104.863281 39.011719 L 104.863281 36.476562 Z M 34.824219 32.667969 L 37.785156 32.667969 L 37.785156 33.015625 L 34.824219 33.015625 Z M 26.960938 33.121094 L 27.332031 32.667969 L 29.613281 32.667969 L 29.613281 33.015625 L 28.625 33.015625 C 28.070312 33.003906 27.511719 33.039062 26.960938 33.121094 M 64.90625 41.261719 L 64.492188 41.527344 C 63.675781 41.03125 62.964844 40.382812 62.394531 39.613281 L 62.394531 33.714844 C 62.394531 32.316406 62.375 31.714844 62.332031 31.222656 L 62.785156 31.039062 L 62.785156 39.46875 C 63.359375 40.207031 64.082031 40.816406 64.90625 41.261719 M 102.066406 32.582031 C 102.785156 32.085938 103.464844 31.554688 104.144531 30.996094 C 104.953125 31.550781 105.863281 31.933594 106.820312 32.128906 L 106.820312 34.582031 C 104.703125 34.398438 103.179688 33.714844 102.066406 32.582031 M 168.597656 30.992188 L 168.65625 30.972656 C 169.214844 32.148438 169.882812 33.265625 170.65625 34.3125 L 168.597656 35.425781 Z M 177.792969 36.457031 L 177.527344 36.746094 L 174.8125 35.464844 L 174.8125 32.394531 C 174.808594 31.921875 174.78125 31.445312 174.730469 30.972656 L 175.222656 30.828125 L 175.222656 35.261719 Z M 88.261719 36.457031 L 87.996094 36.746094 L 85.28125 35.464844 L 85.28125 32.394531 C 85.277344 31.921875 85.25 31.445312 85.195312 30.972656 L 85.691406 30.828125 L 85.691406 35.261719 Z M 139.644531 39.507812 C 138.257812 40.96875 136.324219 41.785156 134.3125 41.753906 C 131.964844 41.753906 130.113281 40.992188 128.734375 39.652344 C 127.46875 38.386719 126.773438 36.660156 126.800781 34.871094 C 126.808594 33.3125 127.464844 31.824219 128.613281 30.769531 L 128.632812 30.789062 C 127.691406 31.863281 127.183594 33.253906 127.214844 34.683594 C 127.199219 36.445312 127.898438 38.140625 129.152344 39.382812 C 130.425781 40.660156 132.199219 41.359375 134.460938 41.359375 C 136.359375 41.425781 138.214844 40.761719 139.644531 39.503906 Z M 95.339844 30.910156 L 94.621094 30.910156 L 94.828125 30.539062 L 95.34375 30.539062 Z M 101 30.5625 L 100.671875 30.996094 C 100.03125 30.914062 99.382812 30.886719 98.738281 30.914062 L 98.738281 30.542969 L 100.960938 30.542969 Z M 168.863281 41.589844 C 167.660156 40.550781 166.550781 39.40625 165.550781 38.167969 L 165.550781 32.953125 C 165.550781 31.921875 165.492188 31.015625 165.449219 30.664062 L 165.882812 30.5625 C 165.949219 31.230469 165.976562 31.90625 165.964844 32.582031 L 165.964844 38 C 166.960938 39.210938 168.0625 40.328125 169.257812 41.339844 Z M 109.128906 41.261719 L 108.71875 41.527344 C 108.078125 40.996094 107.523438 40.371094 107.070312 39.671875 L 107.070312 31.941406 C 106.082031 31.746094 105.144531 31.355469 104.3125 30.789062 L 104.601562 30.5 C 105.46875 31.078125 106.441406 31.484375 107.460938 31.695312 L 107.460938 39.503906 C 107.945312 40.15625 108.503906 40.742188 109.128906 41.257812 M 58.570312 41.257812 L 58.15625 41.527344 C 57.519531 41.074219 56.9375 40.550781 56.429688 39.960938 L 56.429688 31.488281 C 56.164062 31.105469 55.828125 30.777344 55.441406 30.519531 L 55.8125 30.355469 C 56.214844 30.632812 56.5625 30.980469 56.839844 31.386719 L 56.839844 39.816406 C 57.355469 40.367188 57.9375 40.851562 58.570312 41.257812 M 120.957031 41.257812 L 120.546875 41.527344 C 119.910156 41.074219 119.328125 40.550781 118.820312 39.960938 L 118.820312 31.488281 C 118.554688 31.105469 118.21875 30.777344 117.832031 30.519531 L 118.203125 30.355469 C 118.605469 30.632812 118.953125 30.980469 119.230469 31.386719 L 119.230469 39.816406 C 119.75 40.359375 120.328125 40.84375 120.957031 41.257812 M 156.679688 41.257812 L 156.269531 41.527344 C 155.632812 41.074219 155.050781 40.550781 154.542969 39.960938 L 154.542969 31.488281 C 154.277344 31.105469 153.941406 30.777344 153.554688 30.519531 L 153.921875 30.355469 C 154.328125 30.632812 154.675781 30.980469 154.953125 31.386719 L 154.953125 39.816406 C 155.472656 40.359375 156.050781 40.84375 156.679688 41.257812 M 162.238281 41.257812 L 161.824219 41.527344 C 161.1875 41.074219 160.609375 40.550781 160.097656 39.960938 L 160.097656 31.488281 C 159.824219 31.09375 159.472656 30.753906 159.066406 30.496094 L 159.4375 30.332031 C 159.84375 30.625 160.195312 30.976562 160.488281 31.382812 L 160.488281 39.8125 C 161.019531 40.355469 161.605469 40.835938 162.238281 41.257812 M 113.285156 39.15625 L 113.285156 31.425781 C 113.046875 31.070312 112.757812 30.75 112.421875 30.476562 L 112.773438 30.292969 C 113.121094 30.574219 113.433594 30.898438 113.699219 31.261719 L 113.699219 38.847656 L 113.328125 39.136719 L 113.289062 39.136719 Z M 142.855469 39.011719 L 142.855469 31.429688 C 142.613281 31.074219 142.320312 30.757812 141.992188 30.480469 L 142.34375 30.292969 C 142.691406 30.578125 143.003906 30.902344 143.269531 31.261719 L 143.269531 38.722656 L 142.898438 39.011719 Z M 74.496094 39.464844 C 75.050781 40.210938 75.769531 40.816406 76.597656 41.238281 L 76.183594 41.503906 C 75.351562 41.03125 74.632812 40.375 74.085938 39.585938 L 74.085938 31.117188 C 73.808594 30.863281 73.5 30.648438 73.160156 30.480469 L 73.511719 30.296875 C 73.859375 30.496094 74.183594 30.738281 74.476562 31.015625 L 74.476562 39.464844 Z M 149.011719 39.15625 L 149.011719 31.425781 C 148.773438 31.070312 148.480469 30.75 148.148438 30.476562 L 148.496094 30.292969 C 148.84375 30.574219 149.15625 30.898438 149.421875 31.261719 L 149.421875 38.84375 L 149.050781 39.132812 L 149.011719 39.132812 Z M 44.746094 39.011719 L 44.746094 31.429688 C 44.5 31.074219 44.210938 30.757812 43.878906 30.480469 L 44.230469 30.292969 C 44.578125 30.578125 44.890625 30.902344 45.15625 31.265625 L 45.15625 38.722656 L 44.785156 39.011719 Z M 50.875 39.15625 L 50.875 31.425781 C 50.640625 31.070312 50.347656 30.75 50.011719 30.476562 L 50.363281 30.292969 C 50.710938 30.574219 51.023438 30.898438 51.289062 31.261719 L 51.289062 38.847656 L 50.917969 39.136719 L 50.878906 39.136719 Z M 79.644531 30.808594 C 79.460938 30.648438 79.261719 30.511719 79.046875 30.394531 L 79.398438 30.210938 C 79.632812 30.347656 79.84375 30.511719 80.035156 30.707031 L 80.035156 39.507812 C 80.476562 40.183594 81.035156 40.773438 81.679688 41.257812 L 81.269531 41.527344 C 80.59375 41.007812 80.03125 40.355469 79.621094 39.609375 L 79.621094 30.808594 Z M 65.527344 32.929688 C 65.527344 31.175781 65.589844 30.5 65.796875 29.878906 C 66.308594 30.167969 66.90625 30.515625 67.625 30.949219 L 67.625 39.296875 C 67.253906 39.441406 66.863281 39.585938 66.515625 39.75 C 66.148438 39.53125 65.816406 39.257812 65.527344 38.945312 Z M 181.832031 31.363281 L 181.546875 31.734375 C 181.375 31.792969 181.195312 31.820312 181.011719 31.816406 C 179.726562 31.816406 178.503906 31.242188 177.679688 30.25 L 177.679688 29.839844 L 177.742188 29.839844 C 178.574219 30.855469 179.820312 31.453125 181.136719 31.464844 C 181.375 31.457031 181.613281 31.410156 181.835938 31.320312 Z M 92.324219 31.363281 L 92.035156 31.734375 C 91.863281 31.792969 91.683594 31.820312 91.5 31.816406 C 90.214844 31.816406 88.992188 31.242188 88.167969 30.25 L 88.167969 29.839844 L 88.230469 29.839844 C 89.066406 30.855469 90.308594 31.453125 91.625 31.464844 C 91.863281 31.457031 92.101562 31.410156 92.324219 31.320312 Z M 170.867188 34.207031 C 170 32.992188 169.242188 31.703125 168.601562 30.355469 L 168.601562 29.71875 L 168.664062 29.699219 C 169.355469 31.234375 170.210938 32.691406 171.214844 34.046875 Z M 153.433594 39.9375 L 153.269531 39.671875 C 153.0625 39.753906 152.855469 39.835938 152.671875 39.921875 C 152.480469 39.820312 152.300781 39.695312 152.136719 39.550781 L 152.136719 31.179688 C 152.488281 30.996094 152.898438 30.808594 153.292969 30.644531 C 153.679688 30.894531 154.015625 31.214844 154.28125 31.59375 L 154.28125 40.128906 C 154.847656 40.8125 155.515625 41.410156 156.253906 41.898438 L 156.316406 41.898438 C 157.257812 41.183594 158.242188 40.519531 159.261719 39.921875 L 159.097656 39.65625 L 158.519531 39.902344 C 158.203125 39.722656 157.917969 39.492188 157.675781 39.222656 L 157.675781 31.183594 C 158.023438 30.996094 158.4375 30.8125 158.828125 30.648438 C 159.214844 30.898438 159.550781 31.21875 159.816406 31.597656 L 159.816406 40.128906 C 160.386719 40.8125 161.050781 41.410156 161.792969 41.902344 L 161.855469 41.902344 C 162.921875 41.097656 163.765625 40.5 165.003906 39.738281 L 164.835938 39.472656 C 164.574219 39.601562 164.308594 39.71875 164.035156 39.820312 C 163.730469 39.679688 163.457031 39.476562 163.234375 39.222656 L 163.234375 30.769531 C 162.75 29.859375 162.011719 29.105469 161.113281 28.605469 L 161.050781 28.605469 C 159.8125 29.117188 158.65625 29.820312 157.632812 30.6875 C 157.160156 29.804688 156.4375 29.078125 155.554688 28.605469 L 155.492188 28.605469 C 154.261719 29.105469 153.125 29.800781 152.117188 30.667969 C 151.617188 29.871094 150.976562 29.171875 150.226562 28.605469 L 150.164062 28.605469 C 148.945312 29.246094 147.804688 30.027344 146.769531 30.933594 L 146.972656 31.179688 C 147.242188 30.996094 147.570312 30.808594 147.859375 30.644531 C 148.164062 30.914062 148.449219 31.210938 148.703125 31.53125 L 148.703125 39.300781 C 148.457031 39.484375 148.25 39.648438 148.023438 39.816406 L 148.023438 39.878906 C 148.703125 40.652344 149.488281 41.328125 150.347656 41.898438 L 150.410156 41.898438 C 151.371094 41.179688 152.382812 40.523438 153.429688 39.9375 M 49.636719 39.710938 L 49.472656 39.445312 C 49.125 39.589844 48.835938 39.710938 48.546875 39.859375 C 48.296875 39.71875 48.0625 39.554688 47.847656 39.363281 L 47.847656 30.667969 C 47.359375 29.855469 46.71875 29.148438 45.957031 28.582031 L 45.894531 28.582031 C 44.675781 29.226562 43.535156 30.003906 42.5 30.910156 L 42.703125 31.160156 C 42.988281 30.964844 43.285156 30.789062 43.589844 30.625 C 43.894531 30.894531 44.179688 31.191406 44.433594 31.511719 L 44.433594 39.117188 C 44.214844 39.304688 43.988281 39.484375 43.753906 39.648438 L 43.753906 39.710938 C 44.46875 40.566406 45.316406 41.296875 46.265625 41.875 L 46.324219 41.875 C 47.457031 41.070312 48.320312 40.496094 49.636719 39.710938 M 117.976562 39.792969 L 117.8125 39.527344 C 117.484375 39.671875 117.214844 39.773438 116.929688 39.898438 C 116.742188 39.792969 116.570312 39.671875 116.414062 39.527344 L 116.414062 31.160156 C 116.761719 30.976562 117.175781 30.789062 117.566406 30.628906 C 117.953125 30.875 118.289062 31.199219 118.554688 31.574219 L 118.554688 40.109375 C 119.125 40.792969 119.789062 41.386719 120.53125 41.878906 L 120.59375 41.878906 C 121.597656 41.09375 122.648438 40.371094 123.742188 39.714844 L 123.578125 39.449219 C 123.316406 39.578125 123.046875 39.695312 122.773438 39.800781 C 122.46875 39.660156 122.195312 39.453125 121.972656 39.203125 L 121.972656 30.746094 C 121.488281 29.835938 120.75 29.085938 119.851562 28.582031 L 119.789062 28.582031 C 118.5625 29.082031 117.421875 29.777344 116.414062 30.644531 C 115.914062 29.847656 115.273438 29.148438 114.523438 28.582031 L 114.460938 28.582031 C 113.242188 29.222656 112.101562 30.003906 111.0625 30.910156 L 111.269531 31.160156 C 111.554688 30.964844 111.851562 30.789062 112.15625 30.625 C 112.460938 30.894531 112.746094 31.191406 113 31.511719 L 113 39.28125 C 112.78125 39.464844 112.554688 39.636719 112.320312 39.792969 L 112.320312 39.855469 C 113.003906 40.628906 113.785156 41.308594 114.644531 41.878906 L 114.707031 41.878906 C 115.75 41.113281 116.84375 40.417969 117.976562 39.792969 M 77.214844 30.378906 C 76.652344 29.683594 75.988281 29.085938 75.238281 28.605469 L 75.175781 28.605469 C 73.984375 29.328125 73.242188 29.902344 72.027344 30.769531 L 72.191406 31.035156 C 72.4375 30.890625 72.6875 30.769531 72.910156 30.625 C 73.234375 30.796875 73.53125 31.011719 73.796875 31.261719 L 73.796875 39.734375 C 74.414062 40.605469 75.214844 41.328125 76.144531 41.855469 L 76.207031 41.855469 C 77.195312 41.132812 78.285156 40.390625 79.332031 39.753906 C 79.851562 40.554688 80.5 41.261719 81.246094 41.855469 L 81.308594 41.855469 C 82.378906 41.070312 83.570312 40.207031 84.582031 39.566406 L 84.414062 39.300781 C 84.085938 39.441406 83.796875 39.585938 83.488281 39.730469 C 83.226562 39.546875 82.984375 39.332031 82.769531 39.09375 L 82.769531 31.179688 C 83.015625 30.996094 83.203125 30.828125 83.449219 30.664062 L 83.449219 30.601562 C 82.734375 29.863281 81.957031 29.1875 81.125 28.582031 L 81.066406 28.582031 C 79.832031 29.304688 78.984375 29.863281 77.792969 30.683594 L 77.957031 30.953125 L 78.761719 30.519531 C 78.972656 30.636719 79.171875 30.773438 79.355469 30.929688 L 79.355469 39.277344 C 78.945312 39.445312 78.574219 39.609375 78.203125 39.773438 C 77.839844 39.554688 77.503906 39.28125 77.214844 38.96875 Z M 147.773438 39.714844 L 147.609375 39.449219 C 147.257812 39.59375 146.972656 39.714844 146.683594 39.859375 C 146.429688 39.722656 146.195312 39.554688 145.984375 39.363281 L 145.984375 30.664062 C 145.496094 29.851562 144.851562 29.144531 144.089844 28.582031 L 144.027344 28.582031 C 142.8125 29.222656 141.671875 30.003906 140.632812 30.910156 L 140.839844 31.15625 C 141.125 30.964844 141.421875 30.785156 141.722656 30.621094 C 142.03125 30.894531 142.3125 31.1875 142.566406 31.507812 L 142.566406 39.113281 C 142.351562 39.304688 142.125 39.484375 141.886719 39.648438 L 141.886719 39.710938 C 142.601562 40.5625 143.449219 41.292969 144.398438 41.875 L 144.460938 41.875 C 145.527344 41.09375 146.632812 40.371094 147.773438 39.710938 M 55.566406 39.792969 L 55.402344 39.527344 C 55.074219 39.671875 54.804688 39.773438 54.515625 39.898438 C 54.332031 39.792969 54.160156 39.667969 54.003906 39.527344 L 54.003906 31.160156 C 54.351562 30.972656 54.765625 30.789062 55.15625 30.625 C 55.542969 30.875 55.878906 31.195312 56.144531 31.574219 L 56.144531 40.105469 C 56.714844 40.789062 57.378906 41.386719 58.121094 41.878906 L 58.179688 41.878906 C 59.183594 41.09375 60.238281 40.371094 61.328125 39.714844 L 61.164062 39.449219 C 60.902344 39.578125 60.636719 39.695312 60.363281 39.800781 C 60.054688 39.65625 59.78125 39.453125 59.558594 39.199219 L 59.558594 30.746094 C 59.074219 29.835938 58.339844 29.085938 57.441406 28.582031 L 57.378906 28.582031 C 56.152344 29.082031 55.011719 29.777344 54.003906 30.644531 C 53.503906 29.847656 52.863281 29.148438 52.113281 28.582031 L 52.050781 28.582031 C 50.832031 29.222656 49.691406 30.003906 48.65625 30.910156 L 48.859375 31.160156 C 49.144531 30.964844 49.441406 30.789062 49.746094 30.625 C 50.050781 30.894531 50.335938 31.191406 50.589844 31.511719 L 50.589844 39.28125 C 50.375 39.464844 50.148438 39.636719 49.910156 39.792969 L 49.910156 39.855469 C 50.59375 40.628906 51.375 41.308594 52.234375 41.878906 L 52.296875 41.878906 C 53.34375 41.117188 54.4375 40.421875 55.570312 39.792969 M 168.601562 36.742188 L 168.601562 36.105469 L 173.746094 33.34375 L 173.746094 33.261719 C 172.65625 31.757812 171.660156 30.183594 170.761719 28.558594 L 170.699219 28.558594 C 168.890625 29.332031 167.027344 29.964844 165.121094 30.457031 C 165.246094 31.355469 165.300781 32.265625 165.285156 33.175781 L 165.285156 38.289062 C 166.324219 39.597656 167.488281 40.796875 168.765625 41.871094 L 168.867188 41.871094 C 170.4375 40.832031 172.058594 39.867188 173.726562 38.988281 L 173.476562 38.617188 C 172.695312 38.988281 172.058594 39.316406 171.417969 39.605469 C 170.390625 38.746094 169.445312 37.785156 168.601562 36.742188 M 108.695312 41.878906 L 108.757812 41.878906 C 109.828125 41.09375 111.023438 40.226562 112.03125 39.589844 L 111.867188 39.320312 C 111.539062 39.464844 111.25 39.609375 110.941406 39.753906 C 110.675781 39.570312 110.4375 39.355469 110.222656 39.117188 L 110.222656 32.6875 C 110.175781 31.921875 110.230469 31.152344 110.386719 30.398438 C 109.007812 30.070312 106.824219 29.203125 105.941406 28.566406 L 105.878906 28.566406 C 104.578125 30.089844 103.058594 31.410156 101.371094 32.484375 L 101.371094 32.566406 C 102.203125 33.550781 103.316406 34.253906 104.558594 34.585938 C 103.546875 35.078125 102.5 35.503906 101.433594 35.863281 C 101.53125 36.546875 101.578125 37.234375 101.578125 37.925781 L 101.578125 39.980469 C 102.152344 40.777344 102.898438 41.441406 103.757812 41.917969 L 103.820312 41.917969 C 104.785156 41.214844 105.835938 40.515625 106.867188 39.855469 C 107.363281 40.621094 107.980469 41.304688 108.695312 41.875 M 177.773438 41.9375 C 179.355469 40.847656 181.109375 40.03125 182.960938 39.523438 C 182.851562 39.039062 182.804688 38.539062 182.816406 38.039062 L 182.816406 34.703125 L 179.625 33.304688 L 179.542969 33.304688 L 178.617188 34.332031 L 177.648438 33.898438 L 177.648438 30.664062 C 178.5 31.5625 179.683594 32.070312 180.921875 32.066406 C 181.15625 32.058594 181.390625 32.03125 181.621094 31.984375 C 182.492188 31.0625 183.015625 29.867188 183.101562 28.601562 C 182.964844 28.582031 182.828125 28.582031 182.691406 28.601562 C 182.691406 28.839844 182.664062 29.074219 182.609375 29.304688 C 182.359375 29.410156 182.09375 29.464844 181.828125 29.46875 C 181 29.449219 180.207031 29.109375 179.625 28.519531 L 179.5625 28.519531 C 177.976562 29.566406 176.222656 30.335938 174.378906 30.789062 C 174.488281 31.386719 174.535156 31.992188 174.523438 32.601562 L 174.523438 35.652344 L 177.503906 37.015625 L 177.585938 37.015625 L 178.535156 35.964844 L 179.664062 36.460938 L 179.664062 39.675781 C 178.636719 38.824219 177.335938 38.371094 176.003906 38.394531 C 175.769531 38.402344 175.535156 38.429688 175.304688 38.476562 C 174.429688 39.40625 173.90625 40.609375 173.820312 41.878906 C 173.957031 41.898438 174.097656 41.898438 174.234375 41.878906 C 174.234375 41.644531 174.261719 41.410156 174.316406 41.179688 C 174.5625 41.074219 174.828125 41.015625 175.097656 41.015625 C 176.058594 40.980469 176.996094 41.320312 177.710938 41.960938 L 177.773438 41.960938 Z M 88.242188 41.9375 C 89.824219 40.847656 91.578125 40.03125 93.425781 39.523438 C 93.320312 39.039062 93.273438 38.539062 93.285156 38.039062 L 93.285156 34.703125 L 90.09375 33.304688 L 90.011719 33.304688 L 89.085938 34.332031 L 88.117188 33.898438 L 88.117188 30.664062 C 88.96875 31.5625 90.152344 32.070312 91.390625 32.066406 C 91.625 32.058594 91.859375 32.03125 92.089844 31.984375 C 92.960938 31.0625 93.488281 29.867188 93.570312 28.601562 C 93.433594 28.582031 93.296875 28.582031 93.160156 28.601562 C 93.160156 28.839844 93.132812 29.074219 93.078125 29.304688 C 92.832031 29.410156 92.566406 29.464844 92.296875 29.46875 C 91.46875 29.449219 90.679688 29.109375 90.09375 28.519531 L 90.054688 28.519531 C 88.464844 29.566406 86.710938 30.335938 84.867188 30.789062 C 84.976562 31.386719 85.023438 31.992188 85.011719 32.601562 L 85.011719 35.652344 L 87.996094 37.015625 L 88.078125 37.015625 L 89.023438 35.964844 L 90.15625 36.460938 L 90.15625 39.675781 C 89.179688 38.84375 87.9375 38.390625 86.65625 38.394531 C 86.421875 38.402344 86.1875 38.429688 85.957031 38.476562 C 85.082031 39.40625 84.558594 40.609375 84.472656 41.878906 C 84.609375 41.898438 84.75 41.898438 84.886719 41.878906 C 84.886719 41.644531 84.914062 41.40625 84.96875 41.179688 C 85.214844 41.070312 85.480469 41.015625 85.75 41.011719 C 86.65625 41.007812 87.53125 41.347656 88.199219 41.960938 L 88.238281 41.960938 Z M 132.730469 38.472656 L 132.710938 38.453125 C 132.875 38.019531 132.894531 37.730469 132.894531 36.640625 L 132.894531 30.664062 C 132.898438 29.984375 132.835938 29.308594 132.710938 28.644531 L 133.144531 28.457031 C 133.253906 29.125 133.308594 29.800781 133.308594 30.476562 L 133.308594 36.332031 C 133.289062 37.734375 133.183594 38.023438 132.730469 38.476562 M 69.953125 41.261719 L 69.542969 41.527344 C 68.894531 40.980469 68.339844 40.332031 67.894531 39.609375 L 67.894531 30.808594 C 63.65625 28.398438 63.183594 28.128906 62.773438 27.945312 L 62.667969 27.347656 L 62.6875 27.347656 L 68.285156 30.644531 L 68.285156 39.421875 C 68.746094 40.113281 69.308594 40.734375 69.953125 41.257812 M 135.863281 28.910156 C 135.863281 27.941406 135.882812 27.613281 136.292969 27.199219 C 136.480469 27.21875 136.871094 27.285156 137.097656 27.304688 L 137.097656 38.949219 C 136.507812 39.113281 135.898438 39.199219 135.285156 39.195312 C 134.417969 39.203125 133.554688 39.058594 132.734375 38.761719 C 133.886719 38.308594 135.082031 37.792969 136.007812 37.339844 C 135.910156 36.671875 135.863281 35.996094 135.863281 35.320312 Z M 95.613281 30.003906 C 95.613281 28.871094 95.550781 27.945312 95.511719 27.449219 L 96.003906 27.097656 L 96.023438 27.097656 L 96.023438 38.496094 L 95.65625 38.785156 L 95.613281 38.785156 Z M 31.53125 26.625 C 30.421875 28.191406 30.238281 28.542969 30.238281 30.460938 L 30.238281 35.652344 C 30.238281 38.023438 30.136719 38.972656 28.507812 40.867188 L 28.488281 40.847656 C 29.804688 39.117188 29.847656 38.167969 29.847656 35.777344 L 29.847656 30.5625 C 29.847656 28.644531 30.054688 28.292969 31.515625 26.625 Z M 40.339844 41.257812 L 39.929688 41.527344 C 39.214844 41.054688 38.574219 40.480469 38.035156 39.816406 L 38.035156 28.828125 C 38.054688 28.042969 37.992188 27.253906 37.851562 26.480469 L 38.34375 26.128906 C 38.433594 26.964844 38.464844 27.804688 38.449219 28.640625 L 38.449219 39.652344 C 38.988281 40.285156 39.628906 40.828125 40.339844 41.261719 M 31.714844 25.59375 L 31.738281 25.613281 C 31.296875 25.972656 30.757812 26.179688 30.195312 26.210938 C 29.597656 26.210938 29.082031 25.921875 28.546875 25.921875 C 28.066406 25.910156 27.601562 26.089844 27.25 26.417969 C 27.117188 26.542969 27.007812 26.691406 26.921875 26.851562 L 26.902344 26.851562 C 26.964844 26.566406 27.109375 26.300781 27.316406 26.089844 C 27.683594 25.753906 28.171875 25.574219 28.671875 25.59375 C 29.25 25.59375 29.828125 25.882812 30.441406 25.882812 C 30.882812 25.882812 31.320312 25.78125 31.71875 25.59375 M 44.269531 25.347656 C 44.769531 25.988281 45.3125 26.59375 45.894531 27.160156 L 45.566406 27.367188 C 44.984375 26.808594 44.457031 26.203125 43.980469 25.554688 Z M 142.691406 25.328125 C 143.203125 25.96875 143.753906 26.582031 144.335938 27.160156 L 144.007812 27.367188 C 143.421875 26.796875 142.878906 26.183594 142.382812 25.535156 Z M 127.398438 28.75 C 127.507812 28.167969 127.777344 27.632812 128.183594 27.203125 C 128.945312 26.441406 130.074219 26.070312 131.578125 26.070312 C 133.925781 26.070312 136.722656 26.789062 138.554688 26.789062 C 139.5 26.789062 140.28125 26.378906 140.917969 25.246094 L 140.980469 25.265625 C 140.300781 26.644531 139.5 27.121094 138.449219 27.121094 C 136.621094 27.121094 133.859375 26.398438 131.472656 26.398438 C 129.992188 26.398438 128.941406 26.769531 128.203125 27.511719 C 127.851562 27.851562 127.585938 28.269531 127.421875 28.726562 L 127.398438 28.726562 Z M 98.960938 24.957031 L 98.859375 24.894531 C 97.316406 25.863281 96.101562 26.707031 95.21875 27.386719 C 95.285156 27.914062 95.320312 28.445312 95.320312 28.976562 C 95 29.703125 94.628906 30.402344 94.210938 31.078125 L 94.269531 31.160156 L 95.320312 31.160156 L 95.320312 38.910156 C 95.074219 39.09375 94.886719 39.238281 94.640625 39.40625 L 94.640625 39.464844 C 95.566406 40.449219 96.628906 41.292969 97.789062 41.980469 L 97.851562 41.980469 C 98.890625 41.199219 99.992188 40.503906 101.144531 39.898438 L 100.980469 39.632812 C 100.734375 39.730469 100.492188 39.839844 100.257812 39.960938 C 99.722656 39.679688 99.207031 39.355469 98.714844 38.992188 L 98.714844 31.179688 L 98.859375 31.179688 C 99.5 31.171875 100.136719 31.199219 100.773438 31.261719 C 101.761719 29.964844 102.191406 29.242188 102.359375 28.769531 L 102.296875 28.707031 C 101.492188 28.8125 100.679688 28.859375 99.871094 28.851562 L 98.714844 28.851562 C 98.71875 27.546875 98.800781 26.246094 98.960938 24.957031 M 69.515625 41.878906 L 69.578125 41.878906 C 70.648438 41.09375 71.839844 40.289062 72.851562 39.628906 L 72.683594 39.363281 C 72.355469 39.507812 72.066406 39.652344 71.757812 39.796875 C 71.496094 39.597656 71.253906 39.371094 71.039062 39.117188 L 71.039062 32.476562 C 71.039062 31.054688 71.101562 30.355469 71.144531 29.800781 C 64.90625 25.945312 63.160156 24.75 62.210938 23.679688 L 62.109375 23.699219 C 62.09375 25.1875 62.246094 26.671875 62.5625 28.128906 C 63.5 28.554688 64.40625 29.042969 65.277344 29.59375 C 64.25 30.109375 63.097656 30.621094 62.007812 31.078125 C 62.09375 31.980469 62.128906 32.890625 62.109375 33.796875 L 62.109375 39.734375 C 62.726562 40.605469 63.527344 41.328125 64.457031 41.855469 L 64.519531 41.855469 C 65.484375 41.152344 66.578125 40.433594 67.625 39.773438 C 68.128906 40.578125 68.769531 41.289062 69.519531 41.875 M 45.523438 27.71875 L 45.585938 27.71875 C 46.574219 27.039062 47.230469 26.5625 48.09375 25.863281 L 48.09375 25.800781 C 47.503906 25.046875 46.871094 24.324219 46.203125 23.636719 L 46.140625 23.636719 C 45.339844 24.214844 44.496094 24.792969 43.609375 25.535156 L 43.609375 25.59375 C 44.175781 26.363281 44.820312 27.074219 45.523438 27.71875 M 143.902344 27.71875 L 143.964844 27.71875 C 144.953125 27.035156 145.609375 26.5625 146.476562 25.863281 L 146.476562 25.800781 C 145.882812 25.046875 145.253906 24.324219 144.582031 23.636719 L 144.519531 23.636719 C 143.71875 24.214844 142.875 24.792969 141.988281 25.535156 L 141.988281 25.59375 C 142.5625 26.355469 143.203125 27.066406 143.902344 27.71875 M 34.785156 40.144531 L 34.804688 40.085938 L 34.804688 33.261719 L 37.785156 33.261719 L 37.785156 39.960938 C 38.398438 40.695312 39.113281 41.339844 39.90625 41.878906 L 39.96875 41.878906 C 41.109375 41.023438 42.296875 40.242188 43.527344 39.527344 L 43.363281 39.238281 C 43.011719 39.382812 42.726562 39.527344 42.414062 39.671875 C 42.011719 39.476562 41.65625 39.1875 41.386719 38.828125 L 41.386719 27.574219 C 41.351562 26.261719 41.496094 24.949219 41.820312 23.679688 L 41.71875 23.617188 C 40.242188 24.4375 38.84375 25.390625 37.539062 26.460938 C 37.734375 27.25 37.816406 28.058594 37.785156 28.871094 L 37.785156 30.953125 L 34.828125 30.953125 L 34.828125 27.390625 C 34.828125 25.332031 34.96875 24.773438 35.320312 23.699219 L 35.238281 23.679688 C 34.519531 24.671875 34.273438 25.511719 34.273438 27.597656 L 34.273438 39.695312 C 33.769531 39.4375 33.210938 39.308594 32.648438 39.324219 C 31.878906 39.328125 31.117188 39.476562 30.402344 39.757812 L 30.382812 39.738281 C 33.015625 37.386719 33.101562 36.976562 33.101562 35.265625 L 33.101562 27.964844 C 33.101562 25.800781 33.367188 24.851562 33.941406 23.800781 L 33.859375 23.71875 C 33.359375 24.03125 32.785156 24.199219 32.195312 24.214844 C 31.390625 24.214844 30.300781 23.800781 29.335938 23.800781 C 28.632812 23.785156 27.953125 24.042969 27.441406 24.523438 C 26.980469 24.988281 26.722656 25.621094 26.722656 26.277344 C 26.722656 26.632812 26.777344 26.988281 26.886719 27.328125 L 26.949219 27.328125 C 27.023438 27.066406 27.164062 26.832031 27.359375 26.644531 C 27.660156 26.351562 28.070312 26.195312 28.492188 26.214844 C 29.128906 26.214844 29.5625 26.480469 30.160156 26.480469 C 30.753906 26.480469 31.226562 26.273438 32.15625 25.632812 L 32.175781 25.65625 C 29.746094 28.191406 29.664062 28.644531 29.664062 30.601562 L 29.664062 30.953125 C 29.292969 30.9375 28.921875 30.902344 28.554688 30.847656 C 27.835938 31.640625 27.167969 32.484375 26.554688 33.363281 L 26.617188 33.425781 C 27.273438 33.324219 27.933594 33.273438 28.59375 33.28125 L 29.664062 33.28125 L 29.664062 36.621094 C 29.664062 38.679688 29.375 39.527344 27.648438 41.75 L 27.730469 41.855469 C 28.578125 41.472656 29.496094 41.269531 30.425781 41.257812 C 31.054688 41.226562 31.667969 41.449219 32.132812 41.875 L 32.195312 41.875 C 32.980469 41.1875 33.851562 40.609375 34.789062 40.144531 M 129.460938 33.550781 C 129.46875 31.804688 130.183594 30.140625 131.4375 28.933594 L 131.355469 28.832031 C 130.171875 29.21875 129.101562 29.882812 128.226562 30.765625 C 127.128906 31.882812 126.515625 33.386719 126.519531 34.949219 C 126.480469 36.761719 127.199219 38.507812 128.496094 39.773438 C 129.894531 41.175781 131.828125 41.976562 134.238281 41.976562 C 136.207031 42.046875 138.117188 41.300781 139.523438 39.917969 C 140.621094 38.789062 141.246094 37.285156 141.273438 35.710938 L 141.132812 35.691406 C 140.382812 37.101562 139.144531 38.183594 137.652344 38.746094 L 137.652344 27.351562 C 138.066406 27.371094 138.289062 27.371094 138.414062 27.371094 C 139.980469 27.371094 141.171875 26.382812 141.789062 23.351562 L 141.644531 23.289062 C 141.046875 24.09375 140.265625 24.359375 139.15625 24.359375 C 137.34375 24.359375 134.382812 23.640625 132.179688 23.640625 C 130.453125 23.640625 128.992188 24.175781 128.023438 25.144531 C 127.328125 25.8125 126.949219 26.738281 126.972656 27.703125 C 126.976562 28.277344 127.097656 28.84375 127.324219 29.371094 L 127.40625 29.371094 C 127.539062 28.75 127.847656 28.175781 128.289062 27.722656 C 128.988281 27.019531 129.996094 26.609375 131.417969 26.609375 C 132.902344 26.652344 134.378906 26.804688 135.84375 27.0625 C 134.730469 27.476562 133.308594 28.050781 132.382812 28.484375 C 132.53125 29.238281 132.601562 30.003906 132.589844 30.773438 L 132.589844 37.015625 C 132.589844 37.863281 132.570312 38.210938 132.324219 38.523438 C 131.882812 38.320312 131.480469 38.046875 131.128906 37.71875 C 130.023438 36.617188 129.417969 35.109375 129.457031 33.550781 "></path></g></svg>