<svg xmlns="http://www.w3.org/2000/svg" xmlns:xlink="http://www.w3.org/1999/xlink" width="182px" height="65px" viewBox="0 0 183 65"><g id="surface1"><path style=" stroke:none;fill-rule:nonzero;fill:rgb(93.333334%,20.392157%,23.137255%);fill-opacity:1;" d="M 23.425781 55.929688 C 36.359375 55.929688 46.847656 45.421875 46.847656 32.460938 C 46.847656 19.503906 36.359375 8.996094 23.425781 8.996094 C 10.488281 8.996094 0 19.503906 0 32.460938 C 0 45.421875 10.488281 55.929688 23.425781 55.929688 Z M 23.425781 55.929688 "></path><path style=" stroke:none;fill-rule:nonzero;fill:rgb(100%,100%,100%);fill-opacity:1;" d="M 21.667969 22.03125 L 11.03125 22.03125 C 10.550781 22.03125 10.09375 22.222656 9.753906 22.5625 C 9.414062 22.902344 9.222656 23.363281 9.222656 23.84375 C 9.222656 24.324219 9.414062 24.785156 9.753906 25.121094 C 10.09375 25.464844 10.550781 25.65625 11.03125 25.65625 L 21.667969 25.65625 C 22.148438 25.65625 22.605469 25.464844 22.945312 25.125 C 23.285156 24.785156 23.472656 24.324219 23.472656 23.84375 C 23.472656 23.363281 23.285156 22.902344 22.945312 22.566406 C 22.605469 22.226562 22.148438 22.035156 21.667969 22.035156 Z M 21.667969 27.765625 L 11.03125 27.765625 C 10.550781 27.765625 10.09375 27.957031 9.753906 28.296875 C 9.414062 28.636719 9.222656 29.09375 9.222656 29.578125 C 9.222656 30.058594 9.414062 30.515625 9.753906 30.855469 C 10.09375 31.195312 10.550781 31.386719 11.03125 31.386719 L 21.667969 31.386719 C 22.148438 31.386719 22.605469 31.195312 22.945312 30.855469 C 23.285156 30.515625 23.472656 30.058594 23.472656 29.578125 C 23.472656 29.09375 23.285156 28.636719 22.945312 28.296875 C 22.605469 27.957031 22.148438 27.765625 21.667969 27.765625 Z M 21.667969 33.496094 L 11.03125 33.496094 C 10.550781 33.496094 10.09375 33.6875 9.753906 34.027344 C 9.414062 34.367188 9.222656 34.828125 9.222656 35.308594 C 9.222656 35.789062 9.414062 36.246094 9.753906 36.585938 C 10.09375 36.929688 10.550781 37.117188 11.03125 37.117188 L 21.667969 37.117188 C 22.148438 37.117188 22.605469 36.929688 22.945312 36.585938 C 23.285156 36.25 23.472656 35.789062 23.472656 35.308594 C 23.472656 34.828125 23.285156 34.367188 22.945312 34.027344 C 22.605469 33.691406 22.148438 33.496094 21.667969 33.496094 Z M 21.667969 39.230469 L 11.03125 39.230469 C 10.566406 39.246094 10.125 39.449219 9.800781 39.785156 C 9.480469 40.121094 9.300781 40.570312 9.300781 41.039062 C 9.300781 41.503906 9.480469 41.953125 9.800781 42.292969 C 10.125 42.628906 10.566406 42.828125 11.03125 42.847656 L 21.667969 42.847656 C 22.148438 42.847656 22.605469 42.65625 22.945312 42.320312 C 23.285156 41.976562 23.472656 41.519531 23.472656 41.039062 C 23.472656 40.558594 23.285156 40.097656 22.945312 39.757812 C 22.605469 39.417969 22.148438 39.230469 21.667969 39.230469 Z M 36.980469 31.335938 L 27.558594 25.878906 C 27.363281 25.769531 27.144531 25.710938 26.921875 25.710938 C 26.695312 25.710938 26.476562 25.769531 26.285156 25.882812 C 26.089844 25.996094 25.929688 26.15625 25.816406 26.351562 C 25.703125 26.546875 25.644531 26.765625 25.644531 26.992188 L 25.644531 37.894531 C 25.644531 38.117188 25.703125 38.339844 25.816406 38.535156 C 25.929688 38.730469 26.089844 38.890625 26.285156 39.003906 C 26.480469 39.113281 26.699219 39.171875 26.921875 39.171875 C 27.148438 39.171875 27.367188 39.113281 27.5625 39.003906 L 36.980469 33.550781 C 37.171875 33.4375 37.332031 33.273438 37.445312 33.078125 C 37.554688 32.886719 37.617188 32.667969 37.617188 32.441406 C 37.617188 32.21875 37.554688 32 37.445312 31.804688 C 37.332031 31.609375 37.171875 31.449219 36.980469 31.335938 Z M 36.980469 31.335938 "></path><path style=" stroke:none;fill-rule:nonzero;fill:rgb(7.843138%,7.843138%,7.843138%);fill-opacity:1;" d="M 68.847656 36.605469 C 68.847656 39.007812 68.242188 40.835938 67.03125 42.089844 C 65.820312 43.34375 64.019531 43.96875 61.621094 43.96875 C 60.140625 43.96875 58.847656 43.699219 57.742188 43.15625 C 56.699219 42.628906 55.828125 41.8125 55.238281 40.804688 C 54.65625 39.78125 54.363281 38.589844 54.363281 37.234375 L 54.363281 36.667969 L 58.804688 36.667969 C 58.804688 37.777344 59.011719 38.589844 59.429688 39.113281 C 59.871094 39.613281 60.535156 39.863281 61.433594 39.863281 C 62.140625 39.863281 62.671875 39.71875 63.027344 39.425781 C 63.402344 39.113281 63.644531 38.726562 63.75 38.265625 C 63.875 37.808594 63.933594 37.253906 63.933594 36.605469 L 63.933594 21.8125 L 68.847656 21.8125 Z M 78.03125 22.46875 C 78.03125 22.953125 77.917969 23.378906 77.6875 23.757812 C 77.480469 24.132812 77.175781 24.433594 76.78125 24.664062 C 76.382812 24.875 75.9375 24.980469 75.4375 24.980469 C 74.9375 24.980469 74.488281 24.875 74.089844 24.664062 C 73.707031 24.449219 73.382812 24.132812 73.152344 23.757812 C 72.941406 23.363281 72.832031 22.917969 72.839844 22.46875 C 72.839844 21.988281 72.941406 21.5625 73.152344 21.1875 C 73.382812 20.808594 73.695312 20.519531 74.089844 20.308594 C 74.488281 20.078125 74.9375 19.964844 75.4375 19.964844 C 75.9375 19.964844 76.382812 20.078125 76.78125 20.308594 C 77.175781 20.519531 77.480469 20.808594 77.6875 21.1875 C 77.917969 21.5625 78.03125 21.988281 78.03125 22.46875 Z M 77.65625 27.265625 L 77.65625 43.46875 L 73.214844 43.46875 L 73.214844 27.265625 Z M 97.441406 35.382812 C 97.441406 37.09375 97.097656 38.601562 96.410156 39.894531 C 95.75 41.140625 94.75 42.171875 93.53125 42.871094 C 92.300781 43.5625 90.882812 43.90625 89.277344 43.90625 C 87.628906 43.90625 86.191406 43.550781 84.960938 42.84375 C 83.742188 42.144531 82.757812 41.113281 82.113281 39.863281 C 81.445312 38.570312 81.113281 37.074219 81.113281 35.382812 C 81.113281 33.671875 81.445312 32.175781 82.113281 30.902344 C 82.746094 29.640625 83.738281 28.597656 84.960938 27.894531 C 86.191406 27.183594 87.628906 26.828125 89.277344 26.828125 C 90.925781 26.828125 92.363281 27.183594 93.59375 27.894531 C 94.816406 28.597656 95.804688 29.640625 96.441406 30.902344 C 97.109375 32.199219 97.441406 33.691406 97.441406 35.382812 Z M 89.277344 40.523438 C 90.488281 40.523438 91.402344 40.074219 92.03125 39.175781 C 92.675781 38.277344 93 37.011719 93 35.382812 C 93 33.878906 92.707031 32.644531 92.125 31.6875 C 91.539062 30.703125 90.582031 30.210938 89.246094 30.210938 C 88.078125 30.210938 87.171875 30.664062 86.523438 31.558594 C 85.878906 32.457031 85.554688 33.734375 85.554688 35.382812 C 85.554688 37.035156 85.867188 38.308594 86.492188 39.207031 C 87.140625 40.085938 88.066406 40.523438 89.277344 40.523438 Z M 106.085938 21.8125 L 114.90625 36.042969 L 114.96875 36.042969 L 114.96875 21.8125 L 119.566406 21.8125 L 119.566406 43.46875 L 114.65625 43.46875 L 105.867188 29.242188 L 105.804688 29.242188 L 105.804688 43.46875 L 101.203125 43.46875 L 101.203125 21.8125 Z M 138.847656 36.449219 L 127.492188 36.449219 C 127.554688 37.828125 127.917969 38.863281 128.585938 39.550781 C 129.253906 40.21875 130.214844 40.554688 131.464844 40.554688 C 132.320312 40.554688 133.027344 40.386719 133.589844 40.050781 C 134.15625 39.71875 134.5 39.289062 134.625 38.765625 L 138.566406 38.765625 C 138.128906 40.4375 137.273438 41.714844 136 42.589844 C 134.75 43.46875 133.164062 43.90625 131.246094 43.90625 C 129.578125 43.90625 128.128906 43.5625 126.898438 42.871094 C 125.679688 42.179688 124.691406 41.144531 124.050781 39.894531 C 123.40625 38.601562 123.082031 37.09375 123.082031 35.382812 C 123.082031 33.773438 123.414062 32.324219 124.082031 31.027344 C 124.726562 29.757812 125.710938 28.691406 126.929688 27.957031 C 128.160156 27.203125 129.554688 26.828125 131.121094 26.828125 C 132.789062 26.828125 134.199219 27.214844 135.34375 27.988281 C 136.511719 28.738281 137.386719 29.785156 137.972656 31.121094 C 138.574219 32.457031 138.878906 33.972656 138.878906 35.664062 Z M 134.4375 33.628906 C 134.226562 31.328125 133.101562 30.179688 131.058594 30.179688 C 130.035156 30.179688 129.210938 30.484375 128.585938 31.089844 C 127.984375 31.695312 127.617188 32.542969 127.492188 33.628906 Z M 145.136719 27.265625 L 147.984375 38.265625 L 148.046875 38.265625 L 150.613281 27.265625 L 154.898438 27.265625 L 157.527344 38.234375 L 157.589844 38.234375 L 160.433594 27.265625 L 165 27.265625 L 160.058594 43.46875 L 155.492188 43.46875 L 152.738281 32.59375 L 152.675781 32.59375 L 150.019531 43.46875 L 145.449219 43.46875 L 140.476562 27.265625 Z M 176.5625 31.589844 C 176.519531 30.964844 176.269531 30.515625 175.8125 30.242188 C 175.351562 29.949219 174.683594 29.804688 173.808594 29.804688 C 172.996094 29.804688 172.378906 29.941406 171.964844 30.210938 C 171.773438 30.324219 171.621094 30.484375 171.515625 30.679688 C 171.410156 30.871094 171.359375 31.089844 171.371094 31.308594 C 171.371094 31.6875 171.484375 32 171.714844 32.25 C 171.941406 32.480469 172.277344 32.675781 172.714844 32.84375 C 173.171875 33.011719 173.785156 33.179688 174.5625 33.347656 L 176.375 33.753906 C 178.023438 34.128906 179.242188 34.714844 180.035156 35.507812 C 180.824219 36.28125 181.222656 37.296875 181.222656 38.546875 C 181.222656 39.800781 180.890625 40.835938 180.222656 41.652344 C 179.574219 42.445312 178.710938 43.019531 177.625 43.375 C 176.539062 43.730469 175.332031 43.90625 173.996094 43.90625 C 172.558594 43.90625 171.285156 43.707031 170.179688 43.3125 C 169.074219 42.914062 168.199219 42.328125 167.550781 41.558594 C 166.925781 40.761719 166.613281 39.789062 166.613281 38.644531 L 170.839844 38.644531 C 170.855469 39.375 171.160156 39.9375 171.746094 40.335938 C 172.347656 40.730469 173.109375 40.929688 174.027344 40.929688 C 174.820312 40.929688 175.476562 40.773438 176 40.460938 C 176.519531 40.148438 176.78125 39.675781 176.78125 39.050781 C 176.78125 38.503906 176.539062 38.058594 176.0625 37.703125 C 175.582031 37.328125 174.820312 37.023438 173.777344 36.792969 L 171.996094 36.386719 C 170.804688 36.113281 169.835938 35.78125 169.085938 35.382812 C 168.355469 34.964844 167.8125 34.464844 167.457031 33.878906 C 167.105469 33.296875 166.925781 32.582031 166.925781 31.746094 C 166.925781 30.683594 167.21875 29.785156 167.804688 29.050781 C 168.386719 28.320312 169.199219 27.765625 170.242188 27.390625 C 171.285156 27.015625 172.503906 26.828125 173.902344 26.828125 C 176.03125 26.828125 177.675781 27.234375 178.84375 28.050781 C 180.035156 28.863281 180.667969 30.042969 180.753906 31.589844 Z M 176.5625 31.589844 "></path></g></svg>