<svg xmlns="http://www.w3.org/2000/svg" xmlns:xlink="http://www.w3.org/1999/xlink" width="324px" height="115px" viewBox="0 0 325 115"><g id="surface1"><path style=" stroke:none;fill-rule:nonzero;fill:rgb(97.647059%,61.56863%,10.980392%);fill-opacity:1;" d="M 157.851562 0 C 166.980469 -0.0351562 174.410156 7.335938 174.445312 16.464844 C 174.480469 25.597656 167.109375 33.027344 157.984375 33.0625 C 148.855469 33.101562 141.425781 25.730469 141.390625 16.597656 C 141.390625 7.484375 148.738281 0.0742188 157.851562 0 "></path><path style=" stroke:none;fill-rule:nonzero;fill:rgb(97.647059%,61.56863%,10.980392%);fill-opacity:1;" d="M 41.390625 114.03125 L 0.730469 114.03125 L 0.730469 100.84375 L 3.742188 100.84375 C 5.722656 100.84375 6.402344 99.722656 6.402344 97.894531 L 6.402344 57.160156 C 6.402344 55.3125 5.722656 54.214844 3.742188 54.214844 L 0.730469 54.214844 L 0.730469 40.757812 L 37.390625 40.757812 L 37.390625 52.167969 C 42.621094 44.804688 49.457031 39.21875 60.359375 39.21875 C 74.796875 39.21875 79.632812 45 81.304688 53.554688 C 86.027344 44.738281 95.214844 39.230469 105.214844 39.21875 C 123.523438 39.21875 126.027344 48.015625 126.027344 61.074219 L 126.027344 97.941406 C 126.027344 99.765625 126.839844 100.886719 129.105469 100.886719 L 131.433594 100.886719 L 131.433594 114.078125 L 91.480469 114.078125 L 91.480469 100.886719 L 92.554688 100.886719 C 94.402344 100.886719 95.214844 99.765625 95.214844 97.941406 L 95.214844 64.4375 C 95.214844 58.390625 93.148438 56.457031 88.929688 56.457031 C 83.347656 56.457031 81.523438 61.074219 81.523438 68.195312 L 81.523438 97.808594 C 81.523438 99.765625 82.359375 100.886719 84.203125 100.886719 L 85.851562 100.886719 L 85.851562 114.078125 L 46.996094 114.078125 L 46.996094 100.886719 L 48.117188 100.886719 C 49.898438 100.886719 50.730469 99.765625 50.730469 97.941406 L 50.730469 64.4375 C 50.730469 58.390625 48.664062 56.457031 44.445312 56.457031 C 38.863281 56.457031 37.0625 61.074219 37.0625 68.195312 L 37.0625 97.808594 C 37.0625 99.765625 37.765625 100.886719 39.722656 100.886719 L 41.390625 100.886719 Z M 41.390625 114.03125 "></path><path style=" stroke:none;fill-rule:nonzero;fill:rgb(97.647059%,61.56863%,10.980392%);fill-opacity:1;" d="M 142.707031 57.160156 C 142.707031 55.3125 142.027344 54.214844 140.050781 54.214844 L 136.996094 54.214844 L 136.996094 40.757812 L 173.367188 40.757812 L 173.367188 97.917969 C 173.367188 99.875 174.070312 100.996094 176.027344 100.996094 L 178.753906 100.996094 L 178.753906 114.1875 L 136.996094 114.1875 L 136.996094 100.996094 L 140.003906 100.996094 C 141.984375 100.996094 142.664062 99.875 142.664062 98.050781 Z M 142.707031 57.160156 "></path><path style=" stroke:none;fill-rule:nonzero;fill:rgb(97.647059%,61.56863%,10.980392%);fill-opacity:1;" d="M 225.742188 114.03125 L 185.082031 114.03125 L 185.082031 100.84375 L 188.09375 100.84375 C 190.050781 100.84375 190.753906 99.722656 190.753906 97.894531 L 190.753906 57.160156 C 190.753906 55.3125 190.050781 54.214844 188.09375 54.214844 L 185.082031 54.214844 L 185.082031 40.757812 L 221.410156 40.757812 L 221.410156 52.300781 C 226.824219 44.101562 236.003906 39.179688 245.828125 39.21875 C 262.773438 39.21875 266.445312 48.015625 266.445312 61.074219 L 266.445312 97.941406 C 266.445312 99.765625 267.125 100.886719 269.367188 100.886719 L 271.828125 100.886719 L 271.828125 114.078125 L 231.324219 114.078125 L 231.324219 100.886719 L 232.992188 100.886719 C 234.796875 100.886719 235.652344 99.765625 235.652344 97.941406 L 235.652344 64.4375 C 235.652344 58.390625 233.457031 56.457031 229.367188 56.457031 C 225.28125 56.457031 221.410156 59.664062 221.410156 66.789062 L 221.410156 97.808594 C 221.296875 98.636719 221.574219 99.472656 222.15625 100.074219 C 222.742188 100.675781 223.566406 100.976562 224.402344 100.886719 L 225.742188 100.886719 Z M 225.742188 114.03125 "></path><path style=" stroke:none;fill-rule:nonzero;fill:rgb(97.647059%,61.56863%,10.980392%);fill-opacity:1;" d="M 271.058594 40.757812 L 281.871094 40.339844 L 283.167969 23.675781 L 310.621094 23.675781 L 310.621094 40.757812 L 323.566406 40.757812 L 323.566406 54.5 L 310.621094 54.5 L 310.621094 87.695312 C 310.621094 96.355469 312.289062 99.171875 321.804688 99.171875 L 324.246094 99.171875 L 324.246094 114.03125 C 318.210938 114.695312 312.140625 115.019531 306.070312 115 C 288.730469 115 279.960938 109.613281 279.960938 95.214844 L 279.960938 54.5 L 271.167969 54.5 Z M 271.058594 40.757812 "></path></g></svg>