<svg xmlns="http://www.w3.org/2000/svg" xmlns:xlink="http://www.w3.org/1999/xlink" width="182px" height="65px" viewBox="0 0 183 65"><g id="surface1"><path style=" stroke:none;fill-rule:nonzero;fill:rgb(97.647059%,61.56863%,10.980392%);fill-opacity:1;" d="M 88.882812 0.101562 C 94.023438 0.0820312 98.207031 4.234375 98.226562 9.378906 C 98.246094 14.523438 94.09375 18.710938 88.957031 18.730469 C 83.816406 18.753906 79.632812 14.597656 79.613281 9.453125 C 79.613281 4.316406 83.75 0.140625 88.882812 0.101562 "></path><path style=" stroke:none;fill-rule:nonzero;fill:rgb(97.647059%,61.56863%,10.980392%);fill-opacity:1;" d="M 23.304688 64.355469 L 0.410156 64.355469 L 0.410156 56.921875 L 2.105469 56.921875 C 3.222656 56.921875 3.605469 56.292969 3.605469 55.261719 L 3.605469 32.308594 C 3.605469 31.265625 3.222656 30.648438 2.105469 30.648438 L 0.410156 30.648438 L 0.410156 23.066406 L 21.054688 23.066406 L 21.054688 29.496094 C 24 25.347656 27.847656 22.199219 33.988281 22.199219 C 42.117188 22.199219 44.839844 25.457031 45.78125 30.277344 C 48.441406 25.308594 53.613281 22.207031 59.242188 22.199219 C 69.554688 22.199219 70.964844 27.15625 70.964844 34.515625 L 70.964844 55.289062 C 70.964844 56.316406 71.421875 56.949219 72.695312 56.949219 L 74.007812 56.949219 L 74.007812 64.378906 L 51.511719 64.378906 L 51.511719 56.949219 L 52.117188 56.949219 C 53.15625 56.949219 53.613281 56.316406 53.613281 55.289062 L 53.613281 36.410156 C 53.613281 33 52.449219 31.914062 50.074219 31.914062 C 46.929688 31.914062 45.902344 34.515625 45.902344 38.527344 L 45.902344 55.214844 C 45.902344 56.316406 46.375 56.949219 47.414062 56.949219 L 48.339844 56.949219 L 48.339844 64.378906 L 26.460938 64.378906 L 26.460938 56.949219 L 27.09375 56.949219 C 28.097656 56.949219 28.566406 56.316406 28.566406 55.289062 L 28.566406 36.410156 C 28.566406 33 27.402344 31.914062 25.027344 31.914062 C 21.882812 31.914062 20.867188 34.515625 20.867188 38.527344 L 20.867188 55.214844 C 20.867188 56.316406 21.265625 56.949219 22.367188 56.949219 L 23.304688 56.949219 Z M 23.304688 64.355469 "></path><path style=" stroke:none;fill-rule:nonzero;fill:rgb(97.647059%,61.56863%,10.980392%);fill-opacity:1;" d="M 80.355469 32.308594 C 80.355469 31.265625 79.972656 30.648438 78.859375 30.648438 L 77.140625 30.648438 L 77.140625 23.066406 L 97.617188 23.066406 L 97.617188 55.273438 C 97.617188 56.378906 98.015625 57.007812 99.117188 57.007812 L 100.652344 57.007812 L 100.652344 64.441406 L 77.140625 64.441406 L 77.140625 57.007812 L 78.832031 57.007812 C 79.949219 57.007812 80.332031 56.378906 80.332031 55.347656 Z M 80.355469 32.308594 "></path><path style=" stroke:none;fill-rule:nonzero;fill:rgb(97.647059%,61.56863%,10.980392%);fill-opacity:1;" d="M 127.109375 64.355469 L 104.214844 64.355469 L 104.214844 56.921875 L 105.910156 56.921875 C 107.011719 56.921875 107.410156 56.292969 107.410156 55.261719 L 107.410156 32.308594 C 107.410156 31.265625 107.011719 30.648438 105.910156 30.648438 L 104.214844 30.648438 L 104.214844 23.066406 L 124.671875 23.066406 L 124.671875 29.570312 C 127.71875 24.949219 132.886719 22.175781 138.421875 22.199219 C 147.960938 22.199219 150.027344 27.15625 150.027344 34.515625 L 150.027344 55.289062 C 150.027344 56.316406 150.410156 56.949219 151.675781 56.949219 L 153.058594 56.949219 L 153.058594 64.378906 L 130.253906 64.378906 L 130.253906 56.949219 L 131.191406 56.949219 C 132.207031 56.949219 132.691406 56.316406 132.691406 55.289062 L 132.691406 36.410156 C 132.691406 33 131.453125 31.914062 129.152344 31.914062 C 126.851562 31.914062 124.671875 33.71875 124.671875 37.734375 L 124.671875 55.214844 C 124.605469 55.679688 124.761719 56.152344 125.089844 56.488281 C 125.421875 56.828125 125.886719 57 126.355469 56.949219 L 127.109375 56.949219 Z M 127.109375 64.355469 "></path><path style=" stroke:none;fill-rule:nonzero;fill:rgb(97.647059%,61.56863%,10.980392%);fill-opacity:1;" d="M 152.625 23.066406 L 158.714844 22.832031 L 159.445312 13.441406 L 174.902344 13.441406 L 174.902344 23.066406 L 182.191406 23.066406 L 182.191406 30.808594 L 174.902344 30.808594 L 174.902344 49.515625 C 174.902344 54.394531 175.84375 55.980469 181.199219 55.980469 L 182.574219 55.980469 L 182.574219 64.355469 C 179.175781 64.726562 175.757812 64.910156 172.339844 64.898438 C 162.578125 64.898438 157.640625 61.863281 157.640625 53.75 L 157.640625 30.808594 L 152.6875 30.808594 Z M 152.625 23.066406 "></path></g></svg>