<svg xmlns="http://www.w3.org/2000/svg" xmlns:xlink="http://www.w3.org/1999/xlink" width="182px" height="65px" viewBox="0 0 183 65"><defs><clipPath id="clip1"><path d="M 155.324219 17.523438 L 167.75 17.523438 L 167.75 25.433594 L 155.324219 25.433594 Z M 155.324219 17.523438 "></path></clipPath><clipPath id="clip2"><path d="M 161.664062 40.789062 C 166.585938 40.980469 170.902344 37.519531 171.792969 32.664062 C 172.503906 29.378906 170.902344 26.03125 167.90625 24.539062 C 170.085938 23.199219 171.246094 20.671875 170.839844 18.140625 C 170.375 13.082031 166.261719 10.625 161.378906 10.5625 C 156.917969 10.253906 152.941406 13.375 152.164062 17.792969 C 151.753906 20.425781 153 23.042969 155.304688 24.375 C 152.492188 26.058594 150.910156 29.230469 151.253906 32.5 C 152.179688 37.480469 156.621094 41.015625 161.664062 40.789062 Z M 161.664062 40.789062 "></path></clipPath><clipPath id="clip3"><path d="M 151.371094 17 L 156.453125 17 L 156.453125 20 L 151.371094 20 Z M 151.371094 17 "></path></clipPath><clipPath id="clip4"><path d="M 161.664062 40.789062 C 166.585938 40.980469 170.902344 37.519531 171.792969 32.664062 C 172.503906 29.378906 170.902344 26.03125 167.90625 24.539062 C 170.085938 23.199219 171.246094 20.671875 170.839844 18.140625 C 170.375 13.082031 166.261719 10.625 161.378906 10.5625 C 156.917969 10.253906 152.941406 13.375 152.164062 17.792969 C 151.753906 20.425781 153 23.042969 155.304688 24.375 C 152.492188 26.058594 150.910156 29.230469 151.253906 32.5 C 152.179688 37.480469 156.621094 41.015625 161.664062 40.789062 Z M 161.664062 40.789062 "></path></clipPath><clipPath id="clip5"><path d="M 151.371094 21.476562 L 156.453125 21.476562 L 156.453125 24.871094 L 151.371094 24.871094 Z M 151.371094 21.476562 "></path></clipPath><clipPath id="clip6"><path d="M 161.664062 40.789062 C 166.585938 40.980469 170.902344 37.519531 171.792969 32.664062 C 172.503906 29.378906 170.902344 26.03125 167.90625 24.539062 C 170.085938 23.199219 171.246094 20.671875 170.839844 18.140625 C 170.375 13.082031 166.261719 10.625 161.378906 10.5625 C 156.917969 10.253906 152.941406 13.375 152.164062 17.792969 C 151.753906 20.425781 153 23.042969 155.304688 24.375 C 152.492188 26.058594 150.910156 29.230469 151.253906 32.5 C 152.179688 37.480469 156.621094 41.015625 161.664062 40.789062 Z M 161.664062 40.789062 "></path></clipPath><clipPath id="clip7"><path d="M 166.621094 17 L 171.703125 17 L 171.703125 20 L 166.621094 20 Z M 166.621094 17 "></path></clipPath><clipPath id="clip8"><path d="M 161.664062 40.789062 C 166.585938 40.980469 170.902344 37.519531 171.792969 32.664062 C 172.503906 29.378906 170.902344 26.03125 167.90625 24.539062 C 170.085938 23.199219 171.246094 20.671875 170.839844 18.140625 C 170.375 13.082031 166.261719 10.625 161.378906 10.5625 C 156.917969 10.253906 152.941406 13.375 152.164062 17.792969 C 151.753906 20.425781 153 23.042969 155.304688 24.375 C 152.492188 26.058594 150.910156 29.230469 151.253906 32.5 C 152.179688 37.480469 156.621094 41.015625 161.664062 40.789062 Z M 161.664062 40.789062 "></path></clipPath><clipPath id="clip9"><path d="M 166.621094 21.476562 L 171.140625 21.476562 L 171.140625 24.871094 L 166.621094 24.871094 Z M 166.621094 21.476562 "></path></clipPath><clipPath id="clip10"><path d="M 161.664062 40.789062 C 166.585938 40.980469 170.902344 37.519531 171.792969 32.664062 C 172.503906 29.378906 170.902344 26.03125 167.90625 24.539062 C 170.085938 23.199219 171.246094 20.671875 170.839844 18.140625 C 170.375 13.082031 166.261719 10.625 161.378906 10.5625 C 156.917969 10.253906 152.941406 13.375 152.164062 17.792969 C 151.753906 20.425781 153 23.042969 155.304688 24.375 C 152.492188 26.058594 150.910156 29.230469 151.253906 32.5 C 152.179688 37.480469 156.621094 41.015625 161.664062 40.789062 Z M 161.664062 40.789062 "></path></clipPath><clipPath id="clip11"><path d="M 163 16 L 164.925781 16 L 164.925781 18.085938 L 163 18.085938 Z M 163 16 "></path></clipPath><clipPath id="clip12"><path d="M 161.664062 40.789062 C 166.585938 40.980469 170.902344 37.519531 171.792969 32.664062 C 172.503906 29.378906 170.902344 26.03125 167.90625 24.539062 C 170.085938 23.199219 171.246094 20.671875 170.839844 18.140625 C 170.375 13.082031 166.261719 10.625 161.378906 10.5625 C 156.917969 10.253906 152.941406 13.375 152.164062 17.792969 C 151.753906 20.425781 153 23.042969 155.304688 24.375 C 152.492188 26.058594 150.910156 29.230469 151.253906 32.5 C 152.179688 37.480469 156.621094 41.015625 161.664062 40.789062 Z M 161.664062 40.789062 "></path></clipPath><clipPath id="clip13"><path d="M 158.148438 16 L 160.40625 16 L 160.40625 18.085938 L 158.148438 18.085938 Z M 158.148438 16 "></path></clipPath><clipPath id="clip14"><path d="M 161.664062 40.789062 C 166.585938 40.980469 170.902344 37.519531 171.792969 32.664062 C 172.503906 29.378906 170.902344 26.03125 167.90625 24.539062 C 170.085938 23.199219 171.246094 20.671875 170.839844 18.140625 C 170.375 13.082031 166.261719 10.625 161.378906 10.5625 C 156.917969 10.253906 152.941406 13.375 152.164062 17.792969 C 151.753906 20.425781 153 23.042969 155.304688 24.375 C 152.492188 26.058594 150.910156 29.230469 151.253906 32.5 C 152.179688 37.480469 156.621094 41.015625 161.664062 40.789062 Z M 161.664062 40.789062 "></path></clipPath></defs><g id="surface1"><path style=" stroke:none;fill-rule:evenodd;fill:rgb(0%,11.372549%,25.882354%);fill-opacity:1;" d="M 5.414062 16.25 L 145.378906 16.25 L 145.378906 62.96875 L 5.414062 62.96875 Z M 5.414062 16.25 "></path><path style=" stroke:none;fill-rule:evenodd;fill:rgb(100%,100%,100%);fill-opacity:1;" d="M 14.328125 25.59375 L 14.328125 53.828125 L 21.214844 53.828125 L 21.214844 36.359375 L 31.339844 53.828125 L 38.027344 53.828125 L 38.027344 25.59375 L 31.140625 25.59375 L 31.140625 42.046875 L 21.417969 25.59375 Z M 14.328125 25.59375 "></path><path style=" stroke:none;fill-rule:evenodd;fill:rgb(99.607843%,99.607843%,99.607843%);fill-opacity:1;" d="M 41.875 25.59375 L 41.875 53.828125 L 63.953125 53.828125 L 63.953125 47.53125 L 48.964844 47.53125 L 48.964844 41.84375 L 62.128906 41.84375 L 62.128906 35.75 L 48.964844 35.75 L 48.964844 31.6875 L 63.34375 31.6875 L 63.34375 25.390625 Z M 41.875 25.59375 "></path><path style=" stroke:none;fill-rule:evenodd;fill:rgb(99.607843%,99.607843%,99.607843%);fill-opacity:1;" d="M 65.167969 25.59375 L 73.269531 53.828125 L 80.359375 53.828125 L 84.003906 35.546875 L 87.851562 53.828125 L 94.132812 53.828125 L 102.234375 25.59375 L 94.945312 25.59375 L 91.09375 42.25 L 87.652344 25.59375 L 80.15625 25.59375 L 76.917969 41.4375 L 73.269531 25.59375 Z M 65.167969 25.59375 "></path><path style=" stroke:none;fill-rule:evenodd;fill:rgb(100%,100%,100%);fill-opacity:1;" d="M 118.4375 34.9375 C 118.4375 34.9375 119.453125 31.484375 113.78125 30.875 C 109.929688 30.46875 109.121094 33.109375 109.730469 34.125 C 110.945312 36.15625 119.65625 36.15625 123.910156 39.609375 C 127.554688 42.65625 126.542969 49.5625 122.894531 52.203125 C 118.4375 55.25 111.148438 54.640625 107.90625 53.21875 C 104.339844 51.664062 102.203125 47.957031 102.640625 44.078125 L 109.324219 44.078125 C 109.324219 44.078125 108.917969 48.34375 114.183594 48.34375 C 119.453125 48.34375 119.859375 45.5 118.640625 44.28125 C 117.425781 43.0625 106.894531 42.453125 104.058594 38.1875 C 101.597656 34.148438 102.867188 28.875 106.894531 26.40625 C 111.957031 23.359375 119.65625 24.78125 122.289062 27.625 C 124.121094 29.53125 125.140625 32.085938 125.125 34.734375 Z M 118.4375 34.9375 "></path><path style=" stroke:none;fill-rule:evenodd;fill:rgb(88.235295%,14.901961%,10.980392%);fill-opacity:1;" d="M 130.996094 1.828125 L 177.585938 1.828125 L 177.585938 48.546875 L 130.996094 48.546875 Z M 130.996094 1.828125 "></path><path style=" stroke:none;fill-rule:evenodd;fill:rgb(100%,100%,100%);fill-opacity:1;" d="M 148.214844 40.015625 L 141.53125 40.015625 L 141.53125 17.875 L 136.871094 17.875 L 136.871094 11.171875 L 148.214844 11.171875 Z M 148.214844 40.015625 "></path><path style="fill:none;stroke-width:1;stroke-linecap:butt;stroke-linejoin:miter;stroke:rgb(100%,100%,100%);stroke-opacity:1;stroke-miterlimit:10;" d="M 86.700226 24.4 L 62.100338 24.4 " transform="matrix(2.025543,0,0,2.03125,3.388889,0)"></path><path style="fill:none;stroke-width:1;stroke-linecap:butt;stroke-linejoin:miter;stroke:rgb(100%,100%,100%);stroke-opacity:1;stroke-miterlimit:10;" d="M 70.601146 31.5 L 0.000857109 31.5 " transform="matrix(2.025543,0,0,2.03125,3.388889,0)"></path><path style="fill:none;stroke-width:1;stroke-linecap:butt;stroke-linejoin:miter;stroke:rgb(100%,100%,100%);stroke-opacity:1;stroke-miterlimit:10;" d="M 62.499537 7.9 L 0.000857109 7.9 " transform="matrix(2.025543,0,0,2.03125,3.388889,0)"></path><path style="fill:none;stroke-width:1;stroke-linecap:butt;stroke-linejoin:miter;stroke:rgb(100%,100%,100%);stroke-opacity:1;stroke-miterlimit:10;" d="M 86.999142 0.5 L 62.000056 0.5 " transform="matrix(2.025543,0,0,2.03125,3.388889,0)"></path><path style="fill:none;stroke-width:1;stroke-linecap:butt;stroke-linejoin:miter;stroke:rgb(100%,100%,100%);stroke-opacity:1;stroke-miterlimit:10;" d="M 62.499537 24.9 L 62.499537 0.7 " transform="matrix(2.025543,0,0,2.03125,3.388889,0)"></path><path style="fill:none;stroke-width:1;stroke-linecap:butt;stroke-linejoin:miter;stroke:rgb(100%,100%,100%);stroke-opacity:1;stroke-miterlimit:10;" d="M 70.400582 32 L 70.400582 24.2 " transform="matrix(2.025543,0,0,2.03125,3.388889,0)"></path><path style="fill:none;stroke-width:1;stroke-linecap:butt;stroke-linejoin:miter;stroke:rgb(100%,100%,100%);stroke-opacity:1;stroke-miterlimit:10;" d="M 0.500337 31.3 L 0.500337 8 " transform="matrix(2.025543,0,0,2.03125,3.388889,0)"></path><path style="fill:none;stroke-width:1;stroke-linecap:butt;stroke-linejoin:miter;stroke:rgb(100%,100%,100%);stroke-opacity:1;stroke-miterlimit:10;" d="M 86.499662 24.9 L 86.499662 0.9 " transform="matrix(2.025543,0,0,2.03125,3.388889,0)"></path><path style=" stroke:none;fill-rule:evenodd;fill:rgb(100%,100%,100%);fill-opacity:1;" d="M 161.664062 40.789062 C 166.585938 40.980469 170.902344 37.519531 171.792969 32.664062 C 172.503906 29.378906 170.902344 26.03125 167.90625 24.539062 C 170.085938 23.199219 171.246094 20.671875 170.839844 18.140625 C 170.375 13.082031 166.261719 10.625 161.378906 10.5625 C 156.917969 10.253906 152.941406 13.375 152.164062 17.792969 C 151.753906 20.425781 153 23.042969 155.304688 24.375 C 152.492188 26.058594 150.910156 29.230469 151.253906 32.5 C 152.179688 37.480469 156.621094 41.015625 161.664062 40.789062 Z M 161.664062 40.789062 "></path><g clip-path="url(#clip1)" clip-rule="nonzero"><g clip-path="url(#clip2)" clip-rule="nonzero"><path style=" stroke:none;fill-rule:nonzero;fill:rgb(45.490196%,78.823531%,77.64706%);fill-opacity:1;" d="M 167.113281 24.375 C 163.542969 25.429688 159.75 25.472656 156.15625 24.496094 C 155.6875 22.644531 155.734375 20.695312 156.296875 18.871094 C 158 19.09375 159.722656 17.9375 161.441406 17.957031 C 163.164062 17.976562 165.046875 19.09375 166.828125 18.871094 C 167.519531 20.625 167.617188 22.558594 167.113281 24.375 Z M 167.113281 24.375 "></path></g></g><g clip-path="url(#clip3)" clip-rule="nonzero"><g clip-path="url(#clip4)" clip-rule="nonzero"><path style=" stroke:none;fill-rule:nonzero;fill:rgb(45.490196%,78.823531%,77.64706%);fill-opacity:1;" d="M 156.234375 19.84375 C 155.40625 19.699219 154.601562 19.460938 153.824219 19.132812 C 153.121094 18.8125 152.441406 18.429688 151.800781 17.996094 L 152.226562 17.164062 C 152.871094 17.574219 153.550781 17.933594 154.25 18.242188 C 154.949219 18.53125 155.675781 18.746094 156.417969 18.890625 Z M 156.234375 19.84375 "></path></g></g><g clip-path="url(#clip5)" clip-rule="nonzero"><g clip-path="url(#clip6)" clip-rule="nonzero"><path style=" stroke:none;fill-rule:nonzero;fill:rgb(45.490196%,78.823531%,77.64706%);fill-opacity:1;" d="M 156.316406 24.515625 C 155.484375 24.398438 154.675781 24.167969 153.90625 23.828125 C 153.191406 23.550781 152.511719 23.1875 151.882812 22.75 L 152.46875 21.976562 C 153.007812 22.367188 153.59375 22.6875 154.210938 22.933594 C 154.894531 23.234375 155.617188 23.445312 156.359375 23.5625 Z M 156.316406 24.515625 "></path></g></g><g clip-path="url(#clip7)" clip-rule="nonzero"><g clip-path="url(#clip8)" clip-rule="nonzero"><path style=" stroke:none;fill-rule:nonzero;fill:rgb(45.490196%,78.823531%,77.64706%);fill-opacity:1;" d="M 166.871094 19.824219 L 166.726562 18.871094 C 167.472656 18.757812 168.199219 18.558594 168.894531 18.28125 C 169.5625 18 170.195312 17.648438 170.777344 17.226562 L 171.367188 18.015625 C 170.726562 18.460938 170.050781 18.847656 169.339844 19.175781 C 168.542969 19.484375 167.71875 19.699219 166.871094 19.824219 Z M 166.871094 19.824219 "></path></g></g><g clip-path="url(#clip9)" clip-rule="nonzero"><g clip-path="url(#clip10)" clip-rule="nonzero"><path style=" stroke:none;fill-rule:nonzero;fill:rgb(45.490196%,78.823531%,77.64706%);fill-opacity:1;" d="M 166.726562 24.375 L 166.726562 23.421875 C 167.433594 23.363281 168.117188 23.175781 168.753906 22.871094 C 169.378906 22.625 169.96875 22.304688 170.515625 21.917969 L 171.105469 22.6875 C 170.476562 23.132812 169.796875 23.492188 169.078125 23.765625 C 168.339844 24.109375 167.542969 24.316406 166.726562 24.375 Z M 166.726562 24.375 "></path></g></g><g clip-path="url(#clip11)" clip-rule="nonzero"><g clip-path="url(#clip12)" clip-rule="nonzero"><path style=" stroke:none;fill-rule:nonzero;fill:rgb(0%,0%,0%);fill-opacity:1;" d="M 164.925781 17.082031 C 164.925781 16.566406 164.507812 16.148438 163.996094 16.148438 C 163.480469 16.148438 163.0625 16.566406 163.0625 17.082031 C 163.0625 17.597656 163.480469 18.015625 163.996094 18.015625 C 164.507812 18.015625 164.925781 17.597656 164.925781 17.082031 Z M 164.925781 17.082031 "></path></g></g><g clip-path="url(#clip13)" clip-rule="nonzero"><g clip-path="url(#clip14)" clip-rule="nonzero"><path style=" stroke:none;fill-rule:nonzero;fill:rgb(0%,0%,0%);fill-opacity:1;" d="M 160.042969 17.082031 C 160.042969 16.566406 159.625 16.148438 159.113281 16.148438 C 158.597656 16.148438 158.179688 16.566406 158.179688 17.082031 C 158.179688 17.597656 158.597656 18.015625 159.113281 18.015625 C 159.625 18.015625 160.042969 17.597656 160.042969 17.082031 Z M 160.042969 17.082031 "></path></g></g><path style=" stroke:none;fill-rule:evenodd;fill:rgb(93.333334%,10.980392%,14.509805%);fill-opacity:1;" d="M 164.964844 30.691406 C 165.003906 31.566406 164.695312 32.417969 164.105469 33.0625 C 163.519531 33.707031 162.699219 34.085938 161.824219 34.125 C 159.96875 34.125 158.464844 32.613281 158.464844 30.753906 C 158.335938 29.003906 159.640625 27.480469 161.378906 27.339844 L 161.683594 27.339844 C 163.507812 27.351562 164.976562 28.84375 164.964844 30.671875 Z M 164.964844 30.691406 "></path></g></svg>