<svg xmlns="http://www.w3.org/2000/svg" xmlns:xlink="http://www.w3.org/1999/xlink" width="182px" height="65px" viewBox="0 0 183 65"><g id="surface1"><path style=" stroke:none;fill-rule:nonzero;fill:rgb(0%,36.862746%,55.686277%);fill-opacity:1;" d="M 23.371094 22.722656 L 15.582031 22.722656 L 15.582031 34.582031 L 18.003906 34.582031 L 18.003906 30.074219 L 22.402344 30.074219 L 22.402344 27.882812 L 18.003906 27.882812 L 18.003906 24.917969 L 23.371094 24.917969 Z M 27.605469 22.722656 L 25.183594 22.722656 L 25.183594 34.582031 L 27.605469 34.582031 Z M 37.980469 22.722656 L 37.980469 29.804688 L 31.105469 22.507812 L 30.316406 22.507812 L 30.316406 34.582031 L 32.738281 34.582031 L 32.738281 27.46875 L 39.59375 34.800781 L 40.402344 34.800781 L 40.402344 22.722656 Z M 50.757812 34.582031 L 53.363281 34.582031 L 48.085938 22.507812 L 47.277344 22.507812 L 41.984375 34.582031 L 44.585938 34.582031 L 45.25 33.039062 L 50.097656 33.039062 Z M 49.253906 31.042969 L 46.09375 31.042969 L 47.671875 27.035156 Z M 62.640625 22.722656 L 62.640625 29.804688 L 55.765625 22.507812 L 54.976562 22.507812 L 54.976562 34.582031 L 57.402344 34.582031 L 57.402344 27.464844 L 64.257812 34.796875 L 65.066406 34.796875 L 65.066406 22.722656 Z M 73.410156 22.507812 C 69.875 22.507812 67.09375 25.167969 67.09375 28.652344 C 67.09375 32.140625 69.875 34.796875 73.394531 34.796875 C 75.691406 34.796875 77.609375 33.667969 78.632812 31.851562 L 76.804688 30.558594 C 76.011719 31.816406 74.902344 32.550781 73.410156 32.550781 C 71.203125 32.550781 69.585938 30.953125 69.585938 28.671875 C 69.585938 26.371094 71.203125 24.753906 73.410156 24.753906 C 74.902344 24.753906 76.011719 25.492188 76.804688 26.746094 L 78.632812 25.453125 C 77.59375 23.640625 75.691406 22.507812 73.410156 22.507812 Z M 83.121094 22.722656 L 80.699219 22.722656 L 80.699219 34.582031 L 83.121094 34.582031 Z M 93.476562 34.582031 L 96.078125 34.582031 L 90.800781 22.507812 L 89.996094 22.507812 L 84.699219 34.582031 L 87.304688 34.582031 L 87.96875 33.039062 L 92.8125 33.039062 Z M 91.96875 31.042969 L 88.808594 31.042969 L 90.390625 27.035156 Z M 100.117188 22.722656 L 97.695312 22.722656 L 97.695312 34.582031 L 105.304688 34.582031 L 105.304688 32.390625 L 100.117188 32.390625 Z M 119.195312 22.722656 L 111.226562 22.722656 L 111.226562 34.582031 L 119.410156 34.582031 L 119.410156 32.390625 L 113.652344 32.390625 L 113.652344 29.390625 L 117.726562 29.390625 L 117.726562 27.324219 L 113.652344 27.324219 L 113.652344 24.914062 L 119.195312 24.914062 Z M 130.917969 34.582031 L 127.023438 28.542969 L 130.664062 22.722656 L 127.917969 22.722656 L 125.65625 26.460938 L 123.378906 22.722656 L 120.613281 22.722656 L 124.3125 28.542969 L 120.382812 34.582031 L 123.144531 34.582031 L 125.65625 30.644531 L 128.171875 34.582031 Z M 136.984375 22.722656 L 132.535156 22.722656 L 132.535156 34.582031 L 134.957031 34.582031 L 134.957031 30.394531 L 136.984375 30.394531 C 139.480469 30.394531 141.257812 28.832031 141.257812 26.550781 C 141.257812 24.230469 139.480469 22.722656 136.984375 22.722656 Z M 136.984375 24.859375 C 138.117188 24.859375 138.777344 25.5625 138.777344 26.546875 C 138.777344 27.574219 138.117188 28.273438 136.984375 28.273438 L 134.957031 28.273438 L 134.957031 24.859375 Z M 153.191406 34.582031 L 149.835938 29.925781 C 151.109375 29.296875 151.917969 28.078125 151.917969 26.546875 C 151.917969 24.230469 150.140625 22.722656 147.644531 22.722656 L 143.195312 22.722656 L 143.195312 34.582031 L 145.617188 34.582031 L 145.617188 30.394531 L 147.394531 30.394531 L 150.464844 34.582031 Z M 145.617188 24.859375 L 147.644531 24.859375 C 148.777344 24.859375 149.441406 25.5625 149.441406 26.546875 C 149.441406 27.574219 148.777344 28.257812 147.644531 28.257812 L 145.617188 28.257812 Z M 162.648438 22.722656 L 154.679688 22.722656 L 154.679688 34.582031 L 162.863281 34.582031 L 162.863281 32.390625 L 157.105469 32.390625 L 157.105469 29.390625 L 161.179688 29.390625 L 161.179688 27.324219 L 157.105469 27.324219 L 157.105469 24.914062 L 162.648438 24.914062 Z M 168.679688 22.507812 C 166.453125 22.507812 164.75 23.820312 164.75 25.867188 C 164.75 27.539062 165.933594 28.507812 167.621094 29.28125 L 168.894531 29.855469 C 169.828125 30.285156 170.402344 30.558594 170.402344 31.328125 C 170.402344 32.15625 169.757812 32.640625 168.71875 32.640625 C 167.300781 32.640625 166.453125 31.816406 165.808594 30.914062 L 164.140625 32.171875 C 165.019531 33.753906 166.671875 34.796875 168.71875 34.796875 C 171.066406 34.796875 172.863281 33.449219 172.863281 31.238281 C 172.863281 29.550781 171.804688 28.597656 169.9375 27.769531 L 168.589844 27.175781 C 167.730469 26.78125 167.210938 26.496094 167.210938 25.8125 C 167.210938 25.019531 167.890625 24.660156 168.679688 24.660156 C 169.648438 24.660156 170.367188 25.164062 170.941406 26.027344 L 172.59375 24.753906 C 171.894531 23.457031 170.566406 22.507812 168.679688 22.507812 Z M 178.625 22.507812 C 176.398438 22.507812 174.691406 23.820312 174.691406 25.867188 C 174.691406 27.539062 175.878906 28.507812 177.5625 29.28125 L 178.839844 29.855469 C 179.773438 30.285156 180.347656 30.558594 180.347656 31.328125 C 180.347656 32.15625 179.699219 32.640625 178.660156 32.640625 C 177.242188 32.640625 176.398438 31.816406 175.753906 30.914062 L 174.082031 32.171875 C 174.960938 33.753906 176.613281 34.796875 178.660156 34.796875 C 181.011719 34.796875 182.804688 33.449219 182.804688 31.238281 C 182.804688 29.550781 181.746094 28.597656 179.878906 27.769531 L 178.535156 27.175781 C 177.671875 26.78125 177.152344 26.496094 177.152344 25.8125 C 177.152344 25.019531 177.832031 24.660156 178.625 24.660156 C 179.59375 24.660156 180.308594 25.164062 180.886719 26.027344 L 182.535156 24.753906 C 181.835938 23.457031 180.507812 22.507812 178.625 22.507812 Z M 178.625 22.507812 "></path><path style=" stroke:none;fill-rule:nonzero;fill:rgb(76.078433%,1.568628%,6.27451%);fill-opacity:1;" d="M 142.855469 43.128906 L 141.671875 41.15625 C 142.125 41.042969 142.679688 40.660156 142.679688 39.785156 C 142.679688 38.925781 142.113281 38.375 140.847656 38.375 L 139.054688 38.375 L 139.054688 43.128906 L 139.875 43.128906 L 139.875 41.265625 L 140.785156 41.265625 L 141.898438 43.128906 Z M 141.757812 39.847656 C 141.757812 40.402344 141.394531 40.699219 140.746094 40.699219 L 139.875 40.699219 L 139.875 38.949219 L 140.730469 38.949219 C 141.515625 38.949219 141.753906 39.3125 141.753906 39.847656 Z M 146.804688 41.226562 C 146.804688 40.105469 146.199219 39.292969 145.089844 39.292969 C 144.007812 39.292969 143.296875 40.054688 143.296875 41.175781 C 143.296875 42.261719 143.886719 43.238281 145.285156 43.238281 C 145.753906 43.238281 146.308594 43.066406 146.734375 42.65625 L 146.488281 42.289062 C 146.046875 42.621094 145.710938 42.722656 145.308594 42.722656 C 144.535156 42.722656 144.132812 42.191406 144.078125 41.433594 L 146.789062 41.433594 C 146.804688 41.375 146.804688 41.3125 146.804688 41.226562 Z M 146 41.015625 L 144.078125 41.015625 C 144.1875 40.246094 144.488281 39.796875 145.050781 39.796875 C 145.707031 39.796875 145.941406 40.265625 146 41.015625 Z M 151.289062 42.574219 C 151.195312 42.59375 151.121094 42.601562 151.039062 42.601562 C 150.808594 42.601562 150.679688 42.523438 150.679688 42.148438 L 150.679688 40.496094 C 150.679688 39.792969 150.269531 39.328125 149.21875 39.328125 C 148.570312 39.328125 148.070312 39.53125 147.632812 39.800781 L 147.875 40.320312 C 148.238281 40.09375 148.632812 39.925781 149.09375 39.925781 C 149.734375 39.925781 149.941406 40.1875 149.941406 40.410156 L 149.941406 40.648438 C 148.15625 40.734375 147.433594 41.226562 147.433594 42.039062 C 147.433594 42.765625 147.980469 43.1875 148.691406 43.1875 C 149.195312 43.1875 149.664062 43.070312 149.984375 42.605469 C 150.035156 42.929688 150.148438 43.195312 150.597656 43.195312 C 150.867188 43.195312 151.121094 43.117188 151.28125 43.019531 Z M 149.941406 42.214844 C 149.683594 42.503906 149.304688 42.644531 148.882812 42.644531 C 148.355469 42.644531 148.148438 42.375 148.148438 41.992188 C 148.148438 41.605469 148.441406 41.164062 149.941406 41.050781 Z M 155.296875 43.128906 L 155.296875 38.023438 L 154.546875 38.023438 L 154.546875 39.914062 C 154.226562 39.492188 153.808594 39.339844 153.355469 39.339844 C 152.332031 39.339844 151.753906 40.046875 151.753906 41.238281 C 151.753906 42.828125 152.644531 43.1875 153.308594 43.1875 C 153.851562 43.1875 154.136719 43.070312 154.574219 42.65625 L 154.628906 43.128906 Z M 154.527344 42.195312 C 154.300781 42.464844 153.90625 42.644531 153.542969 42.644531 C 152.972656 42.644531 152.546875 42.273438 152.546875 41.238281 C 152.546875 40.300781 152.90625 39.859375 153.53125 39.859375 C 154.144531 39.859375 154.425781 40.269531 154.527344 40.570312 Z M 160.390625 40.046875 L 160.390625 39.515625 L 159.25 39.515625 L 159.25 38.375 L 158.628906 38.375 L 158.488281 39.515625 L 157.859375 39.515625 L 157.859375 40.046875 L 158.496094 40.046875 L 158.496094 42.140625 C 158.496094 42.855469 158.828125 43.179688 159.625 43.179688 C 159.945312 43.179688 160.183594 43.136719 160.355469 43.027344 L 160.355469 42.558594 C 160.203125 42.613281 160.0625 42.613281 159.914062 42.613281 C 159.386719 42.613281 159.25 42.414062 159.25 42.003906 L 159.25 40.046875 Z M 164.574219 41.257812 C 164.574219 40.109375 163.84375 39.292969 162.730469 39.292969 C 161.640625 39.292969 160.910156 40.109375 160.910156 41.265625 C 160.910156 42.414062 161.640625 43.238281 162.730469 43.238281 C 163.828125 43.238281 164.574219 42.414062 164.574219 41.257812 Z M 163.816406 41.277344 C 163.816406 42.121094 163.414062 42.765625 162.734375 42.765625 C 162.035156 42.765625 161.667969 42.101562 161.667969 41.273438 C 161.667969 40.421875 162.042969 39.792969 162.734375 39.792969 C 163.4375 39.792969 163.816406 40.429688 163.816406 41.277344 Z M 170.394531 43.128906 L 170.394531 42.476562 L 168.1875 42.476562 L 168.1875 38.375 L 167.363281 38.375 L 167.363281 43.128906 Z M 174.3125 41.226562 C 174.3125 40.105469 173.710938 39.292969 172.597656 39.292969 C 171.515625 39.292969 170.804688 40.054688 170.804688 41.175781 C 170.804688 42.261719 171.394531 43.238281 172.792969 43.238281 C 173.261719 43.238281 173.816406 43.066406 174.242188 42.65625 L 173.996094 42.289062 C 173.554688 42.621094 173.21875 42.722656 172.820312 42.722656 C 172.042969 42.722656 171.640625 42.191406 171.585938 41.433594 L 174.296875 41.433594 C 174.3125 41.375 174.3125 41.3125 174.3125 41.226562 Z M 173.507812 41.015625 L 171.585938 41.015625 C 171.695312 40.246094 171.996094 39.796875 172.558594 39.796875 C 173.214844 39.796875 173.449219 40.265625 173.507812 41.015625 Z M 178.796875 42.574219 C 178.703125 42.59375 178.628906 42.601562 178.550781 42.601562 C 178.316406 42.601562 178.1875 42.523438 178.1875 42.148438 L 178.1875 40.496094 C 178.1875 39.792969 177.777344 39.328125 176.726562 39.328125 C 176.078125 39.328125 175.578125 39.53125 175.140625 39.800781 L 175.382812 40.320312 C 175.746094 40.09375 176.140625 39.925781 176.601562 39.925781 C 177.242188 39.925781 177.453125 40.1875 177.453125 40.410156 L 177.453125 40.648438 C 175.664062 40.734375 174.941406 41.226562 174.941406 42.039062 C 174.941406 42.765625 175.492188 43.1875 176.199219 43.1875 C 176.703125 43.1875 177.171875 43.070312 177.492188 42.605469 C 177.542969 42.929688 177.660156 43.195312 178.109375 43.195312 C 178.375 43.195312 178.628906 43.117188 178.789062 43.019531 Z M 177.449219 42.214844 C 177.191406 42.503906 176.816406 42.644531 176.394531 42.644531 C 175.863281 42.644531 175.65625 42.375 175.65625 41.992188 C 175.65625 41.605469 175.949219 41.164062 177.449219 41.050781 Z M 182.804688 43.128906 L 182.804688 38.023438 L 182.054688 38.023438 L 182.054688 39.914062 C 181.734375 39.492188 181.316406 39.339844 180.863281 39.339844 C 179.839844 39.339844 179.265625 40.046875 179.265625 41.238281 C 179.265625 42.828125 180.15625 43.1875 180.816406 43.1875 C 181.359375 43.1875 181.648438 43.070312 182.082031 42.65625 L 182.136719 43.128906 Z M 182.035156 42.195312 C 181.808594 42.464844 181.414062 42.644531 181.050781 42.644531 C 180.484375 42.644531 180.054688 42.273438 180.054688 41.238281 C 180.054688 40.300781 180.414062 39.859375 181.039062 39.859375 C 181.652344 39.859375 181.933594 40.269531 182.035156 40.570312 Z M 182.035156 42.195312 "></path><path style=" stroke:none;fill-rule:nonzero;fill:rgb(100%,7.058824%,1.568628%);fill-opacity:1;" d="M 4.777344 23.144531 C 4.214844 23.832031 4.3125 24.867188 4.984375 25.453125 L 9.769531 29.75 C 10.398438 30.296875 9.984375 31.203125 9.984375 31.203125 L 10.082031 31.289062 L 11.082031 30.042969 C 11.328125 29.742188 11.449219 29.378906 11.449219 29.015625 L 11.449219 28.996094 C 11.449219 28.527344 11.25 28.058594 10.875 27.730469 L 6.089844 23.4375 C 5.464844 22.886719 5.878906 21.980469 5.878906 21.980469 L 5.777344 21.894531 L 4.777344 23.140625 Z M 4.777344 23.144531 "></path><path style=" stroke:none;fill-rule:nonzero;fill:rgb(100%,7.058824%,1.568628%);fill-opacity:1;" d="M 2.570312 25.894531 C 2.007812 26.582031 2.105469 27.621094 2.777344 28.207031 L 7.5625 32.503906 C 8.191406 33.050781 7.777344 33.957031 7.777344 33.957031 L 7.875 34.042969 L 8.875 32.796875 C 9.4375 32.109375 9.339844 31.070312 8.667969 30.484375 L 3.882812 26.1875 C 3.257812 25.640625 3.671875 24.734375 3.671875 24.734375 L 3.570312 24.648438 Z M 2.570312 25.894531 "></path><path style=" stroke:none;fill-rule:nonzero;fill:rgb(100%,7.058824%,1.568628%);fill-opacity:1;" d="M 0.363281 28.648438 C 0.121094 28.945312 0.00390625 29.308594 0 29.671875 L 0 29.699219 C 0.00390625 30.167969 0.199219 30.632812 0.574219 30.960938 L 5.359375 35.253906 C 5.988281 35.804688 5.574219 36.710938 5.574219 36.710938 L 5.671875 36.796875 L 6.671875 35.550781 C 7.234375 34.859375 7.136719 33.824219 6.464844 33.238281 L 1.679688 28.941406 C 1.050781 28.394531 1.464844 27.488281 1.464844 27.488281 L 1.367188 27.402344 L 0.367188 28.648438 Z M 0.363281 28.648438 "></path></g></svg>