<svg xmlns="http://www.w3.org/2000/svg" xmlns:xlink="http://www.w3.org/1999/xlink" width="182px" height="65px" viewBox="0 0 183 65"><g id="surface1"><path style=" stroke:none;fill-rule:evenodd;fill:rgb(100%,100%,100%);fill-opacity:1;" d="M 98.625 40.089844 L 122.351562 40.089844 L 122.351562 24.726562 L 98.625 24.726562 Z M 127.8125 40.089844 L 151.539062 40.089844 L 151.539062 24.726562 L 127.8125 24.726562 Z M 155.851562 40.089844 L 181.445312 40.089844 L 181.445312 24.726562 L 155.851562 24.726562 Z M 155.851562 40.089844 "></path><path style=" stroke:none;fill-rule:evenodd;fill:rgb(13.333334%,25.098041%,60.000002%);fill-opacity:1;" d="M 105.609375 29.511719 C 105.585938 29.527344 105.554688 29.527344 105.535156 29.527344 L 105.535156 38.5625 L 101.535156 38.5625 L 101.535156 26.105469 C 101.582031 26.097656 101.617188 26.085938 101.648438 26.085938 C 103.636719 26.085938 105.628906 26.082031 107.625 26.085938 C 107.703125 26.085938 107.828125 26.140625 107.894531 26.222656 C 108.21875 26.585938 108.527344 26.96875 108.839844 27.359375 C 109.886719 28.601562 110.925781 29.851562 111.957031 31.101562 C 112.886719 32.226562 113.816406 33.371094 114.753906 34.5 C 114.921875 34.703125 115.117188 34.890625 115.300781 35.089844 C 115.320312 35.070312 115.351562 35.058594 115.386719 35.042969 L 115.386719 26.105469 L 119.386719 26.105469 L 119.386719 38.574219 C 119.308594 38.585938 119.273438 38.597656 119.222656 38.597656 C 117.25 38.597656 115.285156 38.601562 113.304688 38.59375 C 113.21875 38.59375 113.109375 38.550781 113.0625 38.488281 C 112.574219 37.917969 112.09375 37.34375 111.621094 36.761719 C 111.148438 36.191406 110.683594 35.613281 110.207031 35.03125 C 109.394531 34.058594 108.574219 33.085938 107.757812 32.109375 Z M 96.984375 42.292969 L 124.246094 42.292969 L 124.246094 22.722656 L 96.984375 22.722656 Z M 139.617188 38.734375 C 138.460938 38.734375 137.300781 38.722656 136.140625 38.734375 C 134.988281 38.757812 133.859375 38.621094 132.789062 38.214844 C 132.085938 37.957031 131.5 37.453125 131.140625 36.796875 C 130.710938 36.03125 130.605469 35.167969 130.582031 34.3125 C 130.566406 32.988281 130.542969 31.65625 130.601562 30.332031 C 130.632812 29.625 130.746094 28.902344 130.976562 28.242188 C 131.324219 27.210938 132.191406 26.597656 133.257812 26.28125 C 134.117188 26.015625 134.992188 25.933594 135.894531 25.933594 C 138.246094 25.933594 140.597656 25.9375 142.949219 25.933594 C 144.136719 25.925781 145.292969 26.003906 146.402344 26.441406 C 147.179688 26.738281 147.761719 27.234375 148.144531 27.941406 C 148.515625 28.664062 148.628906 29.441406 148.640625 30.230469 C 148.644531 31.421875 148.65625 32.597656 148.628906 33.796875 C 148.628906 34.367188 148.613281 34.957031 148.515625 35.523438 C 148.324219 36.707031 147.742188 37.65625 146.558594 38.167969 C 145.703125 38.539062 144.773438 38.703125 143.847656 38.722656 C 142.433594 38.757812 141.03125 38.734375 139.621094 38.734375 Z M 125.90625 42.292969 L 153.320312 42.292969 L 153.320312 22.722656 L 125.90625 22.722656 Z M 125.90625 42.292969 "></path><path style=" stroke:none;fill-rule:evenodd;fill:rgb(1.176471%,30.588236%,63.137257%);fill-opacity:1;" d="M 139.640625 35.519531 L 142.585938 35.519531 C 143.011719 35.519531 143.414062 35.433594 143.773438 35.207031 C 144.117188 35.003906 144.300781 34.695312 144.371094 34.347656 C 144.582031 33.355469 144.636719 32.359375 144.496094 31.367188 C 144.4375 30.929688 144.34375 30.496094 144.207031 30.078125 C 144.0625 29.664062 143.691406 29.472656 143.277344 29.3125 C 142.804688 29.132812 142.316406 29.148438 141.835938 29.148438 C 140.121094 29.148438 138.40625 29.097656 136.683594 29.164062 C 135.5 29.21875 134.890625 29.765625 134.796875 30.835938 C 134.703125 31.867188 134.75 32.917969 134.789062 33.953125 C 134.8125 34.476562 135.015625 34.996094 135.5625 35.253906 C 135.886719 35.402344 136.273438 35.488281 136.648438 35.496094 C 137.640625 35.535156 138.652344 35.519531 139.640625 35.519531 "></path><path style=" stroke:none;fill-rule:evenodd;fill:rgb(13.333334%,25.098041%,60.000002%);fill-opacity:1;" d="M 180.789062 26.085938 C 180.59375 26.675781 180.410156 27.21875 180.230469 27.769531 C 180.011719 28.421875 179.777344 29.058594 179.558594 29.71875 C 179.324219 30.367188 179.125 31.003906 178.902344 31.65625 C 178.648438 32.398438 178.363281 33.148438 178.109375 33.886719 C 177.90625 34.511719 177.734375 35.125 177.527344 35.734375 C 177.242188 36.601562 176.945312 37.46875 176.652344 38.328125 C 176.585938 38.496094 176.511719 38.609375 176.265625 38.609375 C 174.882812 38.59375 173.503906 38.597656 172.128906 38.601562 C 171.945312 38.609375 171.847656 38.558594 171.789062 38.367188 C 171.628906 37.839844 171.433594 37.328125 171.246094 36.808594 C 171.09375 36.414062 170.925781 36.019531 170.785156 35.613281 C 170.507812 34.878906 170.242188 34.136719 169.972656 33.382812 C 169.757812 32.792969 169.542969 32.210938 169.335938 31.625 C 169.171875 31.203125 169.015625 30.785156 168.828125 30.3125 C 168.753906 30.472656 168.6875 30.585938 168.652344 30.699219 C 168.402344 31.34375 168.171875 31.992188 167.921875 32.640625 C 167.746094 33.128906 167.554688 33.625 167.375 34.109375 C 167.113281 34.847656 166.855469 35.589844 166.582031 36.328125 C 166.363281 36.9375 166.152344 37.5625 165.90625 38.144531 C 165.832031 38.320312 165.863281 38.609375 165.523438 38.601562 C 164.140625 38.597656 162.769531 38.601562 161.382812 38.597656 C 161.292969 38.597656 161.1875 38.585938 161.078125 38.585938 C 159.667969 34.421875 158.265625 30.277344 156.847656 26.097656 C 156.992188 26.085938 157.078125 26.082031 157.175781 26.082031 C 158.265625 26.082031 159.367188 26.085938 160.460938 26.074219 C 160.722656 26.0625 160.808594 26.164062 160.871094 26.378906 C 161.066406 27.050781 161.261719 27.726562 161.46875 28.394531 C 161.683594 29.089844 161.914062 29.796875 162.125 30.496094 C 162.394531 31.410156 162.664062 32.328125 162.933594 33.246094 C 163.097656 33.769531 163.253906 34.300781 163.414062 34.824219 C 163.453125 34.945312 163.515625 35.0625 163.59375 35.230469 C 163.660156 35.105469 163.703125 35.042969 163.722656 34.976562 C 163.898438 34.503906 164.070312 34.019531 164.234375 33.527344 C 164.425781 32.992188 164.625 32.457031 164.820312 31.925781 C 165.097656 31.15625 165.382812 30.382812 165.648438 29.621094 C 165.859375 29.019531 166.070312 28.414062 166.285156 27.808594 C 166.472656 27.292969 166.675781 26.78125 166.855469 26.261719 C 166.914062 26.085938 167.039062 26.0625 167.199219 26.0625 C 168.203125 26.074219 169.222656 26.082031 170.226562 26.0625 C 170.535156 26.0625 170.734375 26.0625 170.84375 26.449219 C 171.046875 27.199219 171.359375 27.910156 171.617188 28.644531 C 172.015625 29.730469 172.414062 30.824219 172.8125 31.910156 C 173.007812 32.457031 173.210938 32.988281 173.40625 33.519531 C 173.605469 34.078125 173.796875 34.644531 173.984375 35.207031 L 174.082031 35.207031 C 174.996094 32.15625 175.929688 29.121094 176.835938 26.085938 Z M 155.175781 42.296875 L 182.304688 42.296875 L 182.304688 22.722656 L 155.175781 22.722656 C 155.171875 22.832031 155.164062 22.9375 155.164062 23.050781 L 155.164062 41.230469 C 155.164062 41.589844 155.171875 41.9375 155.175781 42.296875 Z M 155.175781 42.296875 "></path><path style=" stroke:none;fill-rule:evenodd;fill:rgb(70.980394%,12.54902%,14.509805%);fill-opacity:1;" d="M 0 42.277344 L 97.15625 42.277344 L 97.15625 22.703125 L 0 22.703125 Z M 0 42.277344 "></path><path style=" stroke:none;fill-rule:evenodd;fill:rgb(100%,100%,100%);fill-opacity:1;" d="M 29.878906 24.917969 L 29.878906 25.316406 C 29.867188 30.019531 29.867188 34.710938 29.867188 39.40625 C 29.867188 39.878906 29.867188 39.878906 30.382812 39.878906 C 31.007812 39.878906 31.65625 39.863281 32.285156 39.890625 C 32.585938 39.890625 32.648438 39.796875 32.648438 39.535156 C 32.628906 36.121094 32.628906 32.71875 32.621094 29.308594 C 32.621094 29.109375 32.621094 28.914062 32.695312 28.6875 C 32.953125 29.039062 33.210938 29.378906 33.476562 29.71875 C 34.378906 30.984375 35.28125 32.21875 36.1875 33.480469 C 37.121094 34.746094 38.039062 36.019531 38.96875 37.289062 C 39.554688 38.085938 40.15625 38.871094 40.746094 39.667969 C 40.804688 39.742188 40.953125 39.808594 41.046875 39.808594 C 41.894531 39.824219 42.726562 39.824219 43.582031 39.808594 C 43.691406 39.800781 43.796875 39.746094 43.871094 39.664062 C 44.839844 38.355469 45.78125 37.03125 46.75 35.726562 C 47.652344 34.480469 48.574219 33.25 49.484375 32.003906 C 50.1875 31.03125 50.882812 30.046875 51.585938 29.089844 C 51.6875 28.941406 51.808594 28.8125 51.972656 28.625 L 51.972656 39.882812 L 53.929688 39.882812 C 54.71875 39.882812 54.71875 39.882812 54.71875 39.128906 C 54.71875 34.542969 54.710938 29.953125 54.710938 25.375 L 54.710938 24.917969 L 53.050781 24.917969 C 52.574219 24.917969 52.097656 24.90625 51.621094 24.9375 C 51.476562 24.9375 51.289062 25.015625 51.210938 25.117188 C 50.324219 26.34375 49.441406 27.578125 48.558594 28.792969 C 47.777344 29.878906 46.953125 30.941406 46.164062 32.023438 C 45.453125 32.980469 44.757812 33.957031 44.066406 34.921875 C 43.484375 35.703125 42.910156 36.476562 42.308594 37.296875 C 41.96875 36.84375 41.652344 36.425781 41.335938 36 C 40.453125 34.789062 39.5625 33.574219 38.683594 32.359375 C 37.878906 31.257812 37.074219 30.160156 36.277344 29.054688 C 35.316406 27.75 34.371094 26.433594 33.414062 25.117188 C 33.347656 25.03125 33.21875 24.9375 33.125 24.9375 C 32.0625 24.917969 30.996094 24.917969 29.878906 24.917969 M 80.605469 35.113281 C 79.890625 35.113281 79.195312 35.101562 78.5 35.113281 C 78.429688 35.113281 78.324219 35.277344 78.316406 35.355469 C 78.289062 36.195312 78.253906 37.0625 78.597656 37.863281 C 78.871094 38.527344 79.367188 39.019531 80.039062 39.339844 C 80.9375 39.753906 81.882812 39.945312 82.882812 39.945312 C 85.316406 39.96875 87.75 40.003906 90.1875 40.003906 C 91.25 40.003906 92.328125 39.996094 93.375 39.730469 C 94.8125 39.367188 95.976562 38.554688 96.144531 36.917969 C 96.226562 35.96875 96.210938 35.011719 96.101562 34.0625 C 95.976562 33.210938 95.40625 32.582031 94.578125 32.171875 C 93.722656 31.738281 92.773438 31.515625 91.8125 31.515625 C 89.226562 31.453125 86.625 31.472656 84.027344 31.421875 C 83.28125 31.398438 82.539062 31.308594 81.808594 31.160156 C 81.214844 31.03125 80.796875 30.617188 80.683594 30.046875 C 80.542969 29.363281 80.507812 28.664062 80.738281 27.988281 C 81 27.238281 81.621094 26.96875 82.34375 26.867188 C 84.347656 26.566406 86.359375 26.71875 88.378906 26.714844 C 89.535156 26.707031 90.691406 26.789062 91.84375 26.875 C 92.492188 26.925781 93.144531 27.113281 93.386719 27.792969 C 93.480469 28.082031 93.484375 28.394531 93.519531 28.6875 C 93.539062 28.847656 93.519531 29.023438 93.519531 29.210938 L 95.867188 29.210938 C 95.867188 27.914062 95.8125 26.675781 94.625 25.796875 C 94.132812 25.445312 93.566406 25.242188 92.964844 25.113281 C 91.300781 24.730469 89.613281 24.730469 87.917969 24.730469 C 86.34375 24.742188 84.757812 24.742188 83.179688 24.808594 C 82.214844 24.84375 81.238281 24.957031 80.359375 25.339844 C 79.480469 25.703125 78.828125 26.285156 78.546875 27.203125 C 78.164062 28.460938 78.1875 29.804688 78.605469 31.046875 C 78.894531 31.925781 79.621094 32.449219 80.53125 32.742188 C 81.9375 33.203125 83.40625 33.21875 84.863281 33.25 C 87.21875 33.304688 89.578125 33.285156 91.925781 33.359375 C 92.777344 33.371094 93.539062 33.671875 93.8125 34.558594 C 93.878906 34.789062 93.898438 35.03125 93.898438 35.257812 C 93.898438 35.84375 93.976562 36.4375 93.695312 36.988281 C 93.496094 37.382812 93.164062 37.617188 92.769531 37.785156 C 92.164062 38.03125 91.523438 38.03125 90.90625 38.03125 C 88.378906 38.0625 85.871094 38.0625 83.351562 38.03125 C 82.667969 38.03125 81.972656 38.011719 81.335938 37.675781 C 80.851562 37.40625 80.664062 36.988281 80.625 36.503906 C 80.582031 36.054688 80.605469 35.609375 80.605469 35.113281 M 61.4375 31.289062 L 61.4375 26.875 L 74.28125 26.875 L 74.28125 24.882812 L 58.761719 24.882812 L 58.761719 39.882812 L 59.132812 39.882812 C 64.089844 39.875 69.058594 39.863281 74.027344 39.863281 C 74.34375 39.863281 74.425781 39.78125 74.417969 39.480469 C 74.390625 39.042969 74.390625 38.609375 74.417969 38.171875 C 74.433594 37.863281 74.316406 37.789062 74.003906 37.789062 C 69.980469 37.808594 65.953125 37.804688 61.914062 37.804688 L 61.449219 37.804688 L 61.449219 33.34375 L 74.070312 33.34375 C 74.070312 32.6875 74.078125 32.085938 74.058594 31.480469 C 74.058594 31.40625 73.945312 31.320312 73.863281 31.300781 C 73.769531 31.257812 73.667969 31.289062 73.570312 31.289062 Z M 1.8125 24.890625 L 1.8125 26.855469 L 9.5 26.855469 L 9.5 39.855469 L 12.207031 39.855469 L 12.207031 26.875 L 19.710938 26.875 L 19.710938 24.890625 Z M 22.804688 39.863281 L 25.453125 39.863281 L 25.453125 24.9375 L 22.804688 24.9375 Z M 22.804688 39.863281 "></path></g></svg>