<svg xmlns="http://www.w3.org/2000/svg" xmlns:xlink="http://www.w3.org/1999/xlink" width="182px" height="65px" viewBox="0 0 183 65"><g id="surface1"><path style=" stroke:none;fill-rule:nonzero;fill:rgb(88.627452%,10.588235%,13.333334%);fill-opacity:1;" d="M 68.304688 0 L 114.695312 0 C 119.824219 0 123.976562 4.15625 123.976562 9.285156 L 123.976562 55.714844 C 123.976562 60.84375 119.824219 65 114.695312 65 L 68.304688 65 C 63.175781 65 59.023438 60.84375 59.023438 55.714844 L 59.023438 9.285156 C 59.023438 4.15625 63.175781 0 68.304688 0 Z M 68.304688 0 "></path><path style=" stroke:none;fill-rule:nonzero;fill:rgb(100%,100%,100%);fill-opacity:1;" d="M 70.34375 22.835938 L 82.351562 22.835938 C 82.777344 22.835938 83.109375 22.753906 83.351562 22.589844 L 83.714844 22.34375 L 83.847656 22.390625 L 83.925781 22.554688 L 85.40625 29.195312 L 85.40625 29.277344 L 85.328125 29.488281 L 85.148438 29.574219 C 84.976562 29.574219 84.789062 29.289062 84.574219 28.714844 C 84.359375 28.140625 84.125 27.648438 83.867188 27.238281 C 83.207031 26.207031 82.40625 25.375 81.480469 24.742188 C 80.535156 24.101562 79.472656 23.667969 78.351562 23.46875 L 78.351562 38.84375 C 78.351562 39.621094 78.410156 40.171875 78.523438 40.484375 C 78.636719 40.796875 78.835938 41.035156 79.121094 41.207031 C 79.367188 41.359375 79.757812 41.460938 80.292969 41.515625 C 80.832031 41.570312 81.097656 41.710938 81.097656 41.925781 L 80.984375 42.175781 L 80.597656 42.246094 L 71.953125 42.246094 L 71.539062 42.175781 L 71.425781 41.925781 C 71.425781 41.710938 71.671875 41.578125 72.167969 41.523438 C 72.660156 41.46875 73.023438 41.394531 73.261719 41.289062 C 73.582031 41.15625 73.835938 40.894531 73.964844 40.574219 C 74.101562 40.246094 74.175781 39.667969 74.175781 38.84375 L 74.175781 23.46875 C 73.007812 23.683594 71.964844 24.105469 71.046875 24.734375 C 70.089844 25.398438 69.277344 26.25 68.652344 27.238281 C 68.390625 27.660156 68.152344 28.15625 67.941406 28.722656 C 67.734375 29.289062 67.542969 29.574219 67.375 29.574219 L 67.21875 29.492188 L 67.148438 29.277344 L 67.148438 29.195312 L 68.808594 22.542969 L 68.894531 22.40625 L 69.035156 22.347656 L 69.382812 22.589844 C 69.597656 22.753906 69.917969 22.839844 70.34375 22.835938 Z M 95.703125 23.0625 C 93.863281 23.0625 92.457031 23.871094 91.476562 25.496094 C 90.5 27.113281 90.011719 29.464844 90.011719 32.542969 C 90.011719 35.617188 90.5 37.964844 91.476562 39.589844 C 92.457031 41.210938 93.863281 42.023438 95.703125 42.023438 C 97.542969 42.023438 98.929688 41.210938 99.898438 39.589844 C 100.867188 37.964844 101.347656 35.617188 101.347656 32.542969 C 101.347656 29.464844 100.863281 27.113281 99.886719 25.496094 C 98.917969 23.871094 97.519531 23.0625 95.699219 23.0625 Z M 95.703125 22.457031 C 98.660156 22.457031 101.105469 23.40625 103.035156 25.304688 C 104.96875 27.203125 105.929688 29.613281 105.929688 32.542969 C 105.929688 35.46875 104.964844 37.875 103.035156 39.789062 C 101.105469 41.703125 98.660156 42.660156 95.703125 42.660156 C 94.480469 42.660156 93.335938 42.484375 92.273438 42.144531 C 91.214844 41.804688 90.226562 41.28125 89.34375 40.601562 C 88.089844 39.65625 87.128906 38.484375 86.457031 37.09375 C 85.777344 35.671875 85.429688 34.117188 85.445312 32.542969 C 85.445312 29.617188 86.414062 27.203125 88.339844 25.304688 C 90.269531 23.40625 92.726562 22.457031 95.703125 22.457031 Z M 107.707031 22.835938 L 115.273438 22.835938 C 115.492188 22.835938 115.640625 22.863281 115.726562 22.921875 L 115.855469 23.199219 C 115.855469 23.378906 115.671875 23.5 115.308594 23.566406 C 115.027344 23.609375 114.746094 23.691406 114.488281 23.804688 C 114.160156 23.984375 113.925781 24.230469 113.792969 24.539062 C 113.664062 24.84375 113.59375 25.429688 113.59375 26.28125 L 113.59375 38.816406 C 113.59375 39.667969 113.660156 40.253906 113.792969 40.566406 C 113.925781 40.878906 114.164062 41.125 114.507812 41.304688 C 114.65625 41.378906 114.921875 41.453125 115.296875 41.523438 C 115.671875 41.59375 115.859375 41.71875 115.859375 41.898438 L 115.75 42.175781 C 115.679688 42.222656 115.523438 42.246094 115.273438 42.246094 L 107.707031 42.246094 C 107.453125 42.246094 107.285156 42.222656 107.207031 42.171875 L 107.097656 41.898438 C 107.097656 41.71875 107.28125 41.597656 107.644531 41.523438 C 108.007812 41.449219 108.277344 41.375 108.445312 41.289062 C 108.765625 41.136719 109.015625 40.875 109.15625 40.550781 C 109.300781 40.230469 109.375 39.648438 109.375 38.816406 L 109.375 25.5625 C 109.375 25.105469 109.277344 24.71875 109.085938 24.410156 C 108.898438 24.101562 108.625 23.871094 108.261719 23.71875 C 108.128906 23.675781 107.945312 23.632812 107.707031 23.59375 C 107.296875 23.519531 107.09375 23.386719 107.09375 23.195312 L 107.226562 22.917969 C 107.316406 22.859375 107.472656 22.832031 107.703125 22.832031 Z M 107.707031 22.835938 "></path></g></svg>