<svg xmlns="http://www.w3.org/2000/svg" xmlns:xlink="http://www.w3.org/1999/xlink" width="182px" height="65px" viewBox="0 0 183 65"><defs><linearGradient id="linear0" gradientUnits="userSpaceOnUse" x1="1317.900024" y1="1475.73999" x2="3287.040039" y2="1475.73999" gradientTransform="matrix(0.0323907,0,0,0.0324831,-20.937452,-15.436622)"><stop offset="0" style="stop-color:rgb(81.568627%,13.72549%,16.470588%);stop-opacity:1;"></stop><stop offset="1" style="stop-color:rgb(87.45098%,12.156863%,16.078431%);stop-opacity:1;"></stop></linearGradient><linearGradient id="linear1" gradientUnits="userSpaceOnUse" x1="3053.830078" y1="1371.829956" x2="3317.969971" y2="1371.829956" gradientTransform="matrix(0.0323907,0,0,0.0324831,-20.937452,-15.436622)"><stop offset="0" style="stop-color:rgb(81.568627%,13.72549%,16.470588%);stop-opacity:1;"></stop><stop offset="1" style="stop-color:rgb(87.45098%,12.156863%,16.078431%);stop-opacity:1;"></stop></linearGradient><linearGradient id="linear2" gradientUnits="userSpaceOnUse" x1="3053.330078" y1="1574.380005" x2="3317.899902" y2="1574.380005" gradientTransform="matrix(0.0323907,0,0,0.0324831,-20.937452,-15.436622)"><stop offset="0" style="stop-color:rgb(81.568627%,13.72549%,16.470588%);stop-opacity:1;"></stop><stop offset="1" style="stop-color:rgb(87.45098%,12.156863%,16.078431%);stop-opacity:1;"></stop></linearGradient><linearGradient id="linear3" gradientUnits="userSpaceOnUse" x1="3431.350098" y1="1474.410034" x2="3872.040039" y2="1474.410034" gradientTransform="matrix(0.0323907,0,0,0.0324831,-20.937452,-15.436622)"><stop offset="0" style="stop-color:rgb(81.568627%,13.72549%,16.470588%);stop-opacity:1;"></stop><stop offset="1" style="stop-color:rgb(87.45098%,12.156863%,16.078431%);stop-opacity:1;"></stop></linearGradient><linearGradient id="linear4" gradientUnits="userSpaceOnUse" x1="3998.459961" y1="1474.410034" x2="4377.029785" y2="1474.410034" gradientTransform="matrix(0.0323907,0,0,0.0324831,-20.937452,-15.436622)"><stop offset="0" style="stop-color:rgb(81.568627%,13.72549%,16.470588%);stop-opacity:1;"></stop><stop offset="1" style="stop-color:rgb(87.45098%,12.156863%,16.078431%);stop-opacity:1;"></stop></linearGradient><linearGradient id="linear5" gradientUnits="userSpaceOnUse" x1="4439.879883" y1="1475.5" x2="5194.109863" y2="1475.5" gradientTransform="matrix(0.0323907,0,0,0.0324831,-20.937452,-15.436622)"><stop offset="0" style="stop-color:rgb(81.568627%,13.72549%,16.470588%);stop-opacity:1;"></stop><stop offset="1" style="stop-color:rgb(87.45098%,12.156863%,16.078431%);stop-opacity:1;"></stop></linearGradient><linearGradient id="linear6" gradientUnits="userSpaceOnUse" x1="5233.120117" y1="1474.410034" x2="5624.689941" y2="1474.410034" gradientTransform="matrix(0.0323907,0,0,0.0324831,-20.937452,-15.436622)"><stop offset="0" style="stop-color:rgb(81.568627%,13.72549%,16.470588%);stop-opacity:1;"></stop><stop offset="1" style="stop-color:rgb(87.45098%,12.156863%,16.078431%);stop-opacity:1;"></stop></linearGradient></defs><g id="surface1"><path style=" stroke:none;fill-rule:nonzero;fill:rgb(100%,100%,100%);fill-opacity:1;" d="M 86.566406 32.488281 C 86.566406 14.558594 72.070312 0.0273438 54.195312 0.0273438 C 36.316406 0.0273438 21.828125 14.558594 21.828125 32.488281 C 21.828125 50.414062 36.316406 64.945312 54.195312 64.945312 C 72.070312 64.945312 86.566406 50.414062 86.566406 32.488281 Z M 86.566406 32.488281 "></path><path style=" stroke:none;fill-rule:nonzero;fill:url(#linear0);" d="M 74.382812 40.671875 L 74.382812 24.242188 L 85.507812 24.242188 C 81.863281 10.292969 69.210938 0 54.160156 0 C 36.257812 0 21.75 14.550781 21.75 32.5 C 21.75 50.449219 36.257812 65 54.160156 65 C 69.242188 65 81.917969 54.664062 85.53125 40.667969 Z M 53.804688 26.988281 L 44.792969 37.503906 L 53.804688 37.503906 L 53.804688 40.671875 L 40.160156 40.671875 L 40.160156 37.925781 L 49.167969 27.410156 L 40.445312 27.410156 L 40.445312 24.242188 L 53.804688 24.242188 Z M 70.042969 27.457031 L 61.152344 27.457031 L 61.152344 30.792969 L 70.042969 30.792969 L 70.042969 34.003906 L 61.152344 34.003906 L 61.152344 37.457031 L 70.042969 37.457031 L 70.042969 40.671875 L 57.570312 40.671875 L 57.570312 24.242188 L 70.042969 24.242188 Z M 70.042969 27.457031 "></path><path style=" stroke:none;fill-rule:nonzero;fill:url(#linear1);" d="M 77.976562 27.457031 L 77.976562 30.792969 L 86.535156 30.738281 C 86.476562 29.636719 86.363281 28.542969 86.195312 27.457031 Z M 77.976562 27.457031 "></path><path style=" stroke:none;fill-rule:nonzero;fill:url(#linear2);" d="M 77.960938 37.457031 L 86.191406 37.457031 C 86.367188 36.296875 86.480469 35.125 86.53125 33.953125 L 77.960938 34.003906 Z M 77.960938 37.457031 "></path><path style=" stroke:none;fill-rule:nonzero;fill:url(#linear3);" d="M 90.207031 24.242188 L 92.875 24.242188 L 101.648438 35.601562 L 101.648438 24.242188 L 104.480469 24.242188 L 104.480469 40.671875 L 102.066406 40.671875 L 93.035156 28.984375 L 93.035156 40.671875 L 90.203125 40.671875 Z M 90.207031 24.242188 "></path><path style=" stroke:none;fill-rule:nonzero;fill:url(#linear4);" d="M 108.574219 24.242188 L 120.71875 24.242188 L 120.71875 26.824219 L 111.453125 26.824219 L 111.453125 31.097656 L 119.667969 31.097656 L 119.667969 33.675781 L 111.453125 33.675781 L 111.453125 38.089844 L 120.835938 38.089844 L 120.835938 40.671875 L 108.574219 40.671875 Z M 108.574219 24.242188 "></path><path style=" stroke:none;fill-rule:nonzero;fill:url(#linear5);" d="M 122.875 24.242188 L 125.988281 24.242188 L 129.894531 36.425781 L 133.917969 24.199219 L 136.351562 24.199219 L 140.375 36.425781 L 144.285156 24.242188 L 147.304688 24.242188 L 141.59375 40.789062 L 139.113281 40.789062 L 135.085938 28.984375 L 131.0625 40.789062 L 128.582031 40.789062 Z M 122.875 24.242188 "></path><path style=" stroke:none;fill-rule:nonzero;fill:url(#linear6);" d="M 148.566406 38.277344 L 150.296875 36.210938 C 151.867188 37.574219 153.433594 38.347656 155.46875 38.347656 C 157.246094 38.347656 158.371094 37.523438 158.371094 36.28125 L 158.371094 36.234375 C 158.371094 35.0625 157.714844 34.425781 154.671875 33.726562 C 151.1875 32.878906 149.222656 31.847656 149.222656 28.820312 L 149.222656 28.773438 C 149.222656 25.957031 151.5625 24.007812 154.8125 24.007812 C 157.203125 24.007812 159.097656 24.738281 160.757812 26.074219 L 159.214844 28.257812 C 157.738281 27.152344 156.265625 26.566406 154.769531 26.566406 C 153.082031 26.566406 152.101562 27.433594 152.101562 28.515625 L 152.101562 28.5625 C 152.101562 29.832031 152.847656 30.394531 155.984375 31.144531 C 159.449219 31.988281 161.25 33.234375 161.25 35.957031 L 161.25 36 C 161.25 39.078125 158.839844 40.90625 155.398438 40.90625 C 152.894531 40.90625 150.53125 40.039062 148.566406 38.277344 Z M 148.566406 38.277344 "></path></g></svg>