<svg xmlns="http://www.w3.org/2000/svg" xmlns:xlink="http://www.w3.org/1999/xlink" width="324px" height="115px" viewBox="0 0 247 115"><defs><linearGradient id="linear0" gradientUnits="userSpaceOnUse" x1="1317.900024" y1="1475.73999" x2="3287.040039" y2="1475.73999" gradientTransform="matrix(0.0573474,0,0,0.0574701,-75.569589,-27.310948)"><stop offset="0" style="stop-color:rgb(81.568627%,13.72549%,16.470588%);stop-opacity:1;"></stop><stop offset="1" style="stop-color:rgb(87.45098%,12.156863%,16.078431%);stop-opacity:1;"></stop></linearGradient><linearGradient id="linear1" gradientUnits="userSpaceOnUse" x1="3053.830078" y1="1371.829956" x2="3317.969971" y2="1371.829956" gradientTransform="matrix(0.0573474,0,0,0.0574701,-75.569589,-27.310948)"><stop offset="0" style="stop-color:rgb(81.568627%,13.72549%,16.470588%);stop-opacity:1;"></stop><stop offset="1" style="stop-color:rgb(87.45098%,12.156863%,16.078431%);stop-opacity:1;"></stop></linearGradient><linearGradient id="linear2" gradientUnits="userSpaceOnUse" x1="3053.330078" y1="1574.380005" x2="3317.899902" y2="1574.380005" gradientTransform="matrix(0.0573474,0,0,0.0574701,-75.569589,-27.310948)"><stop offset="0" style="stop-color:rgb(81.568627%,13.72549%,16.470588%);stop-opacity:1;"></stop><stop offset="1" style="stop-color:rgb(87.45098%,12.156863%,16.078431%);stop-opacity:1;"></stop></linearGradient><linearGradient id="linear3" gradientUnits="userSpaceOnUse" x1="3431.350098" y1="1474.410034" x2="3872.040039" y2="1474.410034" gradientTransform="matrix(0.0573474,0,0,0.0574701,-75.569589,-27.310948)"><stop offset="0" style="stop-color:rgb(81.568627%,13.72549%,16.470588%);stop-opacity:1;"></stop><stop offset="1" style="stop-color:rgb(87.45098%,12.156863%,16.078431%);stop-opacity:1;"></stop></linearGradient><linearGradient id="linear4" gradientUnits="userSpaceOnUse" x1="3998.459961" y1="1474.410034" x2="4377.029785" y2="1474.410034" gradientTransform="matrix(0.0573474,0,0,0.0574701,-75.569589,-27.310948)"><stop offset="0" style="stop-color:rgb(81.568627%,13.72549%,16.470588%);stop-opacity:1;"></stop><stop offset="1" style="stop-color:rgb(87.45098%,12.156863%,16.078431%);stop-opacity:1;"></stop></linearGradient><linearGradient id="linear5" gradientUnits="userSpaceOnUse" x1="4439.879883" y1="1475.5" x2="5194.109863" y2="1475.5" gradientTransform="matrix(0.0573474,0,0,0.0574701,-75.569589,-27.310948)"><stop offset="0" style="stop-color:rgb(81.568627%,13.72549%,16.470588%);stop-opacity:1;"></stop><stop offset="1" style="stop-color:rgb(87.45098%,12.156863%,16.078431%);stop-opacity:1;"></stop></linearGradient><linearGradient id="linear6" gradientUnits="userSpaceOnUse" x1="5233.120117" y1="1474.410034" x2="5624.689941" y2="1474.410034" gradientTransform="matrix(0.0573474,0,0,0.0574701,-75.569589,-27.310948)"><stop offset="0" style="stop-color:rgb(81.568627%,13.72549%,16.470588%);stop-opacity:1;"></stop><stop offset="1" style="stop-color:rgb(87.45098%,12.156863%,16.078431%);stop-opacity:1;"></stop></linearGradient></defs><g id="surface1"><path style=" stroke:none;fill-rule:nonzero;fill:rgb(100%,100%,100%);fill-opacity:1;" d="M 114.761719 57.476562 C 114.761719 25.757812 89.101562 0.046875 57.453125 0.046875 C 25.800781 0.046875 0.144531 25.757812 0.144531 57.476562 C 0.144531 89.195312 25.800781 114.90625 57.453125 114.90625 C 89.101562 114.90625 114.761719 89.195312 114.761719 57.476562 Z M 114.761719 57.476562 "></path><path style=" stroke:none;fill-rule:nonzero;fill:url(#linear0);" d="M 93.191406 71.957031 L 93.191406 42.890625 L 112.890625 42.890625 C 106.441406 18.210938 84.039062 0 57.386719 0 C 25.695312 0 0.0078125 25.742188 0.0078125 57.5 C 0.0078125 89.257812 25.695312 115 57.386719 115 C 84.089844 115 106.535156 96.714844 112.933594 71.953125 Z M 56.757812 47.75 L 40.808594 66.351562 L 56.757812 66.351562 L 56.757812 71.957031 L 32.605469 71.957031 L 32.605469 67.097656 L 48.554688 48.496094 L 33.105469 48.496094 L 33.105469 42.890625 L 56.761719 42.890625 Z M 85.511719 48.578125 L 69.769531 48.578125 L 69.769531 54.476562 L 85.511719 54.476562 L 85.511719 60.164062 L 69.769531 60.164062 L 69.769531 66.269531 L 85.511719 66.269531 L 85.511719 71.957031 L 63.429688 71.957031 L 63.429688 42.890625 L 85.511719 42.890625 Z M 85.511719 48.578125 "></path><path style=" stroke:none;fill-rule:nonzero;fill:url(#linear1);" d="M 99.558594 48.578125 L 99.558594 54.476562 L 114.707031 54.382812 C 114.605469 52.4375 114.402344 50.5 114.105469 48.578125 Z M 99.558594 48.578125 "></path><path style=" stroke:none;fill-rule:nonzero;fill:url(#linear2);" d="M 99.53125 66.269531 L 114.101562 66.269531 C 114.410156 64.214844 114.613281 62.144531 114.703125 60.070312 L 99.53125 60.164062 Z M 99.53125 66.269531 "></path><path style=" stroke:none;fill-rule:nonzero;fill:url(#linear3);" d="M 121.210938 42.890625 L 125.933594 42.890625 L 141.46875 62.988281 L 141.46875 42.890625 L 146.480469 42.890625 L 146.480469 71.957031 L 142.210938 71.957031 L 126.21875 51.277344 L 126.21875 71.957031 L 121.207031 71.957031 Z M 121.210938 42.890625 "></path><path style=" stroke:none;fill-rule:nonzero;fill:url(#linear4);" d="M 153.730469 42.890625 L 175.234375 42.890625 L 175.234375 47.457031 L 158.828125 47.457031 L 158.828125 55.015625 L 173.371094 55.015625 L 173.371094 59.582031 L 158.828125 59.582031 L 158.828125 67.386719 L 175.441406 67.386719 L 175.441406 71.957031 L 153.730469 71.957031 Z M 153.730469 42.890625 "></path><path style=" stroke:none;fill-rule:nonzero;fill:url(#linear5);" d="M 179.046875 42.890625 L 184.558594 42.890625 L 191.476562 64.445312 L 198.601562 42.8125 L 202.910156 42.8125 L 210.035156 64.445312 L 216.953125 42.890625 L 222.300781 42.890625 L 212.191406 72.164062 L 207.796875 72.164062 L 200.671875 51.277344 L 193.546875 72.164062 L 189.15625 72.164062 Z M 179.046875 42.890625 "></path><path style=" stroke:none;fill-rule:nonzero;fill:url(#linear6);" d="M 224.535156 67.71875 L 227.601562 64.066406 C 230.378906 66.476562 233.152344 67.84375 236.757812 67.84375 C 239.90625 67.84375 241.894531 66.390625 241.894531 64.191406 L 241.894531 64.109375 C 241.894531 62.03125 240.734375 60.910156 235.347656 59.667969 C 229.175781 58.171875 225.695312 56.34375 225.695312 50.988281 L 225.695312 50.90625 C 225.695312 45.921875 229.839844 42.476562 235.597656 42.476562 C 239.824219 42.476562 243.179688 43.765625 246.121094 46.132812 L 243.386719 49.992188 C 240.777344 48.039062 238.167969 47.003906 235.515625 47.003906 C 232.53125 47.003906 230.792969 48.539062 230.792969 50.453125 L 230.792969 50.535156 C 230.792969 52.777344 232.117188 53.773438 237.667969 55.101562 C 243.800781 56.597656 246.992188 58.796875 246.992188 63.613281 L 246.992188 63.695312 C 246.992188 69.136719 242.722656 72.375 236.632812 72.375 C 232.199219 72.371094 228.015625 70.835938 224.535156 67.71875 Z M 224.535156 67.71875 "></path></g></svg>