<svg xmlns="http://www.w3.org/2000/svg" width="32" height="8" viewBox="0 0 32 8" fill="none"><path d="M1.00255 3.50001C0.726403 3.50001 0.501406 3.72386 0.5 4C0.498594 4.27614 0.721312 4.49999 0.997455 4.49999L1.00255 3.50001ZM31.3518 4.35355C31.548 4.15829 31.5496 3.84171 31.3554 3.64645L28.1896 0.464512C27.9953 0.269252 27.6787 0.269252 27.4825 0.464512C27.2862 0.659772 27.2846 0.97635 27.4789 1.17161L30.2929 4L27.4501 6.82839C27.2538 7.02365 27.2522 7.34023 27.4465 7.53549C27.6407 7.73075 27.9573 7.73075 28.1536 7.53549L31.3518 4.35355ZM0.997455 4.49999L30.9975 4.49999L31.0025 3.50001L1.00255 3.50001L0.997455 4.49999Z" fill="#20265C"></path></svg>