<svg xmlns="http://www.w3.org/2000/svg" width="101" height="137" viewBox="0 0 101 137" fill="none"><g opacity="0.2"><path fill-rule="evenodd" clip-rule="evenodd" d="M46.4727 153.164L46.4727 106.125L0.000559002 106.125L0.000558782 111.165C0.000557768 134.36 18.5776 153.164 41.4935 153.164L46.4727 153.164Z" fill="#F0D969"></path><path fill-rule="evenodd" clip-rule="evenodd" d="M0.00195312 99.2411L0.00195516 52.7756L46.4741 52.7756L46.4741 57.754C46.4741 80.6667 27.897 99.2411 4.98111 99.2411L0.00195312 99.2411Z" fill="#F0D969"></path><path fill-rule="evenodd" clip-rule="evenodd" d="M0.00195312 0L0.00195107 47.0392L46.4741 47.0392L46.4741 41.9992C46.4741 18.8037 27.897 1.21933e-06 4.98111 2.17646e-07L0.00195312 0Z" fill="#F0D969"></path><path d="M89.2065 0.454739C90.5459 0.254082 91.9062 0.118215 93.2842 0.050384L93.3333 1.04917C93.9959 1.01656 94.6627 1.00006 95.3333 1.00006L96.5781 1.00006L96.5781 6.08719e-05L99.0677 6.09807e-05L99.0677 1.00006L99.3125 1.00006L99.3125 1.96003L100.312 1.96003L100.312 5.87996L99.3125 5.87996L99.3125 9.79988L100.312 9.79988L100.312 13.7198L99.3125 13.7198L99.3125 17.6397L100.312 17.6397L100.312 21.5597L99.3125 21.5597L99.3125 25.4796L100.312 25.4796L100.312 29.3995L99.3125 29.3995L99.3125 33.3195L100.312 33.3195L100.312 37.2394L99.3125 37.2394L99.3125 41.1593L100.312 41.1593L100.312 45.0793L99.3125 45.0793L99.3125 46.0392L98.3762 46.0392L98.3762 47.0392L94.5035 47.0392L94.5035 46.0392L90.6308 46.0392L90.6308 47.0392L86.7581 47.0392L86.7581 46.0392L82.8855 46.0392L82.8855 47.0392L79.0128 47.0392L79.0128 46.0392L75.1401 46.0392L75.1401 47.0392L71.2674 47.0392L71.2674 46.0392L67.3948 46.0392L67.3948 47.0392L63.5221 47.0392L63.5221 46.0392L59.6494 46.0392L59.6494 47.0392L55.7767 47.0392L55.7767 46.0392L54.8404 46.0392L54.8404 45.7792L53.8404 45.7792L53.8404 43.2593L54.8404 43.2593L54.8404 41.9993C54.8404 41.328 54.8563 40.6606 54.8878 39.9974L53.8889 39.95C53.9544 38.5717 54.0854 37.2109 54.279 35.8706L55.2687 36.0136C55.461 34.6826 55.7164 33.3726 56.0317 32.0866L55.0605 31.8484C55.3879 30.513 55.7785 29.2028 56.2288 27.9213L57.1723 28.2529C57.6166 26.9883 58.1206 25.7524 58.6807 24.5485L57.774 24.1267C58.3525 22.8834 58.9894 21.6735 59.6812 20.5005L60.5426 21.0086C61.222 19.8567 61.9556 18.7414 62.7399 17.6663L61.932 17.0769C62.7386 15.9713 63.5974 14.9071 64.5049 13.8882L65.2516 14.5533C66.1394 13.5564 67.0748 12.6039 68.0542 11.6995L67.3757 10.9648C68.3793 10.038 69.4281 9.16031 70.5183 8.33564L71.1216 9.13316C72.1839 8.32954 73.2864 7.57753 74.4255 6.88079L73.9037 6.02772C75.0666 5.31639 76.2668 4.6612 77.5006 4.06588L77.9352 4.96651C79.1315 4.3893 80.36 3.8698 81.6174 3.41155L81.275 2.472C82.5521 2.00656 83.8583 1.60273 85.19 1.26405L85.4365 2.2332C86.7192 1.90696 88.0264 1.64269 89.3547 1.4437L89.2065 0.454739Z" fill="#F0D969" stroke="#F0D969" stroke-width="2" stroke-dasharray="4 4"></path><path fill-rule="evenodd" clip-rule="evenodd" d="M53.8398 98.6673L53.8398 51.6281L100.312 51.6281L100.312 56.6681C100.312 79.8636 81.7349 98.6673 58.819 98.6673L53.8398 98.6673Z" fill="#F0D969"></path><path d="M55.6697 152.017C55.6697 151.522 55.3111 151.112 54.8398 151.031L54.8398 149.435C54.8398 148.883 54.3921 148.435 53.8398 148.435L53.8398 140.109C54.3921 140.109 54.8398 139.662 54.8398 139.109L54.8398 133.947C54.8398 133.394 54.3921 132.947 53.8398 132.947L53.8398 124.621C54.3921 124.621 54.8398 124.173 54.8398 123.621L54.8398 118.458C54.8398 117.906 54.3921 117.458 53.8398 117.458L53.8398 109.132C54.3921 109.132 54.8398 108.685 54.8398 108.132L54.8398 106.551L56.4216 106.551C56.9739 106.551 57.4216 106.103 57.4216 105.551L65.7488 105.551C65.7488 106.103 66.1965 106.551 66.7488 106.551L71.9123 106.551C72.4646 106.551 72.9123 106.103 72.9123 105.551L81.2395 105.551C81.2395 106.103 81.6872 106.551 82.2395 106.551L87.403 106.551C87.9553 106.551 88.403 106.103 88.403 105.551L96.7302 105.551C96.7302 106.103 97.1779 106.551 97.7302 106.551L99.3264 106.551C99.4072 107.022 99.8177 107.381 100.312 107.381L100.312 108.7C99.7597 108.7 99.3119 109.147 99.3119 109.7L99.3119 110.529C99.3119 111.421 99.2832 112.305 99.2265 113.181C99.1912 113.728 99.6028 114.201 100.148 114.243C99.8823 117.238 99.2982 120.142 98.4298 122.92C97.91 122.75 97.3492 123.03 97.173 123.549C96.6017 125.232 95.9227 126.865 95.1442 128.441C94.9013 128.932 95.0996 129.527 95.5869 129.775C94.2075 132.404 92.5544 134.867 90.6653 137.126C90.2502 136.77 89.6248 136.813 89.2631 137.225C88.097 138.554 86.8454 139.805 85.5167 140.971C85.1046 141.333 85.061 141.958 85.4168 142.373C83.1576 144.262 80.6943 145.914 78.065 147.293C77.817 146.806 77.2225 146.608 76.7309 146.85C75.1554 147.629 73.5221 148.307 71.8392 148.878C71.32 149.055 71.0402 149.615 71.2097 150.135C68.4314 151.003 65.5276 151.587 62.5322 151.853C62.4906 151.307 62.0178 150.896 61.4707 150.931C60.5942 150.988 59.71 151.017 58.819 151.017L57.9891 151.017C57.4369 151.017 56.9891 151.464 56.9891 152.017L55.6697 152.017Z" stroke="#F0D969" stroke-width="2" stroke-linecap="round" stroke-linejoin="round" stroke-dasharray="5 10"></path></g></svg>