<svg xmlns="http://www.w3.org/2000/svg" width="101" height="154" viewBox="0 0 101 154" fill="none"><g opacity="0.2"><path fill-rule="evenodd" clip-rule="evenodd" d="M53.8398 0.000244141L53.8398 47.0394L100.312 47.0394V41.9995C100.312 18.8039 81.7349 0.000244141 58.819 0.000244141L53.8398 0.000244141Z" fill="#B3C8FF"></path><path fill-rule="evenodd" clip-rule="evenodd" d="M100.311 53.9231V100.389H53.8384V95.4102C53.8384 72.4975 72.4155 53.9231 95.3314 53.9231H100.311Z" fill="#B3C8FF"></path><path fill-rule="evenodd" clip-rule="evenodd" d="M100.311 153.164V106.125H53.8384V111.165C53.8384 134.361 72.4155 153.164 95.3314 153.164H100.311Z" fill="#B3C8FF"></path><path d="M11.106 152.71C9.76656 152.91 8.40626 153.046 7.02832 153.114L6.97915 152.115C6.31662 152.148 5.64983 152.164 4.97915 152.164H3.73437V153.164H1.24479L1.24479 152.164H1V151.204H0L0 147.284H1L1 143.364H0L0 139.445H1L1 135.525H0L0 131.605H1L1 127.685H0L0 123.765H1L1 119.845H0L0 115.925H1L1 112.005H0L0 108.085H1V107.125H1.93634L1.93634 106.125H5.80901V107.125H9.68169V106.125H13.5544V107.125H17.427V106.125H21.2997V107.125H25.1724V106.125H29.0451V107.125H32.9177V106.125H36.7904V107.125H40.6631V106.125H44.5358V107.125H45.4721V107.385H46.4721V109.905H45.4721V111.165C45.4721 111.836 45.4562 112.504 45.4247 113.167L46.4236 113.214C46.3581 114.593 46.2271 115.953 46.0335 117.294L45.0438 117.151C44.8515 118.482 44.5961 119.792 44.2808 121.078L45.252 121.316C44.9246 122.651 44.534 123.962 44.0837 125.243L43.1402 124.912C42.6959 126.176 42.1919 127.412 41.6318 128.616L42.5385 129.038C41.96 130.281 41.3231 131.491 40.6313 132.664L39.7699 132.156C39.0905 133.308 38.3569 134.423 37.5726 135.498L38.3805 136.087C37.5739 137.193 36.7151 138.257 35.8076 139.276L35.0609 138.611C34.1731 139.608 33.2377 140.56 32.2583 141.465L32.9368 142.2C31.9332 143.126 30.8844 144.004 29.7942 144.829L29.1909 144.031C28.1286 144.835 27.0261 145.587 25.887 146.284L26.4088 147.137C25.2459 147.848 24.0457 148.503 22.8119 149.098L22.3773 148.198C21.181 148.775 19.9525 149.295 18.6951 149.753L19.0375 150.692C17.7604 151.158 16.4542 151.562 15.1225 151.9L14.876 150.931C13.5933 151.257 12.2861 151.522 10.9578 151.721L11.106 152.71Z" fill="#B3C8FF" stroke="#B3C8FF" stroke-width="2" stroke-dasharray="4 4"></path><path fill-rule="evenodd" clip-rule="evenodd" d="M46.4727 54.4971L46.4727 101.536H0.000556946V96.4963C0.000556946 73.3008 18.5776 54.4971 41.4935 54.4971H46.4727Z" fill="#B3C8FF"></path><path d="M44.6428 1.14771C44.6428 1.64199 45.0014 2.05252 45.4727 2.13329V3.72912C45.4727 4.28141 45.9204 4.72912 46.4727 4.72912V13.0548C45.9204 13.0548 45.4727 13.5025 45.4727 14.0548V19.2176C45.4727 19.7699 45.9204 20.2176 46.4727 20.2176V28.5433C45.9204 28.5433 45.4727 28.991 45.4727 29.5433L45.4727 34.7061C45.4727 35.2584 45.9204 35.7061 46.4727 35.7061V44.0318C45.9204 44.0318 45.4727 44.4795 45.4727 45.0318V46.6132H43.8909C43.3386 46.6132 42.8909 47.0609 42.8909 47.6132H34.5637C34.5637 47.0609 34.116 46.6132 33.5637 46.6132H28.4002C27.8479 46.6132 27.4002 47.0609 27.4002 47.6132H19.073C19.073 47.0609 18.6253 46.6132 18.073 46.6132L12.9095 46.6132C12.3572 46.6132 11.9095 47.0609 11.9095 47.6132H3.58234C3.58234 47.0609 3.13462 46.6132 2.58234 46.6132H0.986122C0.9053 46.142 0.494801 45.7835 0.000556946 45.7835V44.4645C0.552841 44.4645 1.00056 44.0168 1.00056 43.4645V42.6348C1.00056 41.7437 1.02933 40.8595 1.08598 39.9831C1.12135 39.4359 0.709721 38.9632 0.164497 38.9215C0.430218 35.9262 1.0143 33.0224 1.8827 30.2442C2.40247 30.4138 2.96332 30.134 3.13954 29.6149C3.71079 27.9321 4.38976 26.2989 5.16828 24.7235C5.41117 24.232 5.21289 23.6374 4.72563 23.3894C6.10498 20.7603 7.75813 18.2974 9.6472 16.0385C10.0623 16.3944 10.6877 16.3509 11.0494 15.9389C12.2155 14.6105 13.4671 13.3591 14.7958 12.1933C15.2079 11.8317 15.2515 11.2063 14.8957 10.7911C17.1549 8.90258 19.6182 7.24992 22.2475 5.87099C22.4955 6.35828 23.09 6.55667 23.5816 6.31386C25.1571 5.53562 26.7904 4.85689 28.4733 4.28584C28.9925 4.10969 29.2723 3.54887 29.1028 3.02908C31.8811 2.16103 34.7849 1.57718 37.7803 1.31157C37.8219 1.8568 38.2947 2.26844 38.8418 2.23309C39.7183 2.17647 40.6025 2.14771 41.4935 2.14771H42.3234C42.8756 2.14771 43.3234 1.69999 43.3234 1.14771L44.6428 1.14771Z" stroke="#B3C8FF" stroke-width="2" stroke-linecap="round" stroke-linejoin="round" stroke-dasharray="5 10"></path></g></svg>